<svg width="1127" height="769" xmlns="http://www.w3.org/2000/svg" xmlns:xlink="http://www.w3.org/1999/xlink" xml:space="preserve" overflow="hidden"><g transform="matrix(1 0 0 1 0 4)"><g><path d="M182.5 380C182.5 170.408 352.632 0.499836 562.5 0.499836 772.368 0.499836 942.5 170.408 942.5 380 942.5 589.592 772.368 759.5 562.5 759.5 352.632 759.5 182.5 589.592 182.5 380Z" stroke="#FFFFFF" stroke-width="4.58333" stroke-linecap="butt" stroke-linejoin="miter" stroke-miterlimit="8" stroke-opacity="1" fill="#08739C" fill-rule="evenodd" fill-opacity="1"/><text fill="#FFFFFF" fill-opacity="1" font-family="SimSun,SimSun_MSFontService,Arial" font-style="normal" font-variant="normal" font-weight="400" font-stretch="normal" font-size="28" text-anchor="start" direction="ltr" writing-mode="lr-tb" unicode-bidi="normal" text-decoration="none" transform="translate(506.916 84)">共同爱好</text><path d="M239.5 437C239.5 258.888 384.112 114.5 562.5 114.5 740.888 114.5 885.5 258.888 885.5 437 885.5 615.112 740.888 759.5 562.5 759.5 384.112 759.5 239.5 615.112 239.5 437Z" stroke="#FFFFFF" stroke-width="4.58333" stroke-linecap="butt" stroke-linejoin="miter" stroke-miterlimit="8" stroke-opacity="1" fill="#26A1E2" fill-rule="evenodd" fill-opacity="1"/><text fill="#FFFFFF" fill-opacity="1" font-family="SimSun,SimSun_MSFontService,Arial" font-style="normal" font-variant="normal" font-weight="400" font-stretch="normal" font-size="28" text-anchor="start" direction="ltr" writing-mode="lr-tb" unicode-bidi="normal" text-decoration="none" transform="translate(451.916 196)">合作（业务情感）</text><path d="M296.5 494C296.5 347.368 415.592 228.5 562.5 228.5 709.408 228.5 828.5 347.368 828.5 494 828.5 640.631 709.408 759.5 562.5 759.5 415.592 759.5 296.5 640.631 296.5 494Z" stroke="#FFFFFF" stroke-width="4.58333" stroke-linecap="butt" stroke-linejoin="miter" stroke-miterlimit="8" stroke-opacity="1" fill="#88BDE3" fill-rule="evenodd" fill-opacity="1"/><text fill="#FFFFFF" fill-opacity="1" font-family="SimSun,SimSun_MSFontService,Arial" font-style="normal" font-variant="normal" font-weight="400" font-stretch="normal" font-size="28" text-anchor="start" direction="ltr" writing-mode="lr-tb" unicode-bidi="normal" text-decoration="none" transform="translate(451.916 309)">同事（事业情感）</text><path d="M353.5 551C353.5 435.849 447.072 342.5 562.5 342.5 677.927 342.5 771.5 435.849 771.5 551 771.5 666.151 677.927 759.5 562.5 759.5 447.072 759.5 353.5 666.151 353.5 551Z" stroke="#FFFFFF" stroke-width="4.58333" stroke-linecap="butt" stroke-linejoin="miter" stroke-miterlimit="8" stroke-opacity="1" fill="#88BDE3" fill-rule="evenodd" fill-opacity="1"/><text fill="#FFFFFF" fill-opacity="1" font-family="SimSun,SimSun_MSFontService,Arial" font-style="normal" font-variant="normal" font-weight="400" font-stretch="normal" font-size="28" text-anchor="start" direction="ltr" writing-mode="lr-tb" unicode-bidi="normal" text-decoration="none" transform="translate(451.916 425)">同学（成长情感）</text><path d="M410.5 608C410.5 524.329 478.553 456.5 562.5 456.5 646.447 456.5 714.5 524.329 714.5 608 714.5 691.671 646.447 759.5 562.5 759.5 478.553 759.5 410.5 691.671 410.5 608Z" stroke="#FFFFFF" stroke-width="4.58333" stroke-linecap="butt" stroke-linejoin="miter" stroke-miterlimit="8" stroke-opacity="1" fill="#26A1E2" fill-rule="evenodd" fill-opacity="1"/><text fill="#FFFFFF" fill-opacity="1" font-family="SimSun,SimSun_MSFontService,Arial" font-style="normal" font-variant="normal" font-weight="400" font-stretch="normal" font-size="28" text-anchor="start" direction="ltr" writing-mode="lr-tb" unicode-bidi="normal" text-decoration="none" transform="translate(506.916 615)">血缘关系</text></g></g></svg>