<svg width="1137" height="632" xmlns="http://www.w3.org/2000/svg" xmlns:xlink="http://www.w3.org/1999/xlink" xml:space="preserve" overflow="hidden"><defs><linearGradient x1="2341" y1="1207.47" x2="2341" y2="1543.99" gradientUnits="userSpaceOnUse" spreadMethod="reflect" id="fill0"><stop offset="0" stop-color="#ED8256" stop-opacity="1"/><stop offset="0.5" stop-color="#F26E29" stop-opacity="1"/><stop offset="1" stop-color="#E15E19" stop-opacity="1"/></linearGradient><linearGradient x1="2093.5" y1="1127.91" x2="2093.5" y2="1372.09" gradientUnits="userSpaceOnUse" spreadMethod="reflect" id="fill1"><stop offset="0" stop-color="#4A7E4E" stop-opacity="1"/><stop offset="0.5" stop-color="#156F21" stop-opacity="1"/><stop offset="1" stop-color="#0E6519" stop-opacity="1"/></linearGradient><linearGradient x1="2231.3" y1="955.525" x2="2231.3" y2="1193.91" gradientUnits="userSpaceOnUse" spreadMethod="reflect" id="fill2"><stop offset="0" stop-color="#47AADF" stop-opacity="1"/><stop offset="0.5" stop-color="#05A2DF" stop-opacity="1"/><stop offset="1" stop-color="#0094CE" stop-opacity="1"/></linearGradient><linearGradient x1="2455.48" y1="1172.75" x2="2455.48" y2="1522.48" gradientUnits="userSpaceOnUse" spreadMethod="reflect" id="fill3"><stop offset="0" stop-color="#ED8256" stop-opacity="1"/><stop offset="0.5" stop-color="#F26E29" stop-opacity="1"/><stop offset="1" stop-color="#E15E19" stop-opacity="1"/></linearGradient><linearGradient x1="1980.32" y1="1098.09" x2="1980.32" y2="1262.06" gradientUnits="userSpaceOnUse" spreadMethod="reflect" id="fill4"><stop offset="0" stop-color="#4A7E4E" stop-opacity="1"/><stop offset="0.5" stop-color="#156F21" stop-opacity="1"/><stop offset="1" stop-color="#0E6519" stop-opacity="1"/></linearGradient><linearGradient x1="2097.88" y1="957.36" x2="2097.88" y2="1087.96" gradientUnits="userSpaceOnUse" spreadMethod="reflect" id="fill5"><stop offset="0" stop-color="#47AADF" stop-opacity="1"/><stop offset="0.5" stop-color="#05A2DF" stop-opacity="1"/><stop offset="1" stop-color="#0094CE" stop-opacity="1"/></linearGradient></defs><g transform="translate(-1631 -921)"><g><path d="M2413.17 1260.92 2439.97 1238.52 2461.36 1256.53 2443.84 1286.75C2456.26 1300.77 2465.7 1317.18 2471.59 1334.99L2506.52 1335.01 2511.38 1362.63 2478.54 1374.56C2479.08 1393.31 2475.8 1411.98 2468.91 1429.42L2495.7 1451.83 2481.73 1476.11 2448.89 1464.21C2437.29 1478.92 2422.82 1491.11 2406.37 1500.02L2412.48 1534.41 2386.25 1543.99 2368.75 1513.76C2350.44 1517.55 2331.56 1517.55 2313.25 1513.76L2295.75 1543.99 2269.52 1534.41 2275.63 1500.02C2259.18 1491.11 2244.71 1478.92 2233.11 1464.21L2200.27 1476.11 2186.3 1451.83 2213.09 1429.42C2206.2 1411.98 2202.92 1393.31 2203.46 1374.56L2170.62 1362.63 2175.48 1335.01 2210.41 1334.99C2216.3 1317.18 2225.74 1300.77 2238.16 1286.75L2220.64 1256.53 2242.03 1238.52 2268.83 1260.92C2284.74 1251.08 2302.49 1244.6 2320.98 1241.87L2327.05 1207.47 2354.95 1207.47 2361.02 1241.87C2379.51 1244.6 2397.26 1251.08 2413.17 1260.92Z" fill="url(#fill0)" fill-rule="evenodd"/><text fill="#FFFFFF" fill-opacity="1" font-family="SimSun,SimSun_MSFontService,Arial" font-style="normal" font-variant="normal" font-weight="700" font-stretch="normal" font-size="41" text-anchor="start" direction="ltr" writing-mode="lr-tb" unicode-bidi="normal" text-decoration="none" transform="translate(2299.47 1334)">无明</text><text fill="#FFFFFF" fill-opacity="1" font-family="Cambria Math,Cambria Math_MSFontService,Arial" font-style="normal" font-variant="normal" font-weight="700" font-stretch="normal" font-size="41" text-anchor="start" direction="ltr" writing-mode="lr-tb" unicode-bidi="normal" text-decoration="none" transform="translate(2325.02 1387)">⇅</text><text fill="#FFFFFF" fill-opacity="1" font-family="SimSun,SimSun_MSFontService,Arial" font-style="normal" font-variant="normal" font-weight="700" font-stretch="normal" font-size="41" text-anchor="start" direction="ltr" writing-mode="lr-tb" unicode-bidi="normal" text-decoration="none" transform="translate(2278.75 1440)">漏烦恼</text><path d="M2155.92 1188.32 2192.77 1177.11 2206.43 1200.64 2178.43 1227.09C2182.52 1242.09 2182.52 1257.91 2178.43 1272.91L2206.43 1299.36 2192.77 1322.89 2155.92 1311.68C2144.9 1322.71 2131.13 1330.61 2116.01 1334.59L2107.2 1372.09 2079.8 1372.09 2070.99 1334.59C2055.87 1330.61 2042.1 1322.7 2031.08 1311.68L1994.23 1322.89 1980.57 1299.36 2008.57 1272.91C2004.48 1257.91 2004.48 1242.09 2008.57 1227.09L1980.57 1200.64 1994.23 1177.11 2031.08 1188.32C2042.1 1177.3 2055.87 1169.39 2070.99 1165.41L2079.8 1127.91 2107.2 1127.91 2116.01 1165.41C2131.13 1169.39 2144.9 1177.3 2155.92 1188.32Z" fill="url(#fill1)" fill-rule="evenodd"/><text fill="#FFFFFF" fill-opacity="1" font-family="SimSun,SimSun_MSFontService,Arial" font-style="normal" font-variant="normal" font-weight="700" font-stretch="normal" font-size="41" text-anchor="start" direction="ltr" writing-mode="lr-tb" unicode-bidi="normal" text-decoration="none" transform="translate(2072.86 1214)">识</text><text fill="#FFFFFF" fill-opacity="1" font-family="Cambria Math,Cambria Math_MSFontService,Arial" font-style="normal" font-variant="normal" font-weight="700" font-stretch="normal" font-size="41" text-anchor="start" direction="ltr" writing-mode="lr-tb" unicode-bidi="normal" text-decoration="none" transform="translate(2077.72 1263)">⇅</text><text fill="#FFFFFF" fill-opacity="1" font-family="SimSun,SimSun_MSFontService,Arial" font-style="normal" font-variant="normal" font-weight="700" font-stretch="normal" font-size="41" text-anchor="start" direction="ltr" writing-mode="lr-tb" unicode-bidi="normal" text-decoration="none" transform="translate(2072.86 1311)">有</text><path d="M2274.47 1000.48 2306.62 980.567 2325.45 999.405 2305.55 1031.55C2313.21 1044.74 2317.23 1059.73 2317.18 1074.98L2350.5 1092.87 2343.6 1118.6 2305.81 1117.43C2298.22 1130.66 2287.25 1141.64 2274.01 1149.22L2275.18 1187.02 2249.45 1193.91 2231.57 1160.6C2216.31 1160.65 2201.32 1156.63 2188.13 1148.96L2155.99 1168.87 2137.15 1150.03 2157.06 1117.89C2149.39 1104.7 2145.38 1089.71 2145.42 1074.45L2112.11 1056.57 2119.01 1030.84 2156.8 1032.01C2164.38 1018.77 2175.36 1007.8 2188.59 1000.21L2187.42 962.42 2213.16 955.525 2231.04 988.838C2246.29 988.791 2261.29 992.808 2274.47 1000.48Z" fill="url(#fill2)" fill-rule="evenodd"/><text fill="#FFFFFF" fill-opacity="1" font-family="SimSun,SimSun_MSFontService,Arial" font-style="normal" font-variant="normal" font-weight="700" font-stretch="normal" font-size="32" text-anchor="start" direction="ltr" writing-mode="lr-tb" unicode-bidi="normal" text-decoration="none" transform="translate(2215.19 1046)">生</text><text fill="#FFFFFF" fill-opacity="1" font-family="Cambria Math,Cambria Math_MSFontService,Arial" font-style="normal" font-variant="normal" font-weight="700" font-stretch="normal" font-size="32" text-anchor="start" direction="ltr" writing-mode="lr-tb" unicode-bidi="normal" text-decoration="none" transform="translate(2218.95 1084)">⇅</text><text fill="#FFFFFF" fill-opacity="1" font-family="SimSun,SimSun_MSFontService,Arial" font-style="normal" font-variant="normal" font-weight="700" font-stretch="normal" font-size="32" text-anchor="start" direction="ltr" writing-mode="lr-tb" unicode-bidi="normal" text-decoration="none" transform="translate(2199.11 1121)">老死</text><path d="M2350.7 1172.78C2464.6 1170.95 2558.4 1262.03 2560.22 1376.2 2561.02 1426.11 2543.77 1474.63 2511.66 1512.79L2521.37 1522.48 2492.85 1518.09 2487.3 1488.48 2497 1498.16C2562.36 1418.97 2551.32 1301.65 2472.34 1236.11 2438.27 1207.84 2395.25 1192.69 2351.03 1193.4Z" fill="url(#fill3)" fill-rule="evenodd"/><path d="M2027.56 1098.09 2035.53 1117.14C1985.42 1138.1 1954.47 1188.9 1958.81 1243.05L1972.17 1240.12 1951.23 1262.06 1925.11 1250.42 1938.48 1247.5C1932.11 1183.53 1968.26 1122.9 2027.56 1098.09Z" fill="url(#fill4)" fill-rule="evenodd"/><path d="M2066.33 1087.96C2062.59 1043.91 2077.38 1000.3 2107.14 967.614L2098.06 957.36 2126.09 963.402 2130 993.417 2120.92 983.171C2096 1011.44 2083.71 1048.66 2086.9 1086.21Z" fill="url(#fill5)" fill-rule="evenodd"/><rect x="1883" y="1114" width="100" height="100" stroke="#000000" stroke-width="2.29167" stroke-linecap="butt" stroke-linejoin="round" stroke-miterlimit="10" stroke-opacity="0" fill="#FFFFFF" fill-opacity="0"/><text fill="#196B24" fill-opacity="1" font-family="SimSong,SimSong_MSFontService,Arial" font-style="normal" font-variant="normal" font-weight="400" font-stretch="normal" font-size="30" text-anchor="start" direction="ltr" writing-mode="lr-tb" unicode-bidi="normal" text-decoration="none" transform="translate(1915.61 1161)">行</text><rect x="2004" y="965" width="100" height="100" stroke="#000000" stroke-width="2.29167" stroke-linecap="butt" stroke-linejoin="round" stroke-miterlimit="10" stroke-opacity="0" fill="#FFFFFF" fill-opacity="0"/><text fill="#4C94D8" fill-opacity="1" font-family="SimSong,SimSong_MSFontService,Arial" font-style="normal" font-variant="normal" font-weight="700" font-stretch="normal" font-size="30" text-anchor="start" direction="ltr" writing-mode="lr-tb" unicode-bidi="normal" text-decoration="none" transform="translate(2036.61 1013)">行</text><rect x="2480" y="1180" width="99.9998" height="100" stroke="#000000" stroke-width="2.29167" stroke-linecap="butt" stroke-linejoin="round" stroke-miterlimit="10" stroke-opacity="0" fill="#FFFFFF" fill-opacity="0"/><text fill="#E97132" fill-opacity="1" font-family="SimSong,SimSong_MSFontService,Arial" font-style="normal" font-variant="normal" font-weight="400" font-stretch="normal" font-size="30" text-anchor="start" direction="ltr" writing-mode="lr-tb" unicode-bidi="normal" text-decoration="none" transform="translate(2513.28 1227)">行</text></g></g></svg>