<svg width="1151" height="380" xmlns="http://www.w3.org/2000/svg" xmlns:xlink="http://www.w3.org/1999/xlink" xml:space="preserve" overflow="hidden"><g transform="translate(-265 -1462)"><g><path d="M915.064 1490.11C1000.86 1530.07 1037.92 1631.81 997.841 1717.35 957.765 1802.89 855.728 1839.85 769.936 1799.89 684.144 1759.93 647.083 1658.19 687.159 1572.65 694.474 1557.03 704.115 1542.61 715.754 1529.87L709.551 1523.32 730.599 1526.77 733.541 1548.67 727.34 1542.11C670.333 1605.51 675.679 1702.97 739.281 1759.79 802.882 1816.61 900.654 1811.28 957.66 1747.89 1014.67 1684.49 1009.32 1587.03 945.719 1530.21 934.418 1520.11 921.686 1511.73 907.934 1505.33Z" fill="#B3D1E9" fill-rule="evenodd" fill-opacity="1"/><path d="M738.5 1485C738.5 1475.34 746.335 1467.5 756 1467.5L930 1467.5C939.665 1467.5 947.5 1475.34 947.5 1485L947.5 1555C947.5 1564.67 939.665 1572.5 930 1572.5L756 1572.5C746.335 1572.5 738.5 1564.67 738.5 1555Z" stroke="#FFFFFF" stroke-width="4.58333" stroke-linecap="butt" stroke-linejoin="miter" stroke-miterlimit="8" stroke-opacity="1" fill="#08739C" fill-rule="evenodd" fill-opacity="1"/><text fill="#FFFFFF" fill-opacity="1" font-family="SimSun,SimSun_MSFontService,Arial" font-style="normal" font-variant="normal" font-weight="400" font-stretch="normal" font-size="50" text-anchor="start" direction="ltr" writing-mode="lr-tb" unicode-bidi="normal" text-decoration="none" transform="translate(792.149 1534)">接触</text><path d="M868.5 1614.83C868.5 1605.26 876.261 1597.5 885.834 1597.5L1060.17 1597.5C1069.74 1597.5 1077.5 1605.26 1077.5 1614.83L1077.5 1684.17C1077.5 1693.74 1069.74 1701.5 1060.17 1701.5L885.834 1701.5C876.261 1701.5 868.5 1693.74 868.5 1684.17Z" stroke="#FFFFFF" stroke-width="4.58333" stroke-linecap="butt" stroke-linejoin="miter" stroke-miterlimit="8" stroke-opacity="1" fill="#3FA6E1" fill-rule="evenodd" fill-opacity="1"/><text fill="#FFFFFF" fill-opacity="1" font-family="SimSun,SimSun_MSFontService,Arial" font-style="normal" font-variant="normal" font-weight="400" font-stretch="normal" font-size="50" text-anchor="start" direction="ltr" writing-mode="lr-tb" unicode-bidi="normal" text-decoration="none" transform="translate(921.758 1664)">行动</text><path d="M738.5 1744C738.5 1734.34 746.335 1726.5 756 1726.5L930 1726.5C939.665 1726.5 947.5 1734.34 947.5 1744L947.5 1814C947.5 1823.67 939.665 1831.5 930 1831.5L756 1831.5C746.335 1831.5 738.5 1823.67 738.5 1814Z" stroke="#FFFFFF" stroke-width="4.58333" stroke-linecap="butt" stroke-linejoin="miter" stroke-miterlimit="8" stroke-opacity="1" fill="#B3D1E9" fill-rule="evenodd" fill-opacity="1"/><text fill="#FFFFFF" fill-opacity="1" font-family="SimSun,SimSun_MSFontService,Arial" font-style="normal" font-variant="normal" font-weight="400" font-stretch="normal" font-size="50" text-anchor="start" direction="ltr" writing-mode="lr-tb" unicode-bidi="normal" text-decoration="none" transform="translate(792.149 1793)">奖赏</text><path d="M609.5 1614.83C609.5 1605.26 617.261 1597.5 626.834 1597.5L800.166 1597.5C809.739 1597.5 817.5 1605.26 817.5 1614.83L817.5 1684.17C817.5 1693.74 809.739 1701.5 800.166 1701.5L626.834 1701.5C617.261 1701.5 609.5 1693.74 609.5 1684.17Z" stroke="#FFFFFF" stroke-width="4.58333" stroke-linecap="butt" stroke-linejoin="miter" stroke-miterlimit="8" stroke-opacity="1" fill="#3FA6E1" fill-rule="evenodd" fill-opacity="1"/><text fill="#FFFFFF" fill-opacity="1" font-family="SimSun,SimSun_MSFontService,Arial" font-style="normal" font-variant="normal" font-weight="400" font-stretch="normal" font-size="50" text-anchor="start" direction="ltr" writing-mode="lr-tb" unicode-bidi="normal" text-decoration="none" transform="translate(662.541 1664)">投入</text></g></g></svg>