<svg width="2351" height="839" xmlns="http://www.w3.org/2000/svg" xmlns:xlink="http://www.w3.org/1999/xlink" xml:space="preserve" overflow="hidden"><g transform="translate(-1127 -861)"><g><g><g><g><path d="M108.507 20.6869C108.507 9.82173 117.315 1.01375 128.181 1.01375L441.735 1.01375C452.6 1.01375 461.409 9.82173 461.409 20.6869L461.409 178.074C461.409 188.939 452.6 197.747 441.735 197.747L128.181 197.747C117.315 197.747 108.507 188.939 108.507 178.074Z" stroke="#FFFFFF" stroke-width="9.29577" stroke-linecap="butt" stroke-linejoin="miter" stroke-miterlimit="8" stroke-opacity="1" fill="#A02B93" fill-rule="evenodd" fill-opacity="1" transform="matrix(1 0 0 1.00047 1128 882.262)"/><text fill="#FFFFFF" fill-opacity="1" font-family="SimSun,SimSun_MSFontService,Arial" font-style="normal" font-variant="normal" font-weight="400" font-stretch="normal" font-size="50" text-anchor="start" direction="ltr" writing-mode="lr-tb" unicode-bidi="normal" text-decoration="none" transform="matrix(2.02817 0 0 2.02913 1361.32 1010)">戒</text><path d="M310.716 208.901 310.716 245.408 328.563 245.408 283.944 281.916 239.324 245.408 257.172 245.408 257.172 208.901Z" fill="#A02B93" fill-rule="evenodd" fill-opacity="1" transform="matrix(1 0 0 1.00047 1128 882.262)"/><path d="M108.507 314.772C108.507 303.907 117.315 295.099 128.181 295.099L441.735 295.099C452.6 295.099 461.409 303.907 461.409 314.772L461.409 472.158C461.409 483.023 452.6 491.831 441.735 491.831L128.181 491.831C117.315 491.831 108.507 483.023 108.507 472.158Z" stroke="#FFFFFF" stroke-width="9.29577" stroke-linecap="butt" stroke-linejoin="miter" stroke-miterlimit="8" stroke-opacity="1" fill="#2C71A4" fill-rule="evenodd" fill-opacity="1" transform="matrix(1 0 0 1.00047 1128 882.262)"/><text fill="#FFFFFF" fill-opacity="1" font-family="SimSun,SimSun_MSFontService,Arial" font-style="normal" font-variant="normal" font-weight="400" font-stretch="normal" font-size="50" text-anchor="start" direction="ltr" writing-mode="lr-tb" unicode-bidi="normal" text-decoration="none" transform="matrix(2.02817 0 0 2.02913 1361.32 1304)">定</text><path d="M310.716 502.986 310.716 539.493 328.563 539.493 283.944 576 239.324 539.493 257.172 539.493 257.172 502.986Z" fill="#4EA72E" fill-rule="evenodd" fill-opacity="1" transform="matrix(1 0 0 1.00047 1128 882.262)"/><path d="M108.507 608.857C108.507 597.992 117.315 589.183 128.181 589.183L441.735 589.183C452.6 589.183 461.409 597.992 461.409 608.857L461.409 766.242C461.409 777.107 452.6 785.916 441.735 785.916L128.181 785.916C117.315 785.916 108.507 777.107 108.507 766.242Z" stroke="#FFFFFF" stroke-width="9.29577" stroke-linecap="butt" stroke-linejoin="miter" stroke-miterlimit="8" stroke-opacity="1" fill="#4EA72E" fill-rule="evenodd" fill-opacity="1" transform="matrix(1 0 0 1.00047 1128 882.262)"/><text fill="#FFFFFF" fill-opacity="1" font-family="SimSun,SimSun_MSFontService,Arial" font-style="normal" font-variant="normal" font-weight="400" font-stretch="normal" font-size="50" text-anchor="start" direction="ltr" writing-mode="lr-tb" unicode-bidi="normal" text-decoration="none" transform="matrix(2.02817 0 0 2.02913 1361.32 1599)">慧</text></g></g></g><g><g><g><path d="M1379.08 1986.55 1626.98 1986.55 1626.98 1961.98 1676.11 2011.11 1626.98 2060.25 1626.98 2035.68 1379.08 2035.68Z" stroke="#042433" stroke-width="10.2361" stroke-linecap="butt" stroke-linejoin="miter" stroke-miterlimit="8" stroke-opacity="1" fill="#156082" fill-rule="evenodd" fill-opacity="1" transform="matrix(1.14148 0 0 1 234.732 -727.996)"/></g></g></g><g><g><g><path d="M469.117 21.5564C469.117 10.2179 478.309 1.02618 489.648 1.02618L859.193 1.02618C870.532 1.02618 879.724 10.2179 879.724 21.5564L879.724 185.799C879.724 197.138 870.532 206.33 859.193 206.33L489.648 206.33C478.309 206.33 469.117 197.138 469.117 185.799Z" stroke="#FFFFFF" stroke-width="9.40972" stroke-linecap="butt" stroke-linejoin="miter" stroke-miterlimit="8" stroke-opacity="1" fill="#A02B93" fill-rule="evenodd" fill-opacity="1" transform="matrix(1 0 0 1.0005 2121 872.216)"/><text fill="#FFFFFF" fill-opacity="1" font-family="SimSun,SimSun_MSFontService,Arial" font-style="normal" font-variant="normal" font-weight="400" font-stretch="normal" font-size="50" text-anchor="start" direction="ltr" writing-mode="lr-tb" unicode-bidi="normal" text-decoration="none" transform="matrix(2.05303 0 0 2.05405 2742.98 1006)">戒</text><path d="M789.932 304.3 839.084 317.47 826.62 324.666 897.782 447.924 910.246 440.728 897.076 489.88 847.926 476.71 860.39 469.514 789.226 346.256 776.762 353.452Z" fill="#A02B93" fill-rule="evenodd" fill-opacity="1" transform="matrix(1 0 0 1.0005 2121 872.216)"/><path d="M807.867 610.777C807.867 599.438 817.059 590.246 828.398 590.246L1200 590.246C1211.34 590.246 1220.53 599.438 1220.53 610.777L1220.53 775.019C1220.53 786.358 1211.34 795.549 1200 795.549L828.398 795.549C817.059 795.549 807.867 786.358 807.867 775.019Z" stroke="#FFFFFF" stroke-width="9.40972" stroke-linecap="butt" stroke-linejoin="miter" stroke-miterlimit="8" stroke-opacity="1" fill="#2C71A4" fill-rule="evenodd" fill-opacity="1" transform="matrix(1 0 0 1.0005 2121 872.216)"/><text fill="#FFFFFF" fill-opacity="1" font-family="SimSun,SimSun_MSFontService,Arial" font-style="normal" font-variant="normal" font-weight="400" font-stretch="normal" font-size="50" text-anchor="start" direction="ltr" writing-mode="lr-tb" unicode-bidi="normal" text-decoration="none" transform="matrix(2.05303 0 0 2.05405 3082.52 1593)">定</text><path d="M780.152 690.845 744.224 726.773 744.224 712.402 602.564 712.402 602.564 726.773 566.636 690.845 602.564 654.917 602.564 669.288 744.224 669.288 744.224 654.917Z" fill="#2C71A4" fill-rule="evenodd" fill-opacity="1" transform="matrix(1 0 0 1.0005 2121 872.216)"/><path d="M130.368 610.777C130.368 599.438 139.559 590.246 150.898 590.246L520.443 590.246C531.782 590.246 540.974 599.438 540.974 610.777L540.974 775.019C540.974 786.358 531.782 795.549 520.443 795.549L150.898 795.549C139.559 795.549 130.368 786.358 130.368 775.019Z" stroke="#FFFFFF" stroke-width="9.40972" stroke-linecap="butt" stroke-linejoin="miter" stroke-miterlimit="8" stroke-opacity="1" fill="#4EA72E" fill-rule="evenodd" fill-opacity="1" transform="matrix(1 0 0 1.0005 2121 872.216)"/><text fill="#FFFFFF" fill-opacity="1" font-family="SimSun,SimSun_MSFontService,Arial" font-style="normal" font-variant="normal" font-weight="400" font-stretch="normal" font-size="50" text-anchor="start" direction="ltr" writing-mode="lr-tb" unicode-bidi="normal" text-decoration="none" transform="matrix(2.05303 0 0 2.05405 2403.44 1593)">慧</text><path d="M450.394 489.88 437.224 440.728 449.688 447.924 520.852 324.666 508.388 317.47 557.539 304.3 570.708 353.452 558.244 346.256 487.081 469.514 499.545 476.71Z" fill="#4EA72E" fill-rule="evenodd" fill-opacity="1" transform="matrix(1 0 0 1.0005 2121 872.216)"/></g></g></g></g></g></svg>