<svg width="1177" height="494" xmlns="http://www.w3.org/2000/svg" xmlns:xlink="http://www.w3.org/1999/xlink" xml:space="preserve" overflow="hidden"><g transform="translate(4 4)"><g><path d="M0.499836 41.6396C0.499836 18.9188 18.9188 0.499836 41.6396 0.499836L1126.36 0.499836C1149.08 0.499836 1167.5 18.9188 1167.5 41.6396L1167.5 443.36C1167.5 466.081 1149.08 484.5 1126.36 484.5L41.6396 484.5C18.9188 484.5 0.499836 466.081 0.499836 443.36Z" stroke="#FFFFFF" stroke-width="6.875" stroke-linecap="butt" stroke-linejoin="miter" stroke-miterlimit="8" stroke-opacity="1" fill="#E97132" fill-rule="evenodd" fill-opacity="1"/><text fill="#FFFFFF" fill-opacity="1" font-family="Cambria,Cambria_MSFontService,Arial" font-style="normal" font-variant="normal" font-weight="400" font-stretch="normal" font-size="46" text-anchor="start" direction="ltr" writing-mode="lr-tb" unicode-bidi="normal" text-decoration="none" transform="translate(25.8052 66)">3.</text><text fill="#FFFFFF" fill-opacity="1" font-family="SimSun,SimSun_MSFontService,Arial" font-style="normal" font-variant="normal" font-weight="400" font-stretch="normal" font-size="46" text-anchor="start" direction="ltr" writing-mode="lr-tb" unicode-bidi="normal" text-decoration="none" transform="translate(70.6532 66)">知道“我”：逆流照见</text><path d="M29.5001 132.945C29.5001 126.624 34.6242 121.5 40.9451 121.5L193.055 121.5C199.376 121.5 204.5 126.624 204.5 132.945L204.5 219.055C204.5 225.376 199.376 230.5 193.055 230.5L40.9451 230.5C34.6242 230.5 29.5001 225.376 29.5001 219.055Z" stroke="#E97132" stroke-width="4.58333" stroke-linecap="butt" stroke-linejoin="miter" stroke-miterlimit="8" stroke-opacity="1" fill="#FFFFFF" fill-rule="evenodd" fill-opacity="0.901961"/><text fill="#000000" fill-opacity="1" font-family="SimSun,SimSun_MSFontService,Arial" font-style="normal" font-variant="normal" font-weight="400" font-stretch="normal" font-size="28" text-anchor="start" direction="ltr" writing-mode="lr-tb" unicode-bidi="normal" text-decoration="none" transform="translate(89.1915 184)">无明</text><path d="M29.5001 247.945C29.5001 241.624 34.6242 236.5 40.9451 236.5L193.055 236.5C199.376 236.5 204.5 241.624 204.5 247.945L204.5 334.055C204.5 340.376 199.376 345.5 193.055 345.5L40.9451 345.5C34.6242 345.5 29.5001 340.376 29.5001 334.055Z" stroke="#196B24" stroke-width="4.58333" stroke-linecap="butt" stroke-linejoin="miter" stroke-miterlimit="8" stroke-opacity="1" fill="#FFFFFF" fill-rule="evenodd" fill-opacity="0.901961"/><text fill="#000000" fill-opacity="1" font-family="SimSun,SimSun_MSFontService,Arial" font-style="normal" font-variant="normal" font-weight="400" font-stretch="normal" font-size="28" text-anchor="start" direction="ltr" writing-mode="lr-tb" unicode-bidi="normal" text-decoration="none" transform="translate(102.941 298)">行</text><path d="M29.5001 362.05C29.5001 355.671 34.6711 350.5 41.05 350.5L192.95 350.5C199.329 350.5 204.5 355.671 204.5 362.05L204.5 448.95C204.5 455.329 199.329 460.5 192.95 460.5L41.05 460.5C34.6711 460.5 29.5001 455.329 29.5001 448.95Z" stroke="#0F9ED5" stroke-width="4.58333" stroke-linecap="butt" stroke-linejoin="miter" stroke-miterlimit="8" stroke-opacity="1" fill="#FFFFFF" fill-rule="evenodd" fill-opacity="0.901961"/><text fill="#000000" fill-opacity="1" font-family="SimSun,SimSun_MSFontService,Arial" font-style="normal" font-variant="normal" font-weight="400" font-stretch="normal" font-size="28" text-anchor="start" direction="ltr" writing-mode="lr-tb" unicode-bidi="normal" text-decoration="none" transform="translate(102.941 413)">识</text><path d="M233.5 157.095C233.5 137.436 249.436 121.5 269.095 121.5L1102.9 121.5C1122.56 121.5 1138.5 137.436 1138.5 157.095L1138.5 424.905C1138.5 444.564 1122.56 460.5 1102.9 460.5L269.095 460.5C249.436 460.5 233.5 444.564 233.5 424.905Z" stroke="#FFFFFF" stroke-width="6.875" stroke-linecap="butt" stroke-linejoin="miter" stroke-miterlimit="8" stroke-opacity="1" fill="#196B24" fill-rule="evenodd" fill-opacity="1"/><text fill="#FFFFFF" fill-opacity="1" font-family="Cambria,Cambria_MSFontService,Arial" font-style="normal" font-variant="normal" font-weight="400" font-stretch="normal" font-size="46" text-anchor="start" direction="ltr" writing-mode="lr-tb" unicode-bidi="normal" text-decoration="none" transform="translate(257.558 185)">2.</text><text fill="#FFFFFF" fill-opacity="1" font-family="SimSun,SimSun_MSFontService,Arial" font-style="normal" font-variant="normal" font-weight="400" font-stretch="normal" font-size="46" text-anchor="start" direction="ltr" writing-mode="lr-tb" unicode-bidi="normal" text-decoration="none" transform="translate(302.406 185)">用“我”知道：顺流造作</text><path d="M256.5 250.265C256.5 244.872 260.872 240.5 266.265 240.5L427.735 240.5C433.128 240.5 437.5 244.872 437.5 250.265L437.5 323.735C437.5 329.128 433.128 333.5 427.735 333.5L266.265 333.5C260.872 333.5 256.5 329.128 256.5 323.735Z" stroke="#A02B93" stroke-width="4.58333" stroke-linecap="butt" stroke-linejoin="miter" stroke-miterlimit="8" stroke-opacity="1" fill="#FFFFFF" fill-rule="evenodd" fill-opacity="0.901961"/><text fill="#000000" fill-opacity="1" font-family="SimSun,SimSun_MSFontService,Arial" font-style="normal" font-variant="normal" font-weight="400" font-stretch="normal" font-size="28" text-anchor="start" direction="ltr" writing-mode="lr-tb" unicode-bidi="normal" text-decoration="none" transform="translate(318.928 294)">名色</text><path d="M256.5 351.265C256.5 345.872 260.872 341.5 266.265 341.5L427.735 341.5C433.128 341.5 437.5 345.872 437.5 351.265L437.5 424.735C437.5 430.128 433.128 434.5 427.735 434.5L266.265 434.5C260.872 434.5 256.5 430.128 256.5 424.735Z" stroke="#4EA72E" stroke-width="4.58333" stroke-linecap="butt" stroke-linejoin="miter" stroke-miterlimit="8" stroke-opacity="1" fill="#FFFFFF" fill-rule="evenodd" fill-opacity="0.901961"/><text fill="#000000" fill-opacity="1" font-family="SimSun,SimSun_MSFontService,Arial" font-style="normal" font-variant="normal" font-weight="400" font-stretch="normal" font-size="28" text-anchor="start" direction="ltr" writing-mode="lr-tb" unicode-bidi="normal" text-decoration="none" transform="translate(318.928 396)">六入</text><path d="M461.5 262.87C461.5 251.62 470.62 242.5 481.87 242.5L1089.13 242.5C1100.38 242.5 1109.5 251.62 1109.5 262.87L1109.5 416.13C1109.5 427.38 1100.38 436.5 1089.13 436.5L481.87 436.5C470.62 436.5 461.5 427.38 461.5 416.13Z" stroke="#FFFFFF" stroke-width="6.875" stroke-linecap="butt" stroke-linejoin="miter" stroke-miterlimit="8" stroke-opacity="1" fill="#0F9ED5" fill-rule="evenodd" fill-opacity="1"/><text fill="#FFFFFF" fill-opacity="1" font-family="Cambria,Cambria_MSFontService,Arial" font-style="normal" font-variant="normal" font-weight="400" font-stretch="normal" font-size="46" text-anchor="start" direction="ltr" writing-mode="lr-tb" unicode-bidi="normal" text-decoration="none" transform="translate(480.638 302)">1.</text><text fill="#FFFFFF" fill-opacity="1" font-family="SimSun,SimSun_MSFontService,Arial" font-style="normal" font-variant="normal" font-weight="400" font-stretch="normal" font-size="46" text-anchor="start" direction="ltr" writing-mode="lr-tb" unicode-bidi="normal" text-decoration="none" transform="translate(525.486 302)">用“识蕴”知道：顺流造作</text><path d="M477.5 338.53C477.5 333.543 481.543 329.5 486.53 329.5L554.47 329.5C559.457 329.5 563.5 333.543 563.5 338.53L563.5 407.47C563.5 412.457 559.457 416.5 554.47 416.5L486.53 416.5C481.543 416.5 477.5 412.457 477.5 407.47Z" stroke="#E97132" stroke-width="4.58333" stroke-linecap="butt" stroke-linejoin="miter" stroke-miterlimit="8" stroke-opacity="1" fill="#FFFFFF" fill-rule="evenodd" fill-opacity="0.901961"/><text fill="#000000" fill-opacity="1" font-family="SimSun,SimSun_MSFontService,Arial" font-style="normal" font-variant="normal" font-weight="400" font-stretch="normal" font-size="28" text-anchor="start" direction="ltr" writing-mode="lr-tb" unicode-bidi="normal" text-decoration="none" transform="translate(506.257 381)">触</text><path d="M565.5 338.53C565.5 333.543 569.543 329.5 574.53 329.5L642.47 329.5C647.457 329.5 651.5 333.543 651.5 338.53L651.5 407.47C651.5 412.457 647.457 416.5 642.47 416.5L574.53 416.5C569.543 416.5 565.5 412.457 565.5 407.47Z" stroke="#196B24" stroke-width="4.58333" stroke-linecap="butt" stroke-linejoin="miter" stroke-miterlimit="8" stroke-opacity="1" fill="#FFFFFF" fill-rule="evenodd" fill-opacity="0.901961"/><text fill="#000000" fill-opacity="1" font-family="SimSun,SimSun_MSFontService,Arial" font-style="normal" font-variant="normal" font-weight="400" font-stretch="normal" font-size="28" text-anchor="start" direction="ltr" writing-mode="lr-tb" unicode-bidi="normal" text-decoration="none" transform="translate(594.467 381)">受</text><path d="M654.5 338.425C654.5 333.496 658.496 329.5 663.425 329.5L730.575 329.5C735.504 329.5 739.5 333.496 739.5 338.425L739.5 407.575C739.5 412.504 735.504 416.5 730.575 416.5L663.425 416.5C658.496 416.5 654.5 412.504 654.5 407.575Z" stroke="#0F9ED5" stroke-width="4.58333" stroke-linecap="butt" stroke-linejoin="miter" stroke-miterlimit="8" stroke-opacity="1" fill="#FFFFFF" fill-rule="evenodd" fill-opacity="0.901961"/><text fill="#000000" fill-opacity="1" font-family="SimSun,SimSun_MSFontService,Arial" font-style="normal" font-variant="normal" font-weight="400" font-stretch="normal" font-size="28" text-anchor="start" direction="ltr" writing-mode="lr-tb" unicode-bidi="normal" text-decoration="none" transform="translate(682.676 381)">爱</text><path d="M742.5 338.53C742.5 333.543 746.543 329.5 751.53 329.5L819.47 329.5C824.457 329.5 828.5 333.543 828.5 338.53L828.5 407.47C828.5 412.457 824.457 416.5 819.47 416.5L751.53 416.5C746.543 416.5 742.5 412.457 742.5 407.47Z" stroke="#A02B93" stroke-width="4.58333" stroke-linecap="butt" stroke-linejoin="miter" stroke-miterlimit="8" stroke-opacity="1" fill="#FFFFFF" fill-rule="evenodd" fill-opacity="0.901961"/><text fill="#000000" fill-opacity="1" font-family="SimSun,SimSun_MSFontService,Arial" font-style="normal" font-variant="normal" font-weight="400" font-stretch="normal" font-size="28" text-anchor="start" direction="ltr" writing-mode="lr-tb" unicode-bidi="normal" text-decoration="none" transform="translate(770.886 381)">取</text><path d="M830.5 338.53C830.5 333.543 834.543 329.5 839.53 329.5L907.47 329.5C912.457 329.5 916.5 333.543 916.5 338.53L916.5 407.47C916.5 412.457 912.457 416.5 907.47 416.5L839.53 416.5C834.543 416.5 830.5 412.457 830.5 407.47Z" stroke="#4EA72E" stroke-width="4.58333" stroke-linecap="butt" stroke-linejoin="miter" stroke-miterlimit="8" stroke-opacity="1" fill="#FFFFFF" fill-rule="evenodd" fill-opacity="0.901961"/><text fill="#000000" fill-opacity="1" font-family="SimSun,SimSun_MSFontService,Arial" font-style="normal" font-variant="normal" font-weight="400" font-stretch="normal" font-size="28" text-anchor="start" direction="ltr" writing-mode="lr-tb" unicode-bidi="normal" text-decoration="none" transform="translate(859.096 381)">有</text><path d="M918.5 338.53C918.5 333.543 922.543 329.5 927.53 329.5L995.47 329.5C1000.46 329.5 1004.5 333.543 1004.5 338.53L1004.5 407.47C1004.5 412.457 1000.46 416.5 995.47 416.5L927.53 416.5C922.543 416.5 918.5 412.457 918.5 407.47Z" stroke="#E97132" stroke-width="4.58333" stroke-linecap="butt" stroke-linejoin="miter" stroke-miterlimit="8" stroke-opacity="1" fill="#FFFFFF" fill-rule="evenodd" fill-opacity="0.901961"/><text fill="#000000" fill-opacity="1" font-family="SimSun,SimSun_MSFontService,Arial" font-style="normal" font-variant="normal" font-weight="400" font-stretch="normal" font-size="28" text-anchor="start" direction="ltr" writing-mode="lr-tb" unicode-bidi="normal" text-decoration="none" transform="translate(947.305 381)">生</text><path d="M1006.5 338.53C1006.5 333.543 1010.54 329.5 1015.53 329.5L1083.47 329.5C1088.46 329.5 1092.5 333.543 1092.5 338.53L1092.5 407.47C1092.5 412.457 1088.46 416.5 1083.47 416.5L1015.53 416.5C1010.54 416.5 1006.5 412.457 1006.5 407.47Z" stroke="#196B24" stroke-width="4.58333" stroke-linecap="butt" stroke-linejoin="miter" stroke-miterlimit="8" stroke-opacity="1" fill="#FFFFFF" fill-rule="evenodd" fill-opacity="0.901961"/><text fill="#000000" fill-opacity="1" font-family="SimSun,SimSun_MSFontService,Arial" font-style="normal" font-variant="normal" font-weight="400" font-stretch="normal" font-size="28" text-anchor="start" direction="ltr" writing-mode="lr-tb" unicode-bidi="normal" text-decoration="none" transform="translate(1021.76 381)">老死</text></g></g></svg>