<svg width="1224" height="381" xmlns="http://www.w3.org/2000/svg" xmlns:xlink="http://www.w3.org/1999/xlink" xml:space="preserve" overflow="hidden"><g transform="translate(-1457 -1333)"><g><path d="M1723 1596.5 2638 1596.5 2638 1577 2677 1616 2638 1655 2638 1635.5 1723 1635.5 1742.5 1616Z" fill="#CCDFEF" fill-rule="evenodd" fill-opacity="1"/><text fill="#000000" fill-opacity="1" font-family="SimSun,SimSun_MSFontService,Arial" font-style="normal" font-variant="normal" font-weight="400" font-stretch="normal" font-size="23" text-anchor="start" direction="ltr" writing-mode="lr-tb" unicode-bidi="normal" text-decoration="none" transform="translate(1737.81 1577)">知道</text><path d="M1751.5 1616C1751.5 1610.75 1755.98 1606.5 1761.5 1606.5 1767.02 1606.5 1771.5 1610.75 1771.5 1616 1771.5 1621.25 1767.02 1625.5 1761.5 1625.5 1755.98 1625.5 1751.5 1621.25 1751.5 1616Z" stroke="#FFFFFF" stroke-width="6.875" stroke-linecap="butt" stroke-linejoin="miter" stroke-miterlimit="8" stroke-opacity="1" fill="#0F9ED5" fill-rule="evenodd" fill-opacity="1"/><text fill="#000000" fill-opacity="1" font-family="SimSun,SimSun_MSFontService,Arial" font-style="normal" font-variant="normal" font-weight="400" font-stretch="normal" font-size="23" text-anchor="start" direction="ltr" writing-mode="lr-tb" unicode-bidi="normal" text-decoration="none" transform="translate(1816.13 1668)">知道</text><path d="M1829.5 1616C1829.5 1610.75 1833.98 1606.5 1839.5 1606.5 1845.02 1606.5 1849.5 1610.75 1849.5 1616 1849.5 1621.25 1845.02 1625.5 1839.5 1625.5 1833.98 1625.5 1829.5 1621.25 1829.5 1616Z" stroke="#FFFFFF" stroke-width="6.875" stroke-linecap="butt" stroke-linejoin="miter" stroke-miterlimit="8" stroke-opacity="1" fill="#1278CF" fill-rule="evenodd" fill-opacity="1"/><text fill="#000000" fill-opacity="1" font-family="SimSun,SimSun_MSFontService,Arial" font-style="normal" font-variant="normal" font-weight="400" font-stretch="normal" font-size="23" text-anchor="start" direction="ltr" writing-mode="lr-tb" unicode-bidi="normal" text-decoration="none" transform="translate(1894.45 1577)">知道</text><path d="M1908.5 1616C1908.5 1610.75 1912.75 1606.5 1918 1606.5 1923.25 1606.5 1927.5 1610.75 1927.5 1616 1927.5 1621.25 1923.25 1625.5 1918 1625.5 1912.75 1625.5 1908.5 1621.25 1908.5 1616Z" stroke="#FFFFFF" stroke-width="6.875" stroke-linecap="butt" stroke-linejoin="miter" stroke-miterlimit="8" stroke-opacity="1" fill="#1555CA" fill-rule="evenodd" fill-opacity="1"/><text fill="#000000" fill-opacity="1" font-family="SimSun,SimSun_MSFontService,Arial" font-style="normal" font-variant="normal" font-weight="400" font-stretch="normal" font-size="23" text-anchor="start" direction="ltr" writing-mode="lr-tb" unicode-bidi="normal" text-decoration="none" transform="translate(1972.76 1668)">知道</text><path d="M1986.5 1616C1986.5 1610.75 1990.75 1606.5 1996 1606.5 2001.25 1606.5 2005.5 1610.75 2005.5 1616 2005.5 1621.25 2001.25 1625.5 1996 1625.5 1990.75 1625.5 1986.5 1621.25 1986.5 1616Z" stroke="#FFFFFF" stroke-width="6.875" stroke-linecap="butt" stroke-linejoin="miter" stroke-miterlimit="8" stroke-opacity="1" fill="#1836C4" fill-rule="evenodd" fill-opacity="1"/><text fill="#000000" fill-opacity="1" font-family="SimSun,SimSun_MSFontService,Arial" font-style="normal" font-variant="normal" font-weight="400" font-stretch="normal" font-size="23" text-anchor="start" direction="ltr" writing-mode="lr-tb" unicode-bidi="normal" text-decoration="none" transform="translate(2051.08 1577)">知道</text><path d="M2064.5 1616C2064.5 1610.75 2068.98 1606.5 2074.5 1606.5 2080.02 1606.5 2084.5 1610.75 2084.5 1616 2084.5 1621.25 2080.02 1625.5 2074.5 1625.5 2068.98 1625.5 2064.5 1621.25 2064.5 1616Z" stroke="#FFFFFF" stroke-width="6.875" stroke-linecap="butt" stroke-linejoin="miter" stroke-miterlimit="8" stroke-opacity="1" fill="#1D1BBF" fill-rule="evenodd" fill-opacity="1"/><text fill="#000000" fill-opacity="1" font-family="SimSun,SimSun_MSFontService,Arial" font-style="normal" font-variant="normal" font-weight="400" font-stretch="normal" font-size="23" text-anchor="start" direction="ltr" writing-mode="lr-tb" unicode-bidi="normal" text-decoration="none" transform="translate(2129.4 1668)">知道</text><path d="M2143.5 1616C2143.5 1610.75 2147.75 1606.5 2153 1606.5 2158.25 1606.5 2162.5 1610.75 2162.5 1616 2162.5 1621.25 2158.25 1625.5 2153 1625.5 2147.75 1625.5 2143.5 1621.25 2143.5 1616Z" stroke="#FFFFFF" stroke-width="6.875" stroke-linecap="butt" stroke-linejoin="miter" stroke-miterlimit="8" stroke-opacity="1" fill="#3C1EBA" fill-rule="evenodd" fill-opacity="1"/><text fill="#000000" fill-opacity="1" font-family="SimSun,SimSun_MSFontService,Arial" font-style="normal" font-variant="normal" font-weight="400" font-stretch="normal" font-size="23" text-anchor="start" direction="ltr" writing-mode="lr-tb" unicode-bidi="normal" text-decoration="none" transform="translate(2207.72 1577)">知道</text><path d="M2221.5 1616C2221.5 1610.75 2225.75 1606.5 2231 1606.5 2236.25 1606.5 2240.5 1610.75 2240.5 1616 2240.5 1621.25 2236.25 1625.5 2231 1625.5 2225.75 1625.5 2221.5 1621.25 2221.5 1616Z" stroke="#FFFFFF" stroke-width="6.875" stroke-linecap="butt" stroke-linejoin="miter" stroke-miterlimit="8" stroke-opacity="1" fill="#5821B4" fill-rule="evenodd" fill-opacity="1"/><text fill="#000000" fill-opacity="1" font-family="SimSun,SimSun_MSFontService,Arial" font-style="normal" font-variant="normal" font-weight="400" font-stretch="normal" font-size="23" text-anchor="start" direction="ltr" writing-mode="lr-tb" unicode-bidi="normal" text-decoration="none" transform="translate(2286.04 1668)">知道</text><path d="M2299.5 1616C2299.5 1610.75 2303.98 1606.5 2309.5 1606.5 2315.02 1606.5 2319.5 1610.75 2319.5 1616 2319.5 1621.25 2315.02 1625.5 2309.5 1625.5 2303.98 1625.5 2299.5 1621.25 2299.5 1616Z" stroke="#FFFFFF" stroke-width="6.875" stroke-linecap="butt" stroke-linejoin="miter" stroke-miterlimit="8" stroke-opacity="1" fill="#7223AF" fill-rule="evenodd" fill-opacity="1"/><text fill="#000000" fill-opacity="1" font-family="SimSun,SimSun_MSFontService,Arial" font-style="normal" font-variant="normal" font-weight="400" font-stretch="normal" font-size="23" text-anchor="start" direction="ltr" writing-mode="lr-tb" unicode-bidi="normal" text-decoration="none" transform="translate(2364.36 1577)">知道</text><path d="M2377.5 1616C2377.5 1610.75 2381.98 1606.5 2387.5 1606.5 2393.02 1606.5 2397.5 1610.75 2397.5 1616 2397.5 1621.25 2393.02 1625.5 2387.5 1625.5 2381.98 1625.5 2377.5 1621.25 2377.5 1616Z" stroke="#FFFFFF" stroke-width="6.875" stroke-linecap="butt" stroke-linejoin="miter" stroke-miterlimit="8" stroke-opacity="1" fill="#8826AA" fill-rule="evenodd" fill-opacity="1"/><text fill="#000000" fill-opacity="1" font-family="SimSun,SimSun_MSFontService,Arial" font-style="normal" font-variant="normal" font-weight="400" font-stretch="normal" font-size="23" text-anchor="start" direction="ltr" writing-mode="lr-tb" unicode-bidi="normal" text-decoration="none" transform="translate(2442.68 1668)">知道</text><path d="M2456.5 1616C2456.5 1610.75 2460.75 1606.5 2466 1606.5 2471.25 1606.5 2475.5 1610.75 2475.5 1616 2475.5 1621.25 2471.25 1625.5 2466 1625.5 2460.75 1625.5 2456.5 1621.25 2456.5 1616Z" stroke="#FFFFFF" stroke-width="6.875" stroke-linecap="butt" stroke-linejoin="miter" stroke-miterlimit="8" stroke-opacity="1" fill="#9C29A5" fill-rule="evenodd" fill-opacity="1"/><text fill="#000000" fill-opacity="1" font-family="SimSun,SimSun_MSFontService,Arial" font-style="normal" font-variant="normal" font-weight="400" font-stretch="normal" font-size="23" text-anchor="start" direction="ltr" writing-mode="lr-tb" unicode-bidi="normal" text-decoration="none" transform="translate(2521 1577)">知道</text><path d="M2534.5 1616C2534.5 1610.75 2538.98 1606.5 2544.5 1606.5 2550.02 1606.5 2554.5 1610.75 2554.5 1616 2554.5 1621.25 2550.02 1625.5 2544.5 1625.5 2538.98 1625.5 2534.5 1621.25 2534.5 1616Z" stroke="#FFFFFF" stroke-width="6.875" stroke-linecap="butt" stroke-linejoin="miter" stroke-miterlimit="8" stroke-opacity="1" fill="#A02B93" fill-rule="evenodd" fill-opacity="1"/><path d="M1723 1413.5 2638 1413.5 2638 1394 2677 1433 2638 1472 2638 1452.5 1723 1452.5 1742.5 1433Z" fill="#CCDFEF" fill-rule="evenodd" fill-opacity="1"/><text fill="#000000" fill-opacity="1" font-family="SimSun,SimSun_MSFontService,Arial" font-style="normal" font-variant="normal" font-weight="400" font-stretch="normal" font-size="23" text-anchor="start" direction="ltr" writing-mode="lr-tb" unicode-bidi="normal" text-decoration="none" transform="translate(1737.81 1367)">知道</text><text fill="#000000" fill-opacity="1" font-family="SimSun,SimSun_MSFontService,Arial" font-style="normal" font-variant="normal" font-weight="400" font-stretch="normal" font-size="23" text-anchor="start" direction="ltr" writing-mode="lr-tb" unicode-bidi="normal" text-decoration="none" transform="translate(1737.81 1394)">饿了</text><path d="M1751.5 1433.5C1751.5 1427.98 1755.98 1423.5 1761.5 1423.5 1767.02 1423.5 1771.5 1427.98 1771.5 1433.5 1771.5 1439.02 1767.02 1443.5 1761.5 1443.5 1755.98 1443.5 1751.5 1439.02 1751.5 1433.5Z" stroke="#FFFFFF" stroke-width="6.875" stroke-linecap="butt" stroke-linejoin="miter" stroke-miterlimit="8" stroke-opacity="1" fill="#0F9ED5" fill-rule="evenodd" fill-opacity="1"/><text fill="#000000" fill-opacity="1" font-family="SimSun,SimSun_MSFontService,Arial" font-style="normal" font-variant="normal" font-weight="400" font-stretch="normal" font-size="23" text-anchor="start" direction="ltr" writing-mode="lr-tb" unicode-bidi="normal" text-decoration="none" transform="translate(1816.13 1486)">吃饭</text><path d="M1829.5 1433.5C1829.5 1427.98 1833.98 1423.5 1839.5 1423.5 1845.02 1423.5 1849.5 1427.98 1849.5 1433.5 1849.5 1439.02 1845.02 1443.5 1839.5 1443.5 1833.98 1443.5 1829.5 1439.02 1829.5 1433.5Z" stroke="#FFFFFF" stroke-width="6.875" stroke-linecap="butt" stroke-linejoin="miter" stroke-miterlimit="8" stroke-opacity="1" fill="#1278CF" fill-rule="evenodd" fill-opacity="1"/><text fill="#000000" fill-opacity="1" font-family="SimSun,SimSun_MSFontService,Arial" font-style="normal" font-variant="normal" font-weight="400" font-stretch="normal" font-size="23" text-anchor="start" direction="ltr" writing-mode="lr-tb" unicode-bidi="normal" text-decoration="none" transform="translate(1894.45 1367)">知道</text><text fill="#000000" fill-opacity="1" font-family="SimSun,SimSun_MSFontService,Arial" font-style="normal" font-variant="normal" font-weight="400" font-stretch="normal" font-size="23" text-anchor="start" direction="ltr" writing-mode="lr-tb" unicode-bidi="normal" text-decoration="none" transform="translate(1894.45 1394)">吃饱</text><path d="M1908.5 1433.5C1908.5 1427.98 1912.75 1423.5 1918 1423.5 1923.25 1423.5 1927.5 1427.98 1927.5 1433.5 1927.5 1439.02 1923.25 1443.5 1918 1443.5 1912.75 1443.5 1908.5 1439.02 1908.5 1433.5Z" stroke="#FFFFFF" stroke-width="6.875" stroke-linecap="butt" stroke-linejoin="miter" stroke-miterlimit="8" stroke-opacity="1" fill="#1555CA" fill-rule="evenodd" fill-opacity="1"/><text fill="#000000" fill-opacity="1" font-family="SimSun,SimSun_MSFontService,Arial" font-style="normal" font-variant="normal" font-weight="400" font-stretch="normal" font-size="23" text-anchor="start" direction="ltr" writing-mode="lr-tb" unicode-bidi="normal" text-decoration="none" transform="translate(1972.76 1486)">工作</text><path d="M1986.5 1433.5C1986.5 1427.98 1990.75 1423.5 1996 1423.5 2001.25 1423.5 2005.5 1427.98 2005.5 1433.5 2005.5 1439.02 2001.25 1443.5 1996 1443.5 1990.75 1443.5 1986.5 1439.02 1986.5 1433.5Z" stroke="#FFFFFF" stroke-width="6.875" stroke-linecap="butt" stroke-linejoin="miter" stroke-miterlimit="8" stroke-opacity="1" fill="#1836C4" fill-rule="evenodd" fill-opacity="1"/><text fill="#000000" fill-opacity="1" font-family="SimSun,SimSun_MSFontService,Arial" font-style="normal" font-variant="normal" font-weight="400" font-stretch="normal" font-size="23" text-anchor="start" direction="ltr" writing-mode="lr-tb" unicode-bidi="normal" text-decoration="none" transform="translate(2051.08 1394)">看到</text><path d="M2064.5 1433.5C2064.5 1427.98 2068.98 1423.5 2074.5 1423.5 2080.02 1423.5 2084.5 1427.98 2084.5 1433.5 2084.5 1439.02 2080.02 1443.5 2074.5 1443.5 2068.98 1443.5 2064.5 1439.02 2064.5 1433.5Z" stroke="#FFFFFF" stroke-width="6.875" stroke-linecap="butt" stroke-linejoin="miter" stroke-miterlimit="8" stroke-opacity="1" fill="#1D1BBF" fill-rule="evenodd" fill-opacity="1"/><text fill="#000000" fill-opacity="1" font-family="SimSun,SimSun_MSFontService,Arial" font-style="normal" font-variant="normal" font-weight="400" font-stretch="normal" font-size="23" text-anchor="start" direction="ltr" writing-mode="lr-tb" unicode-bidi="normal" text-decoration="none" transform="translate(2129.4 1486)">评论</text><path d="M2143.5 1433.5C2143.5 1427.98 2147.75 1423.5 2153 1423.5 2158.25 1423.5 2162.5 1427.98 2162.5 1433.5 2162.5 1439.02 2158.25 1443.5 2153 1443.5 2147.75 1443.5 2143.5 1439.02 2143.5 1433.5Z" stroke="#FFFFFF" stroke-width="6.875" stroke-linecap="butt" stroke-linejoin="miter" stroke-miterlimit="8" stroke-opacity="1" fill="#3C1EBA" fill-rule="evenodd" fill-opacity="1"/><text fill="#000000" fill-opacity="1" font-family="SimSun,SimSun_MSFontService,Arial" font-style="normal" font-variant="normal" font-weight="400" font-stretch="normal" font-size="23" text-anchor="start" direction="ltr" writing-mode="lr-tb" unicode-bidi="normal" text-decoration="none" transform="translate(2207.72 1394)">思考</text><path d="M2221.5 1433.5C2221.5 1427.98 2225.75 1423.5 2231 1423.5 2236.25 1423.5 2240.5 1427.98 2240.5 1433.5 2240.5 1439.02 2236.25 1443.5 2231 1443.5 2225.75 1443.5 2221.5 1439.02 2221.5 1433.5Z" stroke="#FFFFFF" stroke-width="6.875" stroke-linecap="butt" stroke-linejoin="miter" stroke-miterlimit="8" stroke-opacity="1" fill="#5821B4" fill-rule="evenodd" fill-opacity="1"/><text fill="#000000" fill-opacity="1" font-family="SimSun,SimSun_MSFontService,Arial" font-style="normal" font-variant="normal" font-weight="400" font-stretch="normal" font-size="23" text-anchor="start" direction="ltr" writing-mode="lr-tb" unicode-bidi="normal" text-decoration="none" transform="translate(2286.04 1486)">交流</text><path d="M2299.5 1433.5C2299.5 1427.98 2303.98 1423.5 2309.5 1423.5 2315.02 1423.5 2319.5 1427.98 2319.5 1433.5 2319.5 1439.02 2315.02 1443.5 2309.5 1443.5 2303.98 1443.5 2299.5 1439.02 2299.5 1433.5Z" stroke="#FFFFFF" stroke-width="6.875" stroke-linecap="butt" stroke-linejoin="miter" stroke-miterlimit="8" stroke-opacity="1" fill="#7223AF" fill-rule="evenodd" fill-opacity="1"/><text fill="#000000" fill-opacity="1" font-family="SimSun,SimSun_MSFontService,Arial" font-style="normal" font-variant="normal" font-weight="400" font-stretch="normal" font-size="23" text-anchor="start" direction="ltr" writing-mode="lr-tb" unicode-bidi="normal" text-decoration="none" transform="translate(2364.36 1367)">知道</text><text fill="#000000" fill-opacity="1" font-family="SimSun,SimSun_MSFontService,Arial" font-style="normal" font-variant="normal" font-weight="400" font-stretch="normal" font-size="23" text-anchor="start" direction="ltr" writing-mode="lr-tb" unicode-bidi="normal" text-decoration="none" transform="translate(2364.36 1394)">困了</text><path d="M2377.5 1433.5C2377.5 1427.98 2381.98 1423.5 2387.5 1423.5 2393.02 1423.5 2397.5 1427.98 2397.5 1433.5 2397.5 1439.02 2393.02 1443.5 2387.5 1443.5 2381.98 1443.5 2377.5 1439.02 2377.5 1433.5Z" stroke="#FFFFFF" stroke-width="6.875" stroke-linecap="butt" stroke-linejoin="miter" stroke-miterlimit="8" stroke-opacity="1" fill="#8826AA" fill-rule="evenodd" fill-opacity="1"/><text fill="#000000" fill-opacity="1" font-family="SimSun,SimSun_MSFontService,Arial" font-style="normal" font-variant="normal" font-weight="400" font-stretch="normal" font-size="23" text-anchor="start" direction="ltr" writing-mode="lr-tb" unicode-bidi="normal" text-decoration="none" transform="translate(2442.68 1486)">睡觉</text><path d="M2456.5 1433.5C2456.5 1427.98 2460.75 1423.5 2466 1423.5 2471.25 1423.5 2475.5 1427.98 2475.5 1433.5 2475.5 1439.02 2471.25 1443.5 2466 1443.5 2460.75 1443.5 2456.5 1439.02 2456.5 1433.5Z" stroke="#FFFFFF" stroke-width="6.875" stroke-linecap="butt" stroke-linejoin="miter" stroke-miterlimit="8" stroke-opacity="1" fill="#9C29A5" fill-rule="evenodd" fill-opacity="1"/><text fill="#000000" fill-opacity="1" font-family="SimSun,SimSun_MSFontService,Arial" font-style="normal" font-variant="normal" font-weight="400" font-stretch="normal" font-size="23" text-anchor="start" direction="ltr" writing-mode="lr-tb" unicode-bidi="normal" text-decoration="none" transform="translate(2521 1367)">知道</text><text fill="#000000" fill-opacity="1" font-family="SimSun,SimSun_MSFontService,Arial" font-style="normal" font-variant="normal" font-weight="400" font-stretch="normal" font-size="23" text-anchor="start" direction="ltr" writing-mode="lr-tb" unicode-bidi="normal" text-decoration="none" transform="translate(2521 1394)">睡醒</text><path d="M2534.5 1433.5C2534.5 1427.98 2538.98 1423.5 2544.5 1423.5 2550.02 1423.5 2554.5 1427.98 2554.5 1433.5 2554.5 1439.02 2550.02 1443.5 2544.5 1443.5 2538.98 1443.5 2534.5 1439.02 2534.5 1433.5Z" stroke="#FFFFFF" stroke-width="6.875" stroke-linecap="butt" stroke-linejoin="miter" stroke-miterlimit="8" stroke-opacity="1" fill="#A02B93" fill-rule="evenodd" fill-opacity="1"/><text fill="#000000" fill-opacity="1" font-family="SimSong,SimSong_MSFontService,Arial" font-style="normal" font-variant="normal" font-weight="700" font-stretch="normal" font-size="32" text-anchor="start" direction="ltr" writing-mode="lr-tb" unicode-bidi="normal" text-decoration="none" transform="translate(1559.05 1401)">造作</text><text fill="#000000" fill-opacity="1" font-family="SimSong,SimSong_MSFontService,Arial" font-style="normal" font-variant="normal" font-weight="400" font-stretch="normal" font-size="32" text-anchor="start" direction="ltr" writing-mode="lr-tb" unicode-bidi="normal" text-decoration="none" transform="translate(1526.96 1440)">造作的</text><text fill="#000000" fill-opacity="1" font-family="SimSong,SimSong_MSFontService,Arial" font-style="normal" font-variant="normal" font-weight="400" font-stretch="normal" font-size="32" text-anchor="start" direction="ltr" writing-mode="lr-tb" unicode-bidi="normal" text-decoration="none" transform="translate(1623.21 1440)">心</text><text fill="#000000" fill-opacity="1" font-family="SimSong,SimSong_MSFontService,Arial" font-style="normal" font-variant="normal" font-weight="400" font-stretch="normal" font-size="32" text-anchor="start" direction="ltr" writing-mode="lr-tb" unicode-bidi="normal" text-decoration="none" transform="translate(1526.96 1478)">“疯子”</text><text fill="#000000" fill-opacity="1" font-family="SimSong,SimSong_MSFontService,Arial" font-style="normal" font-variant="normal" font-weight="700" font-stretch="normal" font-size="32" text-anchor="start" direction="ltr" writing-mode="lr-tb" unicode-bidi="normal" text-decoration="none" transform="translate(1563.21 1588)">知者</text><text fill="#000000" fill-opacity="1" font-family="SimSong,SimSong_MSFontService,Arial" font-style="normal" font-variant="normal" font-weight="400" font-stretch="normal" font-size="32" text-anchor="start" direction="ltr" writing-mode="lr-tb" unicode-bidi="normal" text-decoration="none" transform="translate(1499.05 1627)">非造作的明觉</text><text fill="#000000" fill-opacity="1" font-family="SimSong,SimSong_MSFontService,Arial" font-style="normal" font-variant="normal" font-weight="400" font-stretch="normal" font-size="32" text-anchor="start" direction="ltr" writing-mode="lr-tb" unicode-bidi="normal" text-decoration="none" transform="translate(1499.05 1665)">“傻瓜哑巴”</text></g></g></svg>