<svg width="1137" height="527" xmlns="http://www.w3.org/2000/svg" xmlns:xlink="http://www.w3.org/1999/xlink" xml:space="preserve" overflow="hidden"><g transform="translate(-270 -1265)"><g><path d="M755 1291.17C755 1281.13 763.133 1273 773.167 1273L903.833 1273C913.866 1273 922 1281.13 922 1291.17L922 1363.83C922 1373.87 913.866 1382 903.833 1382L773.167 1382C763.133 1382 755 1373.87 755 1363.83Z" stroke="#E97132" stroke-width="5.72917" stroke-linecap="butt" stroke-linejoin="miter" stroke-miterlimit="8" stroke-opacity="1" fill="#FFFFFF" fill-rule="evenodd" fill-opacity="1"/><text fill="#C04F15" fill-opacity="1" font-family="SimSun,SimSun_MSFontService,Arial" font-style="normal" font-variant="normal" font-weight="400" font-stretch="normal" font-size="32" text-anchor="start" direction="ltr" writing-mode="lr-tb" unicode-bidi="normal" text-decoration="none" transform="translate(806.589 1311)">感受</text><text fill="#C04F15" fill-opacity="1" font-family="SimSun,SimSun_MSFontService,Arial" font-style="normal" font-variant="normal" font-weight="400" font-stretch="normal" font-size="32" text-anchor="start" direction="ltr" writing-mode="lr-tb" unicode-bidi="normal" text-decoration="none" transform="translate(798.568 1363)">苦</text><text fill="#C04F15" fill-opacity="1" font-family="SimSun,SimSun_MSFontService,Arial" font-style="normal" font-variant="normal" font-weight="400" font-stretch="normal" font-size="32" text-anchor="start" direction="ltr" writing-mode="lr-tb" unicode-bidi="normal" text-decoration="none" transform="translate(830.651 1363)">/</text><text fill="#C04F15" fill-opacity="1" font-family="SimSun,SimSun_MSFontService,Arial" font-style="normal" font-variant="normal" font-weight="400" font-stretch="normal" font-size="32" text-anchor="start" direction="ltr" writing-mode="lr-tb" unicode-bidi="normal" text-decoration="none" transform="translate(846.693 1363)">乐</text><path d="M945.941 1354.2 962.304 1364.33 977.763 1375.89 992.146 1388.77 1002.2 1399.51 998.849 1402.64 988.869 1391.98 989.013 1392.12 974.78 1379.38 974.936 1379.5 959.639 1368.06 959.806 1368.17 943.529 1358.1ZM995.673 1369.53 1003.63 1404.39 969.361 1394.16C968.149 1393.8 967.459 1392.52 967.822 1391.31 968.184 1390.09 969.461 1389.4 970.673 1389.77L1001.18 1398.88 998.288 1401.58 991.205 1370.55C990.923 1369.31 991.695 1368.08 992.929 1367.8 994.163 1367.52 995.391 1368.29 995.673 1369.53Z" fill="#E97132" fill-rule="nonzero" fill-opacity="1"/><path d="M962 1441.17C962 1431.13 970.134 1423 980.167 1423L1110.83 1423C1120.87 1423 1129 1431.13 1129 1441.17L1129 1513.83C1129 1523.87 1120.87 1532 1110.83 1532L980.167 1532C970.134 1532 962 1523.87 962 1513.83Z" stroke="#196B24" stroke-width="5.72917" stroke-linecap="butt" stroke-linejoin="miter" stroke-miterlimit="8" stroke-opacity="1" fill="#FFFFFF" fill-rule="evenodd" fill-opacity="1"/><text fill="#196B24" fill-opacity="1" font-family="SimSun,SimSun_MSFontService,Arial" font-style="normal" font-variant="normal" font-weight="700" font-stretch="normal" font-size="23" text-anchor="start" direction="ltr" writing-mode="lr-tb" unicode-bidi="normal" text-decoration="none" transform="translate(981.933 1466)">喜欢</text><text fill="#196B24" fill-opacity="1" font-family="SimSun,SimSun_MSFontService,Arial" font-style="normal" font-variant="normal" font-weight="700" font-stretch="normal" font-size="23" text-anchor="start" direction="ltr" writing-mode="lr-tb" unicode-bidi="normal" text-decoration="none" transform="translate(1027.95 1466)">/</text><text fill="#196B24" fill-opacity="1" font-family="SimSun,SimSun_MSFontService,Arial" font-style="normal" font-variant="normal" font-weight="700" font-stretch="normal" font-size="23" text-anchor="start" direction="ltr" writing-mode="lr-tb" unicode-bidi="normal" text-decoration="none" transform="translate(1039.5 1466)">不喜欢</text><text fill="#196B24" fill-opacity="1" font-family="SimSun,SimSun_MSFontService,Arial" font-style="normal" font-variant="normal" font-weight="700" font-stretch="normal" font-size="23" text-anchor="start" direction="ltr" writing-mode="lr-tb" unicode-bidi="normal" text-decoration="none" transform="translate(981.933 1503)">满意</text><text fill="#196B24" fill-opacity="1" font-family="SimSun,SimSun_MSFontService,Arial" font-style="normal" font-variant="normal" font-weight="700" font-stretch="normal" font-size="23" text-anchor="start" direction="ltr" writing-mode="lr-tb" unicode-bidi="normal" text-decoration="none" transform="translate(1027.95 1503)">/</text><text fill="#196B24" fill-opacity="1" font-family="SimSun,SimSun_MSFontService,Arial" font-style="normal" font-variant="normal" font-weight="700" font-stretch="normal" font-size="23" text-anchor="start" direction="ltr" writing-mode="lr-tb" unicode-bidi="normal" text-decoration="none" transform="translate(1039.5 1503)">不满意</text><path d="M1057.63 1560.94 1056.62 1571.71 1055.06 1582.45 1052.99 1593.09 1050.39 1603.6 1047.27 1613.97 1043.65 1624.19 1039.52 1634.22 1036.84 1639.9 1032.7 1637.95 1035.34 1632.32 1035.3 1632.43 1039.39 1622.5 1039.35 1622.6 1042.93 1612.49 1042.9 1612.6 1045.98 1602.34 1045.95 1602.45 1048.52 1592.04 1048.5 1592.15 1050.56 1581.63 1050.54 1581.74 1052.07 1571.11 1052.06 1571.22 1053.07 1560.51ZM1062.29 1622.76 1032.83 1643.04 1029.69 1607.41C1029.57 1606.15 1030.51 1605.04 1031.77 1604.93 1033.03 1604.82 1034.14 1605.75 1034.25 1607.01L1037.05 1638.72 1033.47 1637.04 1059.7 1618.99C1060.74 1618.27 1062.17 1618.53 1062.88 1619.58 1063.6 1620.62 1063.34 1622.05 1062.29 1622.76Z" fill="#196B24" fill-rule="nonzero" fill-opacity="1"/><path d="M883 1684.17C883 1674.13 891.134 1666 901.167 1666L1031.83 1666C1041.87 1666 1050 1674.13 1050 1684.17L1050 1756.83C1050 1766.87 1041.87 1775 1031.83 1775L901.167 1775C891.134 1775 883 1766.87 883 1756.83Z" stroke="#0F9ED5" stroke-width="5.72917" stroke-linecap="butt" stroke-linejoin="miter" stroke-miterlimit="8" stroke-opacity="1" fill="#FFFFFF" fill-rule="evenodd" fill-opacity="1"/><text fill="#0B76A0" fill-opacity="1" font-family="SimSun,SimSun_MSFontService,Arial" font-style="normal" font-variant="normal" font-weight="700" font-stretch="normal" font-size="32" text-anchor="start" direction="ltr" writing-mode="lr-tb" unicode-bidi="normal" text-decoration="none" transform="translate(934.133 1704)">成瘾</text><text fill="#0B76A0" fill-opacity="1" font-family="SimSun,SimSun_MSFontService,Arial" font-style="normal" font-variant="normal" font-weight="700" font-stretch="normal" font-size="32" text-anchor="start" direction="ltr" writing-mode="lr-tb" unicode-bidi="normal" text-decoration="none" transform="translate(934.133 1756)">洗脑</text><path d="M865.537 1763.51 852.166 1764.75 838.686 1765.17 825.206 1764.75 816.353 1763.93 816.775 1759.37 825.558 1760.18 825.418 1760.17 838.757 1760.58 838.616 1760.58 851.955 1760.17 851.814 1760.18 865.115 1758.95ZM841.138 1782.02 812.036 1761.23 844.457 1746.13C845.604 1745.6 846.968 1746.09 847.502 1747.24 848.036 1748.39 847.54 1749.75 846.392 1750.29L817.532 1763.73 817.896 1759.79 843.802 1778.29C844.832 1779.03 845.071 1780.46 844.335 1781.49 843.599 1782.52 842.168 1782.76 841.138 1782.02Z" fill="#0F9ED5" fill-rule="nonzero" fill-opacity="1"/><path d="M627 1684.17C627 1674.13 635.134 1666 645.167 1666L776.833 1666C786.867 1666 795 1674.13 795 1684.17L795 1756.83C795 1766.87 786.867 1775 776.833 1775L645.167 1775C635.134 1775 627 1766.87 627 1756.83Z" stroke="#A02B93" stroke-width="5.72917" stroke-linecap="butt" stroke-linejoin="miter" stroke-miterlimit="8" stroke-opacity="1" fill="#FFFFFF" fill-rule="evenodd" fill-opacity="1"/><text fill="#A02B93" fill-opacity="1" font-family="SimSun,SimSun_MSFontService,Arial" font-style="normal" font-variant="normal" font-weight="700" font-stretch="normal" font-size="28" text-anchor="start" direction="ltr" writing-mode="lr-tb" unicode-bidi="normal" text-decoration="none" transform="translate(683.399 1709)">贪爱</text><text fill="#A02B93" fill-opacity="1" font-family="SimSun,SimSun_MSFontService,Arial" font-style="normal" font-variant="normal" font-weight="700" font-stretch="normal" font-size="23" text-anchor="start" direction="ltr" writing-mode="lr-tb" unicode-bidi="normal" text-decoration="none" transform="translate(647.717 1750)">想要</text><text fill="#A02B93" fill-opacity="1" font-family="SimSun,SimSun_MSFontService,Arial" font-style="normal" font-variant="normal" font-weight="700" font-stretch="normal" font-size="23" text-anchor="start" direction="ltr" writing-mode="lr-tb" unicode-bidi="normal" text-decoration="none" transform="translate(693.734 1750)">/</text><text fill="#A02B93" fill-opacity="1" font-family="SimSun,SimSun_MSFontService,Arial" font-style="normal" font-variant="normal" font-weight="700" font-stretch="normal" font-size="23" text-anchor="start" direction="ltr" writing-mode="lr-tb" unicode-bidi="normal" text-decoration="none" transform="translate(705.284 1750)">不想要</text><path d="M643 1643.02 638.406 1633.26 634.297 1623.28 630.691 1613.12 627.592 1602.8 625.006 1592.34 622.938 1581.76 621.394 1571.07 620.594 1562.59 622.875 1562.38 623.673 1570.83 623.666 1570.77 625.203 1581.4 625.193 1581.35 627.25 1591.87 627.238 1591.82 629.81 1602.22 629.795 1602.17 632.878 1612.43 632.86 1612.38 636.447 1622.48 636.427 1622.43 640.514 1632.36 640.492 1632.31 645.073 1642.04ZM607.308 1590.89 621.521 1560.22 641.22 1587.69C641.589 1588.21 641.471 1588.92 640.957 1589.29 640.442 1589.66 639.727 1589.54 639.358 1589.03L620.804 1563.16 622.774 1562.97 609.387 1591.85 609.387 1591.85C609.121 1592.43 608.44 1592.68 607.866 1592.41 607.291 1592.15 607.042 1591.47 607.308 1590.89Z" fill="#A02B93" fill-rule="nonzero" fill-opacity="1"/><path d="M548 1441.17C548 1431.13 556.134 1423 566.167 1423L697.833 1423C707.866 1423 716 1431.13 716 1441.17L716 1513.83C716 1523.87 707.866 1532 697.833 1532L566.167 1532C556.134 1532 548 1523.87 548 1513.83Z" stroke="#000000" stroke-width="5.72917" stroke-linecap="butt" stroke-linejoin="miter" stroke-miterlimit="8" stroke-opacity="1" fill="#FFFFFF" fill-rule="evenodd" fill-opacity="1"/><text fill="#000000" fill-opacity="1" font-family="SimSun,SimSun_MSFontService,Arial" font-style="normal" font-variant="normal" font-weight="700" font-stretch="normal" font-size="28" text-anchor="start" direction="ltr" writing-mode="lr-tb" unicode-bidi="normal" text-decoration="none" transform="translate(604.513 1463)">行为</text><text fill="#000000" fill-opacity="1" font-family="SimSun,SimSun_MSFontService,Arial" font-style="normal" font-variant="normal" font-weight="700" font-stretch="normal" font-size="28" text-anchor="start" direction="ltr" writing-mode="lr-tb" unicode-bidi="normal" text-decoration="none" transform="translate(569.954 1508)">趋利</text><text fill="#000000" fill-opacity="1" font-family="SimSun,SimSun_MSFontService,Arial" font-style="normal" font-variant="normal" font-weight="700" font-stretch="normal" font-size="28" text-anchor="start" direction="ltr" writing-mode="lr-tb" unicode-bidi="normal" text-decoration="none" transform="translate(625.183 1508)">/</text><text fill="#000000" fill-opacity="1" font-family="SimSun,SimSun_MSFontService,Arial" font-style="normal" font-variant="normal" font-weight="700" font-stretch="normal" font-size="28" text-anchor="start" direction="ltr" writing-mode="lr-tb" unicode-bidi="normal" text-decoration="none" transform="translate(639.048 1508)">避害</text><path d="M672.413 1403.1 685.529 1389.09 699.837 1376.28 715.215 1364.78 729.605 1355.87 730.811 1357.82 716.464 1366.7 716.547 1366.64 701.25 1378.09 701.328 1378.02 687.095 1390.77 687.167 1390.7 674.086 1404.67ZM698.352 1356.53 732.141 1355.65 716.278 1385.5C715.981 1386.05 715.287 1386.27 714.729 1385.97 714.17 1385.67 713.957 1384.98 714.254 1384.42L729.196 1356.31 730.238 1357.99 698.412 1358.82C697.779 1358.84 697.253 1358.34 697.236 1357.71 697.22 1357.07 697.719 1356.55 698.352 1356.53Z" fill="#000000" fill-rule="nonzero" fill-opacity="1"/></g></g></svg>