<svg width="1168" height="691" xmlns="http://www.w3.org/2000/svg" xmlns:xlink="http://www.w3.org/1999/xlink" xml:space="preserve" overflow="hidden"><g transform="matrix(1 0 0 1 0 4)"><g><path d="M650.671 22.0414C832.068 59.0837 949.046 235.945 911.948 417.071 874.851 598.198 697.726 715.001 516.329 677.959 334.932 640.917 217.954 464.056 255.052 282.929 275.877 181.251 342.756 94.9683 436.11 49.3405L428.547 29.5683 470.949 55.7148 457.832 106.139 450.274 86.3768C304.432 159.831 245.851 337.406 319.43 483.001 393.009 628.596 570.884 687.078 716.725 613.624 862.567 540.17 921.148 362.595 847.57 217 806.827 136.379 731.37 78.8014 642.751 60.712Z" fill="#CCDFEF" fill-rule="evenodd" fill-opacity="1"/><path d="M480.5 17.667C480.5 8.18583 488.186 0.499836 497.667 0.499836L670.333 0.499836C679.814 0.499836 687.5 8.18583 687.5 17.667L687.5 86.3328C687.5 95.814 679.814 103.5 670.333 103.5L497.667 103.5C488.186 103.5 480.5 95.814 480.5 86.3328Z" stroke="#FFFFFF" stroke-width="4.58333" stroke-linecap="butt" stroke-linejoin="miter" stroke-miterlimit="8" stroke-opacity="1" fill="#0F9ED5" fill-rule="evenodd" fill-opacity="1"/><text fill="#FFFFFF" fill-opacity="1" font-family="SimSong,SimSong_MSFontService,Arial" font-style="normal" font-variant="normal" font-weight="700" font-stretch="normal" font-size="32" text-anchor="start" direction="ltr" writing-mode="lr-tb" unicode-bidi="normal" text-decoration="none" transform="translate(551.375 43)">命运</text><text fill="#FFFFFF" fill-opacity="1" font-family="SimSong,SimSong_MSFontService,Arial" font-style="normal" font-variant="normal" font-weight="400" font-stretch="normal" font-size="28" text-anchor="start" direction="ltr" writing-mode="lr-tb" unicode-bidi="normal" text-decoration="none" transform="translate(500.958 81)">(</text><text fill="#FFFFFF" fill-opacity="1" font-family="SimSong,SimSong_MSFontService,Arial" font-style="normal" font-variant="normal" font-weight="400" font-stretch="normal" font-size="28" text-anchor="start" direction="ltr" writing-mode="lr-tb" unicode-bidi="normal" text-decoration="none" transform="translate(514.708 81)">过去所造业</text><text fill="#FFFFFF" fill-opacity="1" font-family="SimSong,SimSong_MSFontService,Arial" font-style="normal" font-variant="normal" font-weight="400" font-stretch="normal" font-size="28" text-anchor="start" direction="ltr" writing-mode="lr-tb" unicode-bidi="normal" text-decoration="none" transform="translate(652.208 81)">)</text><path d="M718.5 131.834C718.5 122.26 726.26 114.5 735.834 114.5L907.166 114.5C916.739 114.5 924.5 122.26 924.5 131.834L924.5 201.167C924.5 210.74 916.739 218.5 907.166 218.5L735.834 218.5C726.26 218.5 718.5 210.74 718.5 201.167Z" stroke="#FFFFFF" stroke-width="4.58333" stroke-linecap="butt" stroke-linejoin="miter" stroke-miterlimit="8" stroke-opacity="1" fill="#1461CC" fill-rule="evenodd" fill-opacity="1"/><text fill="#FFFFFF" fill-opacity="1" font-family="SimSong,SimSong_MSFontService,Arial" font-style="normal" font-variant="normal" font-weight="700" font-stretch="normal" font-size="32" text-anchor="start" direction="ltr" writing-mode="lr-tb" unicode-bidi="normal" text-decoration="none" transform="translate(756.722 157)">心的品质</text><text fill="#FFFFFF" fill-opacity="1" font-family="SimSong,SimSong_MSFontService,Arial" font-style="normal" font-variant="normal" font-weight="400" font-stretch="normal" font-size="28" text-anchor="start" direction="ltr" writing-mode="lr-tb" unicode-bidi="normal" text-decoration="none" transform="translate(752.139 195)">(</text><text fill="#FFFFFF" fill-opacity="1" font-family="SimSong,SimSong_MSFontService,Arial" font-style="normal" font-variant="normal" font-weight="400" font-stretch="normal" font-size="28" text-anchor="start" direction="ltr" writing-mode="lr-tb" unicode-bidi="normal" text-decoration="none" transform="translate(765.889 195)">粗细宽窄</text><text fill="#FFFFFF" fill-opacity="1" font-family="SimSong,SimSong_MSFontService,Arial" font-style="normal" font-variant="normal" font-weight="400" font-stretch="normal" font-size="28" text-anchor="start" direction="ltr" writing-mode="lr-tb" unicode-bidi="normal" text-decoration="none" transform="translate(875.889 195)">)</text><path d="M776.5 388.667C776.5 379.186 784.186 371.5 793.667 371.5L966.333 371.5C975.814 371.5 983.5 379.186 983.5 388.667L983.5 457.333C983.5 466.814 975.814 474.5 966.333 474.5L793.667 474.5C784.186 474.5 776.5 466.814 776.5 457.333Z" stroke="#FFFFFF" stroke-width="4.58333" stroke-linecap="butt" stroke-linejoin="miter" stroke-miterlimit="8" stroke-opacity="1" fill="#192CC3" fill-rule="evenodd" fill-opacity="1"/><text fill="#FFFFFF" fill-opacity="1" font-family="SimSong,SimSong_MSFontService,Arial" font-style="normal" font-variant="normal" font-weight="700" font-stretch="normal" font-size="32" text-anchor="start" direction="ltr" writing-mode="lr-tb" unicode-bidi="normal" text-decoration="none" transform="translate(846.53 414)">作意</text><text fill="#FFFFFF" fill-opacity="1" font-family="SimSong,SimSong_MSFontService,Arial" font-style="normal" font-variant="normal" font-weight="400" font-stretch="normal" font-size="28" text-anchor="start" direction="ltr" writing-mode="lr-tb" unicode-bidi="normal" text-decoration="none" transform="translate(790.155 452)">(</text><text fill="#FFFFFF" fill-opacity="1" font-family="SimSong,SimSong_MSFontService,Arial" font-style="normal" font-variant="normal" font-weight="400" font-stretch="normal" font-size="28" text-anchor="start" direction="ltr" writing-mode="lr-tb" unicode-bidi="normal" text-decoration="none" transform="translate(803.905 452)">如理</text><text fill="#FFFFFF" fill-opacity="1" font-family="SimSong,SimSong_MSFontService,Arial" font-style="normal" font-variant="normal" font-weight="400" font-stretch="normal" font-size="28" text-anchor="start" direction="ltr" writing-mode="lr-tb" unicode-bidi="normal" text-decoration="none" transform="translate(858.905 452)">/</text><text fill="#FFFFFF" fill-opacity="1" font-family="SimSong,SimSong_MSFontService,Arial" font-style="normal" font-variant="normal" font-weight="400" font-stretch="normal" font-size="28" text-anchor="start" direction="ltr" writing-mode="lr-tb" unicode-bidi="normal" text-decoration="none" transform="translate(872.655 452)">非如理</text><text fill="#FFFFFF" fill-opacity="1" font-family="SimSong,SimSong_MSFontService,Arial" font-style="normal" font-variant="normal" font-weight="400" font-stretch="normal" font-size="28" text-anchor="start" direction="ltr" writing-mode="lr-tb" unicode-bidi="normal" text-decoration="none" transform="translate(955.155 452)">)</text><path d="M612.5 594.834C612.5 585.26 620.261 577.5 629.834 577.5L801.166 577.5C810.739 577.5 818.5 585.26 818.5 594.834L818.5 664.167C818.5 673.74 810.739 681.5 801.166 681.5L629.834 681.5C620.261 681.5 612.5 673.74 612.5 664.167Z" stroke="#FFFFFF" stroke-width="4.58333" stroke-linecap="butt" stroke-linejoin="miter" stroke-miterlimit="8" stroke-opacity="1" fill="#3C1EBA" fill-rule="evenodd" fill-opacity="1"/><text fill="#FFFFFF" fill-opacity="1" font-family="SimSong,SimSong_MSFontService,Arial" font-style="normal" font-variant="normal" font-weight="700" font-stretch="normal" font-size="32" text-anchor="start" direction="ltr" writing-mode="lr-tb" unicode-bidi="normal" text-decoration="none" transform="translate(651.056 620)">思维模式</text><text fill="#FFFFFF" fill-opacity="1" font-family="SimSong,SimSong_MSFontService,Arial" font-style="normal" font-variant="normal" font-weight="400" font-stretch="normal" font-size="28" text-anchor="start" direction="ltr" writing-mode="lr-tb" unicode-bidi="normal" text-decoration="none" transform="translate(646.472 658)">(</text><text fill="#FFFFFF" fill-opacity="1" font-family="SimSong,SimSong_MSFontService,Arial" font-style="normal" font-variant="normal" font-weight="400" font-stretch="normal" font-size="28" text-anchor="start" direction="ltr" writing-mode="lr-tb" unicode-bidi="normal" text-decoration="none" transform="translate(660.222 658)">心智惯性</text><text fill="#FFFFFF" fill-opacity="1" font-family="SimSong,SimSong_MSFontService,Arial" font-style="normal" font-variant="normal" font-weight="400" font-stretch="normal" font-size="28" text-anchor="start" direction="ltr" writing-mode="lr-tb" unicode-bidi="normal" text-decoration="none" transform="translate(770.222 658)">)</text><path d="M349.5 594.834C349.5 585.26 357.261 577.5 366.834 577.5L538.166 577.5C547.739 577.5 555.5 585.26 555.5 594.834L555.5 664.167C555.5 673.74 547.739 681.5 538.166 681.5L366.834 681.5C357.261 681.5 349.5 673.74 349.5 664.167Z" stroke="#FFFFFF" stroke-width="4.58333" stroke-linecap="butt" stroke-linejoin="miter" stroke-miterlimit="8" stroke-opacity="1" fill="#6A22B1" fill-rule="evenodd" fill-opacity="1"/><text fill="#FFFFFF" fill-opacity="1" font-family="SimSong,SimSong_MSFontService,Arial" font-style="normal" font-variant="normal" font-weight="700" font-stretch="normal" font-size="32" text-anchor="start" direction="ltr" writing-mode="lr-tb" unicode-bidi="normal" text-decoration="none" transform="translate(379.506 638)">能力</text><text fill="#FFFFFF" fill-opacity="1" font-family="SimSong,SimSong_MSFontService,Arial" font-style="normal" font-variant="normal" font-weight="700" font-stretch="normal" font-size="32" text-anchor="start" direction="ltr" writing-mode="lr-tb" unicode-bidi="normal" text-decoration="none" transform="translate(443.673 638)">/</text><text fill="#FFFFFF" fill-opacity="1" font-family="SimSong,SimSong_MSFontService,Arial" font-style="normal" font-variant="normal" font-weight="700" font-stretch="normal" font-size="32" text-anchor="start" direction="ltr" writing-mode="lr-tb" unicode-bidi="normal" text-decoration="none" transform="translate(459.715 638)">选择</text><path d="M184.5 388.667C184.5 379.186 192.186 371.5 201.667 371.5L374.333 371.5C383.814 371.5 391.5 379.186 391.5 388.667L391.5 457.333C391.5 466.814 383.814 474.5 374.333 474.5L201.667 474.5C192.186 474.5 184.5 466.814 184.5 457.333Z" stroke="#FFFFFF" stroke-width="4.58333" stroke-linecap="butt" stroke-linejoin="miter" stroke-miterlimit="8" stroke-opacity="1" fill="#8F27A8" fill-rule="evenodd" fill-opacity="1"/><text fill="#FFFFFF" fill-opacity="1" font-family="SimSong,SimSong_MSFontService,Arial" font-style="normal" font-variant="normal" font-weight="700" font-stretch="normal" font-size="32" text-anchor="start" direction="ltr" writing-mode="lr-tb" unicode-bidi="normal" text-decoration="none" transform="translate(215.199 432)">努力</text><text fill="#FFFFFF" fill-opacity="1" font-family="SimSong,SimSong_MSFontService,Arial" font-style="normal" font-variant="normal" font-weight="700" font-stretch="normal" font-size="32" text-anchor="start" direction="ltr" writing-mode="lr-tb" unicode-bidi="normal" text-decoration="none" transform="translate(279.366 432)">/</text><text fill="#FFFFFF" fill-opacity="1" font-family="SimSong,SimSong_MSFontService,Arial" font-style="normal" font-variant="normal" font-weight="700" font-stretch="normal" font-size="32" text-anchor="start" direction="ltr" writing-mode="lr-tb" unicode-bidi="normal" text-decoration="none" transform="translate(295.407 432)">结果</text><path d="M243.5 131.834C243.5 122.261 251.26 114.5 260.833 114.5L432.167 114.5C441.74 114.5 449.5 122.261 449.5 131.834L449.5 201.167C449.5 210.74 441.74 218.5 432.167 218.5L260.833 218.5C251.26 218.5 243.5 210.74 243.5 201.167Z" stroke="#FFFFFF" stroke-width="4.58333" stroke-linecap="butt" stroke-linejoin="miter" stroke-miterlimit="8" stroke-opacity="1" fill="#A02B93" fill-rule="evenodd" fill-opacity="1"/><text fill="#FFFFFF" fill-opacity="1" font-family="SimSong,SimSong_MSFontService,Arial" font-style="normal" font-variant="normal" font-weight="700" font-stretch="normal" font-size="32" text-anchor="start" direction="ltr" writing-mode="lr-tb" unicode-bidi="normal" text-decoration="none" transform="translate(281.861 157)">心智塑造</text><text fill="#FFFFFF" fill-opacity="1" font-family="SimSong,SimSong_MSFontService,Arial" font-style="normal" font-variant="normal" font-weight="400" font-stretch="normal" font-size="28" text-anchor="start" direction="ltr" writing-mode="lr-tb" unicode-bidi="normal" text-decoration="none" transform="translate(263.527 195)">(</text><text fill="#FFFFFF" fill-opacity="1" font-family="SimSong,SimSong_MSFontService,Arial" font-style="normal" font-variant="normal" font-weight="400" font-stretch="normal" font-size="28" text-anchor="start" direction="ltr" writing-mode="lr-tb" unicode-bidi="normal" text-decoration="none" transform="translate(277.277 195)">现在所造业</text><text fill="#FFFFFF" fill-opacity="1" font-family="SimSong,SimSong_MSFontService,Arial" font-style="normal" font-variant="normal" font-weight="400" font-stretch="normal" font-size="28" text-anchor="start" direction="ltr" writing-mode="lr-tb" unicode-bidi="normal" text-decoration="none" transform="translate(414.777 195)">)</text></g></g></svg>