<svg width="1168" height="581" xmlns="http://www.w3.org/2000/svg" xmlns:xlink="http://www.w3.org/1999/xlink" xml:space="preserve" overflow="hidden"><g transform="matrix(1 0 0 1 0 4)"><g><path d="M706.5 140.5 706.5 184.152 841.097 184.152 841.097 204.556" stroke="#A02B93" stroke-width="4.58333" stroke-linecap="butt" stroke-linejoin="miter" stroke-miterlimit="8" stroke-opacity="1" fill="none" fill-rule="evenodd"/><path d="M571.5 344.5 571.5 388.152 975.292 388.152 975.292 408.556" stroke="#4EA72E" stroke-width="4.58333" stroke-linecap="butt" stroke-linejoin="miter" stroke-miterlimit="8" stroke-opacity="1" fill="none" fill-rule="evenodd"/><path d="M571.5 344.5 571.5 388.152 706.097 388.152 706.097 408.556" stroke="#4EA72E" stroke-width="4.58333" stroke-linecap="butt" stroke-linejoin="miter" stroke-miterlimit="8" stroke-opacity="1" fill="none" fill-rule="evenodd"/><path d="M572.097 344.5 572.097 388.152 437.5 388.152 437.5 408.556" stroke="#4EA72E" stroke-width="4.58333" stroke-linecap="butt" stroke-linejoin="miter" stroke-miterlimit="8" stroke-opacity="1" fill="none" fill-rule="evenodd"/><path d="M571.291 344.5 571.291 388.152 167.5 388.152 167.5 408.556" stroke="#4EA72E" stroke-width="4.58333" stroke-linecap="butt" stroke-linejoin="miter" stroke-miterlimit="8" stroke-opacity="1" fill="none" fill-rule="evenodd"/><path d="M706.097 140.5 706.097 184.152 571.5 184.152 571.5 204.556" stroke="#A02B93" stroke-width="4.58333" stroke-linecap="butt" stroke-linejoin="miter" stroke-miterlimit="8" stroke-opacity="1" fill="none" fill-rule="evenodd"/><path d="M596.5 14.4998C596.5 6.76784 602.768 0.499836 610.5 0.499836L802.5 0.499836C810.232 0.499836 816.5 6.76784 816.5 14.4998L816.5 126.5C816.5 134.232 810.232 140.5 802.5 140.5L610.5 140.5C602.768 140.5 596.5 134.232 596.5 126.5Z" stroke="#FFFFFF" stroke-width="4.58333" stroke-linecap="butt" stroke-linejoin="miter" stroke-miterlimit="8" stroke-opacity="1" fill="#196B24" fill-rule="evenodd" fill-opacity="1"/><path d="M620.5 37.4998C620.5 29.7679 626.768 23.4999 634.5 23.4999L826.5 23.4999C834.232 23.4999 840.5 29.7679 840.5 37.4998L840.5 149.5C840.5 157.232 834.232 163.5 826.5 163.5L634.5 163.5C626.768 163.5 620.5 157.232 620.5 149.5Z" stroke="#196B24" stroke-width="4.58333" stroke-linecap="butt" stroke-linejoin="miter" stroke-miterlimit="8" stroke-opacity="1" fill="#FFFFFF" fill-rule="evenodd" fill-opacity="0.901961"/><text fill="#000000" fill-opacity="1" font-family="SimSun,SimSun_MSFontService,Arial" font-style="normal" font-variant="normal" font-weight="400" font-stretch="normal" font-size="37" text-anchor="start" direction="ltr" writing-mode="lr-tb" unicode-bidi="normal" text-decoration="none" transform="translate(693.625 104)">实相</text><path d="M461.5 218.5C461.5 210.768 467.768 204.5 475.5 204.5L667.5 204.5C675.232 204.5 681.5 210.768 681.5 218.5L681.5 330.5C681.5 338.232 675.232 344.5 667.5 344.5L475.5 344.5C467.768 344.5 461.5 338.232 461.5 330.5Z" stroke="#FFFFFF" stroke-width="4.58333" stroke-linecap="butt" stroke-linejoin="miter" stroke-miterlimit="8" stroke-opacity="1" fill="#3B7D23" fill-rule="evenodd" fill-opacity="1"/><path d="M486.5 241.5C486.5 233.768 492.768 227.5 500.5 227.5L692.5 227.5C700.232 227.5 706.5 233.768 706.5 241.5L706.5 353.5C706.5 361.232 700.232 367.5 692.5 367.5L500.5 367.5C492.768 367.5 486.5 361.232 486.5 353.5Z" stroke="#3B7D23" stroke-width="4.58333" stroke-linecap="butt" stroke-linejoin="miter" stroke-miterlimit="8" stroke-opacity="1" fill="#FFFFFF" fill-rule="evenodd" fill-opacity="0.901961"/><text fill="#000000" fill-opacity="1" font-family="SimSun,SimSun_MSFontService,Arial" font-style="normal" font-variant="normal" font-weight="400" font-stretch="normal" font-size="37" text-anchor="start" direction="ltr" writing-mode="lr-tb" unicode-bidi="normal" text-decoration="none" transform="translate(559.028 278)">迷失</text><text fill="#000000" fill-opacity="1" font-family="SimSun,SimSun_MSFontService,Arial" font-style="normal" font-variant="normal" font-weight="400" font-stretch="normal" font-size="37" text-anchor="start" direction="ltr" writing-mode="lr-tb" unicode-bidi="normal" text-decoration="none" transform="translate(559.028 338)">黏着</text><path d="M57.4999 422.5C57.4999 414.768 63.7679 408.5 71.5 408.5L264.5 408.5C272.232 408.5 278.5 414.768 278.5 422.5L278.5 534.5C278.5 542.232 272.232 548.5 264.5 548.5L71.5 548.5C63.7679 548.5 57.4999 542.232 57.4999 534.5Z" stroke="#FFFFFF" stroke-width="4.58333" stroke-linecap="butt" stroke-linejoin="miter" stroke-miterlimit="8" stroke-opacity="1" fill="#4EA72E" fill-rule="evenodd" fill-opacity="1"/><path d="M82.5 445.5C82.5 437.768 88.768 431.5 96.5 431.5L288.5 431.5C296.232 431.5 302.5 437.768 302.5 445.5L302.5 557.5C302.5 565.232 296.232 571.5 288.5 571.5L96.5 571.5C88.768 571.5 82.5 565.232 82.5 557.5Z" stroke="#4EA72E" stroke-width="4.58333" stroke-linecap="butt" stroke-linejoin="miter" stroke-miterlimit="8" stroke-opacity="1" fill="#FFFFFF" fill-rule="evenodd" fill-opacity="0.901961"/><text fill="#000000" fill-opacity="1" font-family="SimSun,SimSun_MSFontService,Arial" font-style="normal" font-variant="normal" font-weight="400" font-stretch="normal" font-size="37" text-anchor="start" direction="ltr" writing-mode="lr-tb" unicode-bidi="normal" text-decoration="none" transform="translate(155.236 482)">内与</text><text fill="#000000" fill-opacity="1" font-family="SimSun,SimSun_MSFontService,Arial" font-style="normal" font-variant="normal" font-weight="400" font-stretch="normal" font-size="37" text-anchor="start" direction="ltr" writing-mode="lr-tb" unicode-bidi="normal" text-decoration="none" transform="translate(173.569 542)">外</text><path d="M327.5 422.5C327.5 414.768 333.768 408.5 341.5 408.5L533.5 408.5C541.232 408.5 547.5 414.768 547.5 422.5L547.5 534.5C547.5 542.232 541.232 548.5 533.5 548.5L341.5 548.5C333.768 548.5 327.5 542.232 327.5 534.5Z" stroke="#FFFFFF" stroke-width="4.58333" stroke-linecap="butt" stroke-linejoin="miter" stroke-miterlimit="8" stroke-opacity="1" fill="#4EA72E" fill-rule="evenodd" fill-opacity="1"/><path d="M351.5 445.5C351.5 437.768 357.768 431.5 365.5 431.5L557.5 431.5C565.232 431.5 571.5 437.768 571.5 445.5L571.5 557.5C571.5 565.232 565.232 571.5 557.5 571.5L365.5 571.5C357.768 571.5 351.5 565.232 351.5 557.5Z" stroke="#4EA72E" stroke-width="4.58333" stroke-linecap="butt" stroke-linejoin="miter" stroke-miterlimit="8" stroke-opacity="1" fill="#FFFFFF" fill-rule="evenodd" fill-opacity="0.901961"/><text fill="#000000" fill-opacity="1" font-family="SimSun,SimSun_MSFontService,Arial" font-style="normal" font-variant="normal" font-weight="400" font-stretch="normal" font-size="37" text-anchor="start" direction="ltr" writing-mode="lr-tb" unicode-bidi="normal" text-decoration="none" transform="translate(406.097 482)">紧盯与</text><text fill="#000000" fill-opacity="1" font-family="SimSun,SimSun_MSFontService,Arial" font-style="normal" font-variant="normal" font-weight="400" font-stretch="normal" font-size="37" text-anchor="start" direction="ltr" writing-mode="lr-tb" unicode-bidi="normal" text-decoration="none" transform="translate(424.43 542)">散乱</text><path d="M596.5 422.5C596.5 414.768 602.768 408.5 610.5 408.5L802.5 408.5C810.232 408.5 816.5 414.768 816.5 422.5L816.5 534.5C816.5 542.232 810.232 548.5 802.5 548.5L610.5 548.5C602.768 548.5 596.5 542.232 596.5 534.5Z" stroke="#FFFFFF" stroke-width="4.58333" stroke-linecap="butt" stroke-linejoin="miter" stroke-miterlimit="8" stroke-opacity="1" fill="#4EA72E" fill-rule="evenodd" fill-opacity="1"/><path d="M620.5 445.5C620.5 437.768 626.768 431.5 634.5 431.5L826.5 431.5C834.232 431.5 840.5 437.768 840.5 445.5L840.5 557.5C840.5 565.232 834.232 571.5 826.5 571.5L634.5 571.5C626.768 571.5 620.5 565.232 620.5 557.5Z" stroke="#4EA72E" stroke-width="4.58333" stroke-linecap="butt" stroke-linejoin="miter" stroke-miterlimit="8" stroke-opacity="1" fill="#FFFFFF" fill-rule="evenodd" fill-opacity="0.901961"/><text fill="#000000" fill-opacity="1" font-family="SimSun,SimSun_MSFontService,Arial" font-style="normal" font-variant="normal" font-weight="400" font-stretch="normal" font-size="37" text-anchor="start" direction="ltr" writing-mode="lr-tb" unicode-bidi="normal" text-decoration="none" transform="translate(675.291 482)">改造与</text><text fill="#000000" fill-opacity="1" font-family="SimSun,SimSun_MSFontService,Arial" font-style="normal" font-variant="normal" font-weight="400" font-stretch="normal" font-size="37" text-anchor="start" direction="ltr" writing-mode="lr-tb" unicode-bidi="normal" text-decoration="none" transform="translate(693.625 542)">放纵</text><path d="M865.5 422.5C865.5 414.768 871.768 408.5 879.5 408.5L1071.5 408.5C1079.23 408.5 1085.5 414.768 1085.5 422.5L1085.5 534.5C1085.5 542.232 1079.23 548.5 1071.5 548.5L879.5 548.5C871.768 548.5 865.5 542.232 865.5 534.5Z" stroke="#FFFFFF" stroke-width="4.58333" stroke-linecap="butt" stroke-linejoin="miter" stroke-miterlimit="8" stroke-opacity="1" fill="#4EA72E" fill-rule="evenodd" fill-opacity="1"/><path d="M889.5 445.5C889.5 437.768 895.768 431.5 903.5 431.5L1096.5 431.5C1104.23 431.5 1110.5 437.768 1110.5 445.5L1110.5 557.5C1110.5 565.232 1104.23 571.5 1096.5 571.5L903.5 571.5C895.768 571.5 889.5 565.232 889.5 557.5Z" stroke="#4EA72E" stroke-width="4.58333" stroke-linecap="butt" stroke-linejoin="miter" stroke-miterlimit="8" stroke-opacity="1" fill="#FFFFFF" fill-rule="evenodd" fill-opacity="0.901961"/><text fill="#000000" fill-opacity="1" font-family="SimSun,SimSun_MSFontService,Arial" font-style="normal" font-variant="normal" font-weight="400" font-stretch="normal" font-size="37" text-anchor="start" direction="ltr" writing-mode="lr-tb" unicode-bidi="normal" text-decoration="none" transform="translate(944.486 482)">宁静与</text><text fill="#000000" fill-opacity="1" font-family="SimSun,SimSun_MSFontService,Arial" font-style="normal" font-variant="normal" font-weight="400" font-stretch="normal" font-size="37" text-anchor="start" direction="ltr" writing-mode="lr-tb" unicode-bidi="normal" text-decoration="none" transform="translate(926.152 542)">思维造作</text><path d="M730.5 218.5C730.5 210.768 736.768 204.5 744.5 204.5L937.5 204.5C945.232 204.5 951.5 210.768 951.5 218.5L951.5 330.5C951.5 338.232 945.232 344.5 937.5 344.5L744.5 344.5C736.768 344.5 730.5 338.232 730.5 330.5Z" stroke="#FFFFFF" stroke-width="4.58333" stroke-linecap="butt" stroke-linejoin="miter" stroke-miterlimit="8" stroke-opacity="1" fill="#A02B93" fill-rule="evenodd" fill-opacity="1"/><path d="M755.5 241.5C755.5 233.768 761.768 227.5 769.5 227.5L961.5 227.5C969.232 227.5 975.5 233.768 975.5 241.5L975.5 353.5C975.5 361.232 969.232 367.5 961.5 367.5L769.5 367.5C761.768 367.5 755.5 361.232 755.5 353.5Z" stroke="#A02B93" stroke-width="4.58333" stroke-linecap="butt" stroke-linejoin="miter" stroke-miterlimit="8" stroke-opacity="1" fill="#FFFFFF" fill-rule="evenodd" fill-opacity="0.901961"/><text fill="#000000" fill-opacity="1" font-family="SimSun,SimSun_MSFontService,Arial" font-style="normal" font-variant="normal" font-weight="400" font-stretch="normal" font-size="37" text-anchor="start" direction="ltr" writing-mode="lr-tb" unicode-bidi="normal" text-decoration="none" transform="translate(828.222 278)">觉知</text><text fill="#000000" fill-opacity="1" font-family="SimSun,SimSun_MSFontService,Arial" font-style="normal" font-variant="normal" font-weight="400" font-stretch="normal" font-size="37" text-anchor="start" direction="ltr" writing-mode="lr-tb" unicode-bidi="normal" text-decoration="none" transform="translate(828.222 338)">旁观</text></g></g></svg>