<svg width="1183" height="317" xmlns="http://www.w3.org/2000/svg" xmlns:xlink="http://www.w3.org/1999/xlink" xml:space="preserve" overflow="hidden"><g transform="translate(-1608 -1122)"><g><path d="M2017.5 1137.8C2017.5 1133.77 2020.77 1130.5 2024.8 1130.5L2376.2 1130.5C2380.23 1130.5 2383.5 1133.77 2383.5 1137.8L2383.5 1196.2C2383.5 1200.23 2380.23 1203.5 2376.2 1203.5L2024.8 1203.5C2020.77 1203.5 2017.5 1200.23 2017.5 1196.2Z" stroke="#FFFFFF" stroke-width="6.875" stroke-linecap="butt" stroke-linejoin="miter" stroke-miterlimit="8" stroke-opacity="1" fill="#A02B93" fill-rule="evenodd" fill-opacity="1"/><text fill="#FFFFFF" fill-opacity="1" font-family="SimSun,SimSun_MSFontService,Arial" font-style="normal" font-variant="normal" font-weight="700" font-stretch="normal" font-size="37" text-anchor="start" direction="ltr" writing-mode="lr-tb" unicode-bidi="normal" text-decoration="none" transform="translate(2034.38 1177)">十二因缘与三世因果</text><path d="M2200.86 1203 2200.86 1213.16 1705.5 1213.16 1705.5 1223.32" stroke="#A02B93" stroke-width="6.875" stroke-linecap="butt" stroke-linejoin="miter" stroke-miterlimit="8" stroke-opacity="1" fill="none" fill-rule="evenodd"/><path d="M1667.5 1228.6C1667.5 1225.78 1669.78 1223.5 1672.6 1223.5L1738.4 1223.5C1741.22 1223.5 1743.5 1225.78 1743.5 1228.6L1743.5 1269.4C1743.5 1272.22 1741.22 1274.5 1738.4 1274.5L1672.6 1274.5C1669.78 1274.5 1667.5 1272.22 1667.5 1269.4Z" stroke="#FFFFFF" stroke-width="6.875" stroke-linecap="butt" stroke-linejoin="miter" stroke-miterlimit="8" stroke-opacity="1" fill="#3A3A3A" fill-rule="evenodd" fill-opacity="1"/><text fill="#FFFFFF" fill-opacity="1" font-family="SimSun,SimSun_MSFontService,Arial" font-style="normal" font-variant="normal" font-weight="700" font-stretch="normal" font-size="28" text-anchor="start" direction="ltr" writing-mode="lr-tb" unicode-bidi="normal" text-decoration="none" transform="translate(1677.03 1256)">过去</text><path d="M1705.04 1274 1705.04 1284.16 1655.5 1284.16 1655.5 1294.32" stroke="#747474" stroke-width="6.875" stroke-linecap="butt" stroke-linejoin="miter" stroke-miterlimit="8" stroke-opacity="1" fill="none" fill-rule="evenodd"/><path d="M1617.5 1299.6C1617.5 1296.78 1619.78 1294.5 1622.6 1294.5L1688.4 1294.5C1691.22 1294.5 1693.5 1296.78 1693.5 1299.6L1693.5 1340.4C1693.5 1343.22 1691.22 1345.5 1688.4 1345.5L1622.6 1345.5C1619.78 1345.5 1617.5 1343.22 1617.5 1340.4Z" stroke="#FFFFFF" stroke-width="6.875" stroke-linecap="butt" stroke-linejoin="miter" stroke-miterlimit="8" stroke-opacity="1" fill="#747474" fill-rule="evenodd" fill-opacity="1"/><text fill="#FFFFFF" fill-opacity="1" font-family="SimSun,SimSun_MSFontService,Arial" font-style="normal" font-variant="normal" font-weight="700" font-stretch="normal" font-size="28" text-anchor="start" direction="ltr" writing-mode="lr-tb" unicode-bidi="normal" text-decoration="none" transform="translate(1627.49 1327)">无明</text><path d="M1705.5 1274 1705.5 1284.16 1755.04 1284.16 1755.04 1294.32" stroke="#747474" stroke-width="6.875" stroke-linecap="butt" stroke-linejoin="miter" stroke-miterlimit="8" stroke-opacity="1" fill="none" fill-rule="evenodd"/><path d="M1716.5 1299.6C1716.5 1296.78 1718.78 1294.5 1721.6 1294.5L1787.4 1294.5C1790.22 1294.5 1792.5 1296.78 1792.5 1299.6L1792.5 1340.4C1792.5 1343.22 1790.22 1345.5 1787.4 1345.5L1721.6 1345.5C1718.78 1345.5 1716.5 1343.22 1716.5 1340.4Z" stroke="#FFFFFF" stroke-width="6.875" stroke-linecap="butt" stroke-linejoin="miter" stroke-miterlimit="8" stroke-opacity="1" fill="#747474" fill-rule="evenodd" fill-opacity="1"/><text fill="#FFFFFF" fill-opacity="1" font-family="SimSun,SimSun_MSFontService,Arial" font-style="normal" font-variant="normal" font-weight="700" font-stretch="normal" font-size="28" text-anchor="start" direction="ltr" writing-mode="lr-tb" unicode-bidi="normal" text-decoration="none" transform="translate(1740.37 1327)">行</text><path d="M2201 1203 2201 1223.32" stroke="#0F9ED5" stroke-width="6.875" stroke-linecap="butt" stroke-linejoin="miter" stroke-miterlimit="8" stroke-opacity="1" fill="none" fill-rule="evenodd"/><path d="M2162.5 1228.6C2162.5 1225.78 2164.78 1223.5 2167.6 1223.5L2233.4 1223.5C2236.22 1223.5 2238.5 1225.78 2238.5 1228.6L2238.5 1269.4C2238.5 1272.22 2236.22 1274.5 2233.4 1274.5L2167.6 1274.5C2164.78 1274.5 2162.5 1272.22 2162.5 1269.4Z" stroke="#FFFFFF" stroke-width="6.875" stroke-linecap="butt" stroke-linejoin="miter" stroke-miterlimit="8" stroke-opacity="1" fill="#196B24" fill-rule="evenodd" fill-opacity="1"/><text fill="#FFFFFF" fill-opacity="1" font-family="SimSun,SimSun_MSFontService,Arial" font-style="normal" font-variant="normal" font-weight="700" font-stretch="normal" font-size="28" text-anchor="start" direction="ltr" writing-mode="lr-tb" unicode-bidi="normal" text-decoration="none" transform="translate(2172.38 1256)">现在</text><path d="M2200.25 1274 2200.25 1284.16 1853.5 1284.16 1853.5 1294.32" stroke="#4EA72E" stroke-width="6.875" stroke-linecap="butt" stroke-linejoin="miter" stroke-miterlimit="8" stroke-opacity="1" fill="none" fill-rule="evenodd"/><path d="M1815.5 1299.6C1815.5 1296.78 1817.78 1294.5 1820.6 1294.5L1886.4 1294.5C1889.22 1294.5 1891.5 1296.78 1891.5 1299.6L1891.5 1340.4C1891.5 1343.22 1889.22 1345.5 1886.4 1345.5L1820.6 1345.5C1817.78 1345.5 1815.5 1343.22 1815.5 1340.4Z" stroke="#FFFFFF" stroke-width="6.875" stroke-linecap="butt" stroke-linejoin="miter" stroke-miterlimit="8" stroke-opacity="1" fill="#4EA72E" fill-rule="evenodd" fill-opacity="1"/><text fill="#FFFFFF" fill-opacity="1" font-family="SimSun,SimSun_MSFontService,Arial" font-style="normal" font-variant="normal" font-weight="700" font-stretch="normal" font-size="28" text-anchor="start" direction="ltr" writing-mode="lr-tb" unicode-bidi="normal" text-decoration="none" transform="translate(1839.44 1327)">识</text><path d="M2200.18 1274 2200.18 1284.16 1952.5 1284.16 1952.5 1294.32" stroke="#4EA72E" stroke-width="6.875" stroke-linecap="butt" stroke-linejoin="miter" stroke-miterlimit="8" stroke-opacity="1" fill="none" fill-rule="evenodd"/><path d="M1914.5 1299.6C1914.5 1296.78 1916.78 1294.5 1919.6 1294.5L1985.4 1294.5C1988.22 1294.5 1990.5 1296.78 1990.5 1299.6L1990.5 1340.4C1990.5 1343.22 1988.22 1345.5 1985.4 1345.5L1919.6 1345.5C1916.78 1345.5 1914.5 1343.22 1914.5 1340.4Z" stroke="#FFFFFF" stroke-width="6.875" stroke-linecap="butt" stroke-linejoin="miter" stroke-miterlimit="8" stroke-opacity="1" fill="#4EA72E" fill-rule="evenodd" fill-opacity="1"/><text fill="#FFFFFF" fill-opacity="1" font-family="SimSun,SimSun_MSFontService,Arial" font-style="normal" font-variant="normal" font-weight="700" font-stretch="normal" font-size="28" text-anchor="start" direction="ltr" writing-mode="lr-tb" unicode-bidi="normal" text-decoration="none" transform="translate(1924.71 1327)">名色</text><path d="M2200.11 1274 2200.11 1284.16 2051.5 1284.16 2051.5 1294.32" stroke="#4EA72E" stroke-width="6.875" stroke-linecap="butt" stroke-linejoin="miter" stroke-miterlimit="8" stroke-opacity="1" fill="none" fill-rule="evenodd"/><path d="M2013.5 1299.6C2013.5 1296.78 2015.78 1294.5 2018.6 1294.5L2084.4 1294.5C2087.22 1294.5 2089.5 1296.78 2089.5 1299.6L2089.5 1340.4C2089.5 1343.22 2087.22 1345.5 2084.4 1345.5L2018.6 1345.5C2015.78 1345.5 2013.5 1343.22 2013.5 1340.4Z" stroke="#FFFFFF" stroke-width="6.875" stroke-linecap="butt" stroke-linejoin="miter" stroke-miterlimit="8" stroke-opacity="1" fill="#4EA72E" fill-rule="evenodd" fill-opacity="1"/><text fill="#FFFFFF" fill-opacity="1" font-family="SimSun,SimSun_MSFontService,Arial" font-style="normal" font-variant="normal" font-weight="700" font-stretch="normal" font-size="28" text-anchor="start" direction="ltr" writing-mode="lr-tb" unicode-bidi="normal" text-decoration="none" transform="translate(2023.78 1327)">六入</text><path d="M2200.04 1274 2200.04 1284.16 2150.5 1284.16 2150.5 1294.32" stroke="#4EA72E" stroke-width="6.875" stroke-linecap="butt" stroke-linejoin="miter" stroke-miterlimit="8" stroke-opacity="1" fill="none" fill-rule="evenodd"/><path d="M2112.5 1299.6C2112.5 1296.78 2114.78 1294.5 2117.6 1294.5L2184.4 1294.5C2187.22 1294.5 2189.5 1296.78 2189.5 1299.6L2189.5 1340.4C2189.5 1343.22 2187.22 1345.5 2184.4 1345.5L2117.6 1345.5C2114.78 1345.5 2112.5 1343.22 2112.5 1340.4Z" stroke="#FFFFFF" stroke-width="6.875" stroke-linecap="butt" stroke-linejoin="miter" stroke-miterlimit="8" stroke-opacity="1" fill="#4EA72E" fill-rule="evenodd" fill-opacity="1"/><text fill="#FFFFFF" fill-opacity="1" font-family="SimSun,SimSun_MSFontService,Arial" font-style="normal" font-variant="normal" font-weight="700" font-stretch="normal" font-size="28" text-anchor="start" direction="ltr" writing-mode="lr-tb" unicode-bidi="normal" text-decoration="none" transform="translate(2136.66 1327)">触</text><path d="M2200.5 1274 2200.5 1284.16 2250.04 1284.16 2250.04 1294.32" stroke="#4EA72E" stroke-width="6.875" stroke-linecap="butt" stroke-linejoin="miter" stroke-miterlimit="8" stroke-opacity="1" fill="none" fill-rule="evenodd"/><path d="M2211.5 1299.6C2211.5 1296.78 2213.78 1294.5 2216.6 1294.5L2283.4 1294.5C2286.22 1294.5 2288.5 1296.78 2288.5 1299.6L2288.5 1340.4C2288.5 1343.22 2286.22 1345.5 2283.4 1345.5L2216.6 1345.5C2213.78 1345.5 2211.5 1343.22 2211.5 1340.4Z" stroke="#FFFFFF" stroke-width="6.875" stroke-linecap="butt" stroke-linejoin="miter" stroke-miterlimit="8" stroke-opacity="1" fill="#4EA72E" fill-rule="evenodd" fill-opacity="1"/><text fill="#FFFFFF" fill-opacity="1" font-family="SimSun,SimSun_MSFontService,Arial" font-style="normal" font-variant="normal" font-weight="700" font-stretch="normal" font-size="28" text-anchor="start" direction="ltr" writing-mode="lr-tb" unicode-bidi="normal" text-decoration="none" transform="translate(2235.73 1327)">受</text><path d="M2200.5 1274 2200.5 1284.16 2349.11 1284.16 2349.11 1294.32" stroke="#4496AA" stroke-width="6.875" stroke-linecap="butt" stroke-linejoin="miter" stroke-miterlimit="8" stroke-opacity="1" fill="none" fill-rule="evenodd"/><path d="M2311.5 1299.6C2311.5 1296.78 2313.78 1294.5 2316.6 1294.5L2382.4 1294.5C2385.22 1294.5 2387.5 1296.78 2387.5 1299.6L2387.5 1340.4C2387.5 1343.22 2385.22 1345.5 2382.4 1345.5L2316.6 1345.5C2313.78 1345.5 2311.5 1343.22 2311.5 1340.4Z" stroke="#FFFFFF" stroke-width="6.875" stroke-linecap="butt" stroke-linejoin="miter" stroke-miterlimit="8" stroke-opacity="1" fill="#4EA72E" fill-rule="evenodd" fill-opacity="1"/><text fill="#FFFFFF" fill-opacity="1" font-family="SimSun,SimSun_MSFontService,Arial" font-style="normal" font-variant="normal" font-weight="700" font-stretch="normal" font-size="28" text-anchor="start" direction="ltr" writing-mode="lr-tb" unicode-bidi="normal" text-decoration="none" transform="translate(2334.8 1327)">爱</text><path d="M2200.5 1274 2200.5 1284.16 2448.18 1284.16 2448.18 1294.32" stroke="#4EA72E" stroke-width="6.875" stroke-linecap="butt" stroke-linejoin="miter" stroke-miterlimit="8" stroke-opacity="1" fill="none" fill-rule="evenodd"/><path d="M2410.5 1299.6C2410.5 1296.78 2412.78 1294.5 2415.6 1294.5L2481.4 1294.5C2484.22 1294.5 2486.5 1296.78 2486.5 1299.6L2486.5 1340.4C2486.5 1343.22 2484.22 1345.5 2481.4 1345.5L2415.6 1345.5C2412.78 1345.5 2410.5 1343.22 2410.5 1340.4Z" stroke="#FFFFFF" stroke-width="6.875" stroke-linecap="butt" stroke-linejoin="miter" stroke-miterlimit="8" stroke-opacity="1" fill="#4EA72E" fill-rule="evenodd" fill-opacity="1"/><text fill="#FFFFFF" fill-opacity="1" font-family="SimSun,SimSun_MSFontService,Arial" font-style="normal" font-variant="normal" font-weight="700" font-stretch="normal" font-size="28" text-anchor="start" direction="ltr" writing-mode="lr-tb" unicode-bidi="normal" text-decoration="none" transform="translate(2433.87 1327)">取</text><path d="M2200.5 1274 2200.5 1284.16 2547.25 1284.16 2547.25 1294.32" stroke="#4EA72E" stroke-width="6.875" stroke-linecap="butt" stroke-linejoin="miter" stroke-miterlimit="8" stroke-opacity="1" fill="none" fill-rule="evenodd"/><path d="M2509.5 1299.6C2509.5 1296.78 2511.78 1294.5 2514.6 1294.5L2580.4 1294.5C2583.22 1294.5 2585.5 1296.78 2585.5 1299.6L2585.5 1340.4C2585.5 1343.22 2583.22 1345.5 2580.4 1345.5L2514.6 1345.5C2511.78 1345.5 2509.5 1343.22 2509.5 1340.4Z" stroke="#FFFFFF" stroke-width="6.875" stroke-linecap="butt" stroke-linejoin="miter" stroke-miterlimit="8" stroke-opacity="1" fill="#4EA72E" fill-rule="evenodd" fill-opacity="1"/><text fill="#FFFFFF" fill-opacity="1" font-family="SimSun,SimSun_MSFontService,Arial" font-style="normal" font-variant="normal" font-weight="700" font-stretch="normal" font-size="28" text-anchor="start" direction="ltr" writing-mode="lr-tb" unicode-bidi="normal" text-decoration="none" transform="translate(2532.94 1327)">有</text><path d="M2200.5 1203 2200.5 1213.16 2695.86 1213.16 2695.86 1223.32" stroke="#A02B93" stroke-width="6.875" stroke-linecap="butt" stroke-linejoin="miter" stroke-miterlimit="8" stroke-opacity="1" fill="none" fill-rule="evenodd"/><path d="M2657.5 1228.6C2657.5 1225.78 2659.78 1223.5 2662.6 1223.5L2728.4 1223.5C2731.22 1223.5 2733.5 1225.78 2733.5 1228.6L2733.5 1269.4C2733.5 1272.22 2731.22 1274.5 2728.4 1274.5L2662.6 1274.5C2659.78 1274.5 2657.5 1272.22 2657.5 1269.4Z" stroke="#FFFFFF" stroke-width="6.875" stroke-linecap="butt" stroke-linejoin="miter" stroke-miterlimit="8" stroke-opacity="1" fill="#80350E" fill-rule="evenodd" fill-opacity="1"/><text fill="#FFFFFF" fill-opacity="1" font-family="SimSun,SimSun_MSFontService,Arial" font-style="normal" font-variant="normal" font-weight="700" font-stretch="normal" font-size="28" text-anchor="start" direction="ltr" writing-mode="lr-tb" unicode-bidi="normal" text-decoration="none" transform="translate(2667.74 1256)">未来</text><path d="M2696.04 1274 2696.04 1284.16 2646.5 1284.16 2646.5 1294.32" stroke="#CE7F3D" stroke-width="6.875" stroke-linecap="butt" stroke-linejoin="miter" stroke-miterlimit="8" stroke-opacity="1" fill="none" fill-rule="evenodd"/><path d="M2608.5 1299.6C2608.5 1296.78 2610.78 1294.5 2613.6 1294.5L2679.4 1294.5C2682.22 1294.5 2684.5 1296.78 2684.5 1299.6L2684.5 1340.4C2684.5 1343.22 2682.22 1345.5 2679.4 1345.5L2613.6 1345.5C2610.78 1345.5 2608.5 1343.22 2608.5 1340.4Z" stroke="#FFFFFF" stroke-width="6.875" stroke-linecap="butt" stroke-linejoin="miter" stroke-miterlimit="8" stroke-opacity="1" fill="#CE7F3D" fill-rule="evenodd" fill-opacity="1"/><text fill="#FFFFFF" fill-opacity="1" font-family="SimSun,SimSun_MSFontService,Arial" font-style="normal" font-variant="normal" font-weight="700" font-stretch="normal" font-size="28" text-anchor="start" direction="ltr" writing-mode="lr-tb" unicode-bidi="normal" text-decoration="none" transform="translate(2632.01 1327)">生</text><path d="M2695.5 1274 2695.5 1284.16 2745.04 1284.16 2745.04 1294.32" stroke="#CE7F3D" stroke-width="6.875" stroke-linecap="butt" stroke-linejoin="miter" stroke-miterlimit="8" stroke-opacity="1" fill="none" fill-rule="evenodd"/><path d="M2707.5 1299.6C2707.5 1296.78 2709.78 1294.5 2712.6 1294.5L2778.4 1294.5C2781.22 1294.5 2783.5 1296.78 2783.5 1299.6L2783.5 1340.4C2783.5 1343.22 2781.22 1345.5 2778.4 1345.5L2712.6 1345.5C2709.78 1345.5 2707.5 1343.22 2707.5 1340.4Z" stroke="#FFFFFF" stroke-width="6.875" stroke-linecap="butt" stroke-linejoin="miter" stroke-miterlimit="8" stroke-opacity="1" fill="#CE7F3D" fill-rule="evenodd" fill-opacity="1"/><text fill="#FFFFFF" fill-opacity="1" font-family="SimSun,SimSun_MSFontService,Arial" font-style="normal" font-variant="normal" font-weight="700" font-stretch="normal" font-size="28" text-anchor="start" direction="ltr" writing-mode="lr-tb" unicode-bidi="normal" text-decoration="none" transform="translate(2717.28 1327)">老死</text><path d="M2252.5 1348.5C2252.5 1357.34 2251.9 1364.5 2251.17 1364.5L1856.83 1364.5C1856.1 1364.5 1855.5 1357.34 1855.5 1348.5" stroke="#CE7F3D" stroke-width="4.58333" stroke-linecap="butt" stroke-linejoin="bevel" stroke-miterlimit="10" stroke-opacity="1" fill="none" fill-rule="evenodd"/><text fill="#CE7F3D" fill-opacity="1" font-family="SimSong,SimSong_MSFontService,Arial" font-style="normal" font-variant="normal" font-weight="700" font-stretch="normal" font-size="37" text-anchor="start" direction="ltr" writing-mode="lr-tb" unicode-bidi="normal" text-decoration="none" transform="translate(2032.71 1409)">果</text><text fill="#4EA72E" fill-opacity="1" font-family="SimSong,SimSong_MSFontService,Arial" font-style="normal" font-variant="normal" font-weight="700" font-stretch="normal" font-size="37" text-anchor="start" direction="ltr" writing-mode="lr-tb" unicode-bidi="normal" text-decoration="none" transform="translate(1686.21 1409)">因</text><text fill="#4EA72E" fill-opacity="1" font-family="SimSong,SimSong_MSFontService,Arial" font-style="normal" font-variant="normal" font-weight="700" font-stretch="normal" font-size="37" text-anchor="start" direction="ltr" writing-mode="lr-tb" unicode-bidi="normal" text-decoration="none" transform="translate(2431.46 1409)">因</text><text fill="#CE7F3D" fill-opacity="1" font-family="SimSong,SimSong_MSFontService,Arial" font-style="normal" font-variant="normal" font-weight="700" font-stretch="normal" font-size="37" text-anchor="start" direction="ltr" writing-mode="lr-tb" unicode-bidi="normal" text-decoration="none" transform="translate(2678.04 1409)">果</text><path d="M1755.5 1347.5C1755.5 1356.89 1754.87 1364.5 1754.08 1364.5L1655.92 1364.5C1655.13 1364.5 1654.5 1356.89 1654.5 1347.5" stroke="#4EA72E" stroke-width="4.58333" stroke-linecap="butt" stroke-linejoin="bevel" stroke-miterlimit="10" stroke-opacity="1" fill="none" fill-rule="evenodd"/><path d="M2550.5 1348.5C2550.5 1357.34 2549.9 1364.5 2549.17 1364.5L2347.83 1364.5C2347.1 1364.5 2346.5 1357.34 2346.5 1348.5" stroke="#4EA72E" stroke-width="4.58333" stroke-linecap="butt" stroke-linejoin="bevel" stroke-miterlimit="10" stroke-opacity="1" fill="none" fill-rule="evenodd"/><path d="M2746.5 1349.5C2746.5 1358.89 2745.87 1366.5 2745.08 1366.5L2647.92 1366.5C2647.13 1366.5 2646.5 1358.89 2646.5 1349.5" stroke="#CE7F3D" stroke-width="4.58333" stroke-linecap="butt" stroke-linejoin="bevel" stroke-miterlimit="10" stroke-opacity="1" fill="none" fill-rule="evenodd"/></g></g></svg>