<svg width="1177" height="164" xmlns="http://www.w3.org/2000/svg" xmlns:xlink="http://www.w3.org/1999/xlink" xml:space="preserve" overflow="hidden"><g transform="translate(4 4)"><g><path d="M1.49987 15.2999C1.49987 7.12606 8.12608 0.499836 16.2999 0.499836L293.7 0.499836C301.874 0.499836 308.5 7.12606 308.5 15.2999L308.5 133.7C308.5 141.874 301.874 148.5 293.7 148.5L16.2999 148.5C8.12608 148.5 1.49987 141.874 1.49987 133.7Z" stroke="#FFFFFF" stroke-width="4.58333" stroke-linecap="butt" stroke-linejoin="miter" stroke-miterlimit="8" stroke-opacity="1" fill="#E97132" fill-rule="evenodd" fill-opacity="1"/><text fill="#FFFFFF" fill-opacity="1" font-family="SimSun,SimSun_MSFontService,Arial" font-style="normal" font-variant="normal" font-weight="400" font-stretch="normal" font-size="46" text-anchor="start" direction="ltr" writing-mode="lr-tb" unicode-bidi="normal" text-decoration="none" transform="translate(39.7135 60)">思维造作出</text><text fill="#FFFFFF" fill-opacity="1" font-family="SimSun,SimSun_MSFontService,Arial" font-style="normal" font-variant="normal" font-weight="400" font-stretch="normal" font-size="46" text-anchor="start" direction="ltr" writing-mode="lr-tb" unicode-bidi="normal" text-decoration="none" transform="translate(108.463 114)">时间</text><path d="M338 51.2001 370.5 51.2001 370.5 36.0001 403 74.0001 370.5 112 370.5 96.8001 338 96.8001Z" fill="#E97132" fill-rule="evenodd" fill-opacity="1"/><path d="M430.5 15.2999C430.5 7.12606 437.126 0.499836 445.3 0.499836L722.7 0.499836C730.874 0.499836 737.5 7.12606 737.5 15.2999L737.5 133.7C737.5 141.874 730.874 148.5 722.7 148.5L445.3 148.5C437.126 148.5 430.5 141.874 430.5 133.7Z" stroke="#FFFFFF" stroke-width="4.58333" stroke-linecap="butt" stroke-linejoin="miter" stroke-miterlimit="8" stroke-opacity="1" fill="#196B24" fill-rule="evenodd" fill-opacity="1"/><text fill="#FFFFFF" fill-opacity="1" font-family="SimSun,SimSun_MSFontService,Arial" font-style="normal" font-variant="normal" font-weight="400" font-stretch="normal" font-size="46" text-anchor="start" direction="ltr" writing-mode="lr-tb" unicode-bidi="normal" text-decoration="none" transform="translate(468.874 60)">在时间中安</text><text fill="#FFFFFF" fill-opacity="1" font-family="SimSun,SimSun_MSFontService,Arial" font-style="normal" font-variant="normal" font-weight="400" font-stretch="normal" font-size="46" text-anchor="start" direction="ltr" writing-mode="lr-tb" unicode-bidi="normal" text-decoration="none" transform="translate(514.708 114)">立自我</text><path d="M767 51.2001 799.5 51.2001 799.5 36.0001 832 74.0001 799.5 112 799.5 96.8001 767 96.8001Z" fill="#196B24" fill-rule="evenodd" fill-opacity="1"/><path d="M859.5 15.2999C859.5 7.12606 866.126 0.499836 874.3 0.499836L1151.7 0.499836C1159.87 0.499836 1166.5 7.12606 1166.5 15.2999L1166.5 133.7C1166.5 141.874 1159.87 148.5 1151.7 148.5L874.3 148.5C866.126 148.5 859.5 141.874 859.5 133.7Z" stroke="#FFFFFF" stroke-width="4.58333" stroke-linecap="butt" stroke-linejoin="miter" stroke-miterlimit="8" stroke-opacity="1" fill="#0F9ED5" fill-rule="evenodd" fill-opacity="1"/><text fill="#FFFFFF" fill-opacity="1" font-family="SimSun,SimSun_MSFontService,Arial" font-style="normal" font-variant="normal" font-weight="400" font-stretch="normal" font-size="46" text-anchor="start" direction="ltr" writing-mode="lr-tb" unicode-bidi="normal" text-decoration="none" transform="translate(898.035 60)">为维护自我</text><text fill="#FFFFFF" fill-opacity="1" font-family="SimSun,SimSun_MSFontService,Arial" font-style="normal" font-variant="normal" font-weight="400" font-stretch="normal" font-size="46" text-anchor="start" direction="ltr" writing-mode="lr-tb" unicode-bidi="normal" text-decoration="none" transform="translate(920.952 114)">而产生苦</text></g></g></svg>