<svg width="1154" height="669" xmlns="http://www.w3.org/2000/svg" xmlns:xlink="http://www.w3.org/1999/xlink" xml:space="preserve" overflow="hidden"><g transform="translate(4 0)"><g><rect x="28.9999" y="35.0001" width="17.0002" height="134" fill="#AACCE7" fill-opacity="1"/><path d="M0 16.8999C-1.44819e-15 10.88 4.88013 5.99984 10.9001 5.99984L171.1 5.99984C177.12 5.99984 182 10.88 182 16.8999L182 104.1C182 110.12 177.12 115 171.1 115L10.9001 115C4.88013 115 0 110.12 0 104.1Z" stroke="#196B24" stroke-width="5.72917" stroke-linecap="butt" stroke-linejoin="miter" stroke-miterlimit="8" stroke-opacity="1" fill="#FFFFFF" fill-rule="evenodd" fill-opacity="1"/><text fill="#C04F15" fill-opacity="1" font-family="SimSun,SimSun_MSFontService,Arial" font-style="normal" font-variant="normal" font-weight="400" font-stretch="normal" font-size="18" text-anchor="start" direction="ltr" writing-mode="lr-tb" unicode-bidi="normal" text-decoration="none" transform="translate(35.8354 36)">生活中感到苦</text><text fill="#C04F15" fill-opacity="1" font-family="SimSun,SimSun_MSFontService,Arial" font-style="normal" font-variant="normal" font-weight="400" font-stretch="normal" font-size="18" text-anchor="start" direction="ltr" writing-mode="lr-tb" unicode-bidi="normal" text-decoration="none" transform="translate(17.502 66)">压力、焦虑、空虚</text><text fill="#196B24" fill-opacity="1" font-family="SimSun,SimSun_MSFontService,Arial" font-style="normal" font-variant="normal" font-weight="700" font-stretch="normal" font-size="18" text-anchor="start" direction="ltr" writing-mode="lr-tb" unicode-bidi="normal" text-decoration="none" transform="translate(49.4249 96)">→</text><text fill="#196B24" fill-opacity="1" font-family="SimSun,SimSun_MSFontService,Arial" font-style="normal" font-variant="normal" font-weight="700" font-stretch="normal" font-size="18" text-anchor="start" direction="ltr" writing-mode="lr-tb" unicode-bidi="normal" text-decoration="none" transform="translate(77.0624 96)">不满意</text><rect x="28.9999" y="171" width="17.0002" height="134" fill="#AACCE7" fill-opacity="1"/><path d="M0 152.9C-1.44819e-15 146.88 4.88013 142 10.9001 142L171.1 142C177.12 142 182 146.88 182 152.9L182 240.1C182 246.12 177.12 251 171.1 251L10.9001 251C4.88013 251 0 246.12 0 240.1Z" stroke="#0F9ED5" stroke-width="5.72917" stroke-linecap="butt" stroke-linejoin="miter" stroke-miterlimit="8" stroke-opacity="1" fill="#FFFFFF" fill-rule="evenodd" fill-opacity="1"/><text fill="#0B76A0" fill-opacity="1" font-family="SimSun,SimSun_MSFontService,Arial" font-style="normal" font-variant="normal" font-weight="400" font-stretch="normal" font-size="18" text-anchor="start" direction="ltr" writing-mode="lr-tb" unicode-bidi="normal" text-decoration="none" transform="translate(72.4905 172)">听说</text><text fill="#0B76A0" fill-opacity="1" font-family="SimSun,SimSun_MSFontService,Arial" font-style="normal" font-variant="normal" font-weight="400" font-stretch="normal" font-size="18" text-anchor="start" direction="ltr" writing-mode="lr-tb" unicode-bidi="normal" text-decoration="none" transform="translate(35.8238 202)">吸烟可以避苦</text><text fill="#0B76A0" fill-opacity="1" font-family="SimSun,SimSun_MSFontService,Arial" font-style="normal" font-variant="normal" font-weight="700" font-stretch="normal" font-size="18" text-anchor="start" direction="ltr" writing-mode="lr-tb" unicode-bidi="normal" text-decoration="none" transform="translate(12.6092 232)">→</text><text fill="#0B76A0" fill-opacity="1" font-family="SimSun,SimSun_MSFontService,Arial" font-style="normal" font-variant="normal" font-weight="700" font-stretch="normal" font-size="18" text-anchor="start" direction="ltr" writing-mode="lr-tb" unicode-bidi="normal" text-decoration="none" transform="translate(40.2467 232)">社会性成瘾洗脑</text><rect x="28.9999" y="307" width="17.0002" height="134" fill="#AACCE7" fill-opacity="1"/><path d="M0 289.8C-1.44819e-15 283.835 4.83531 279 10.8 279L171.2 279C177.165 279 182 283.835 182 289.8L182 376.2C182 382.165 177.165 387 171.2 387L10.8 387C4.83531 387 1.44819e-15 382.165 0 376.2Z" stroke="#A02B93" stroke-width="5.72917" stroke-linecap="butt" stroke-linejoin="miter" stroke-miterlimit="8" stroke-opacity="1" fill="#FFFFFF" fill-rule="evenodd" fill-opacity="1"/><text fill="#A02B93" fill-opacity="1" font-family="SimSun,SimSun_MSFontService,Arial" font-style="normal" font-variant="normal" font-weight="400" font-stretch="normal" font-size="18" text-anchor="start" direction="ltr" writing-mode="lr-tb" unicode-bidi="normal" text-decoration="none" transform="translate(54.1687 308)">不想要苦</text><text fill="#A02B93" fill-opacity="1" font-family="SimSun,SimSun_MSFontService,Arial" font-style="normal" font-variant="normal" font-weight="400" font-stretch="normal" font-size="18" text-anchor="start" direction="ltr" writing-mode="lr-tb" unicode-bidi="normal" text-decoration="none" transform="translate(45.002 338)">吸第一支烟</text><text fill="#A02B93" fill-opacity="1" font-family="SimSun,SimSun_MSFontService,Arial" font-style="normal" font-variant="normal" font-weight="700" font-stretch="normal" font-size="18" text-anchor="start" direction="ltr" writing-mode="lr-tb" unicode-bidi="normal" text-decoration="none" transform="translate(58.6145 368)">→</text><text fill="#A02B93" fill-opacity="1" font-family="SimSun,SimSun_MSFontService,Arial" font-style="normal" font-variant="normal" font-weight="700" font-stretch="normal" font-size="18" text-anchor="start" direction="ltr" writing-mode="lr-tb" unicode-bidi="normal" text-decoration="none" transform="translate(86.252 368)">避害</text><rect x="28.9999" y="443" width="17.0002" height="134" fill="#AACCE7" fill-opacity="1"/><path d="M0 425.9C-1.44819e-15 419.88 4.88013 415 10.9001 415L171.1 415C177.12 415 182 419.88 182 425.9L182 513.1C182 519.12 177.12 524 171.1 524L10.9001 524C4.88013 524 0 519.12 0 513.1Z" stroke="#196B24" stroke-width="5.72917" stroke-linecap="butt" stroke-linejoin="miter" stroke-miterlimit="8" stroke-opacity="1" fill="#FFFFFF" fill-rule="evenodd" fill-opacity="1"/><text fill="#C04F15" fill-opacity="1" font-family="SimSun,SimSun_MSFontService,Arial" font-style="normal" font-variant="normal" font-weight="400" font-stretch="normal" font-size="18" text-anchor="start" direction="ltr" writing-mode="lr-tb" unicode-bidi="normal" text-decoration="none" transform="translate(63.3238 459)">获得乐</text><text fill="#196B24" fill-opacity="1" font-family="SimSun,SimSun_MSFontService,Arial" font-style="normal" font-variant="normal" font-weight="700" font-stretch="normal" font-size="18" text-anchor="start" direction="ltr" writing-mode="lr-tb" unicode-bidi="normal" text-decoration="none" transform="translate(31.0113 489)">→</text><text fill="#196B24" fill-opacity="1" font-family="SimSun,SimSun_MSFontService,Arial" font-style="normal" font-variant="normal" font-weight="700" font-stretch="normal" font-size="18" text-anchor="start" direction="ltr" writing-mode="lr-tb" unicode-bidi="normal" text-decoration="none" transform="translate(58.6488 489)">喜欢、满意</text><rect x="38.0002" y="570" width="240" height="16.0002" fill="#AACCE7" fill-opacity="1"/><path d="M0 561.9C-1.44819e-15 555.88 4.88013 551 10.9001 551L171.1 551C177.12 551 182 555.88 182 561.9L182 649.1C182 655.12 177.12 660 171.1 660L10.9001 660C4.88013 660 0 655.12 0 649.1Z" stroke="#0F9ED5" stroke-width="5.72917" stroke-linecap="butt" stroke-linejoin="miter" stroke-miterlimit="8" stroke-opacity="1" fill="#FFFFFF" fill-rule="evenodd" fill-opacity="1"/><text fill="#0B76A0" fill-opacity="1" font-family="SimSun,SimSun_MSFontService,Arial" font-style="normal" font-variant="normal" font-weight="400" font-stretch="normal" font-size="18" text-anchor="start" direction="ltr" writing-mode="lr-tb" unicode-bidi="normal" text-decoration="none" transform="translate(72.502 581)">相信</text><text fill="#0B76A0" fill-opacity="1" font-family="SimSun,SimSun_MSFontService,Arial" font-style="normal" font-variant="normal" font-weight="400" font-stretch="normal" font-size="18" text-anchor="start" direction="ltr" writing-mode="lr-tb" unicode-bidi="normal" text-decoration="none" transform="translate(35.8354 611)">吸烟能带来乐</text><text fill="#0B76A0" fill-opacity="1" font-family="SimSun,SimSun_MSFontService,Arial" font-style="normal" font-variant="normal" font-weight="700" font-stretch="normal" font-size="18" text-anchor="start" direction="ltr" writing-mode="lr-tb" unicode-bidi="normal" text-decoration="none" transform="translate(21.8104 641)">→</text><text fill="#0B76A0" fill-opacity="1" font-family="SimSun,SimSun_MSFontService,Arial" font-style="normal" font-variant="normal" font-weight="700" font-stretch="normal" font-size="18" text-anchor="start" direction="ltr" writing-mode="lr-tb" unicode-bidi="normal" text-decoration="none" transform="translate(49.4478 641)">自我成瘾洗脑</text><rect x="271" y="443" width="16.0002" height="134" fill="#AACCE7" fill-opacity="1"/><path d="M241.5 562.4C241.5 556.38 246.38 551.5 252.4 551.5L412.6 551.5C418.62 551.5 423.5 556.38 423.5 562.4L423.5 649.6C423.5 655.62 418.62 660.5 412.6 660.5L252.4 660.5C246.38 660.5 241.5 655.62 241.5 649.6Z" stroke="#196B24" stroke-width="4.58333" stroke-linecap="butt" stroke-linejoin="miter" stroke-miterlimit="8" stroke-opacity="1" fill="#FFFFFF" fill-rule="evenodd" fill-opacity="1"/><text fill="#C04F15" fill-opacity="1" font-family="SimSun,SimSun_MSFontService,Arial" font-style="normal" font-variant="normal" font-weight="400" font-stretch="normal" font-size="18" text-anchor="start" direction="ltr" writing-mode="lr-tb" unicode-bidi="normal" text-decoration="none" transform="translate(258.886 581)">生活中再次感到苦</text><text fill="#C04F15" fill-opacity="1" font-family="SimSun,SimSun_MSFontService,Arial" font-style="normal" font-variant="normal" font-weight="400" font-stretch="normal" font-size="18" text-anchor="start" direction="ltr" writing-mode="lr-tb" unicode-bidi="normal" text-decoration="none" transform="translate(258.886 611)">压力、焦虑、空虚</text><text fill="#196B24" fill-opacity="1" font-family="SimSun,SimSun_MSFontService,Arial" font-style="normal" font-variant="normal" font-weight="700" font-stretch="normal" font-size="18" text-anchor="start" direction="ltr" writing-mode="lr-tb" unicode-bidi="normal" text-decoration="none" transform="translate(290.809 641)">→</text><text fill="#196B24" fill-opacity="1" font-family="SimSun,SimSun_MSFontService,Arial" font-style="normal" font-variant="normal" font-weight="700" font-stretch="normal" font-size="18" text-anchor="start" direction="ltr" writing-mode="lr-tb" unicode-bidi="normal" text-decoration="none" transform="translate(318.447 641)">不满意</text><rect x="271" y="307" width="16.0002" height="134" fill="#AACCE7" fill-opacity="1"/><path d="M241 425.9C241 419.88 245.88 415 251.9 415L412.1 415C418.12 415 423 419.88 423 425.9L423 513.1C423 519.12 418.12 524 412.1 524L251.9 524C245.88 524 241 519.12 241 513.1Z" stroke="#A02B93" stroke-width="5.72917" stroke-linecap="butt" stroke-linejoin="miter" stroke-miterlimit="8" stroke-opacity="1" fill="#FFFFFF" fill-rule="evenodd" fill-opacity="1"/><text fill="#0B76A0" fill-opacity="1" font-family="SimSun,SimSun_MSFontService,Arial" font-style="normal" font-variant="normal" font-weight="400" font-stretch="normal" font-size="18" text-anchor="start" direction="ltr" writing-mode="lr-tb" unicode-bidi="normal" text-decoration="none" transform="translate(258.886 445)">回想起吸烟的好处</text><text fill="#A02B93" fill-opacity="1" font-family="SimSun,SimSun_MSFontService,Arial" font-style="normal" font-variant="normal" font-weight="400" font-stretch="normal" font-size="18" text-anchor="start" direction="ltr" writing-mode="lr-tb" unicode-bidi="normal" text-decoration="none" transform="translate(290.97 475)">吸第</text><text fill="#A02B93" fill-opacity="1" font-family="SimSun,SimSun_MSFontService,Arial" font-style="normal" font-variant="normal" font-weight="400" font-stretch="normal" font-size="18" text-anchor="start" direction="ltr" writing-mode="lr-tb" unicode-bidi="normal" text-decoration="none" transform="translate(327.636 475)">N</text><text fill="#A02B93" fill-opacity="1" font-family="SimSun,SimSun_MSFontService,Arial" font-style="normal" font-variant="normal" font-weight="400" font-stretch="normal" font-size="18" text-anchor="start" direction="ltr" writing-mode="lr-tb" unicode-bidi="normal" text-decoration="none" transform="translate(336.803 475)">支烟</text><text fill="#A02B93" fill-opacity="1" font-family="SimSun,SimSun_MSFontService,Arial" font-style="normal" font-variant="normal" font-weight="700" font-stretch="normal" font-size="18" text-anchor="start" direction="ltr" writing-mode="lr-tb" unicode-bidi="normal" text-decoration="none" transform="translate(299.999 505)">→</text><text fill="#A02B93" fill-opacity="1" font-family="SimSun,SimSun_MSFontService,Arial" font-style="normal" font-variant="normal" font-weight="700" font-stretch="normal" font-size="18" text-anchor="start" direction="ltr" writing-mode="lr-tb" unicode-bidi="normal" text-decoration="none" transform="translate(327.636 505)">避害</text><rect x="271" y="171" width="16.0002" height="134" fill="#AACCE7" fill-opacity="1"/><path d="M241 289.8C241 283.835 245.835 279 251.8 279L412.2 279C418.165 279 423 283.835 423 289.8L423 376.2C423 382.165 418.165 387 412.2 387L251.8 387C245.835 387 241 382.165 241 376.2Z" stroke="#196B24" stroke-width="5.72917" stroke-linecap="butt" stroke-linejoin="miter" stroke-miterlimit="8" stroke-opacity="1" fill="#FFFFFF" fill-rule="evenodd" fill-opacity="1"/><text fill="#E97132" fill-opacity="1" font-family="SimSun,SimSun_MSFontService,Arial" font-style="normal" font-variant="normal" font-weight="400" font-stretch="normal" font-size="18" text-anchor="start" direction="ltr" writing-mode="lr-tb" unicode-bidi="normal" text-decoration="none" transform="translate(286.375 323)">再次获得乐</text><text fill="#196B24" fill-opacity="1" font-family="SimSun,SimSun_MSFontService,Arial" font-style="normal" font-variant="normal" font-weight="700" font-stretch="normal" font-size="18" text-anchor="start" direction="ltr" writing-mode="lr-tb" unicode-bidi="normal" text-decoration="none" transform="translate(272.396 353)">→</text><text fill="#196B24" fill-opacity="1" font-family="SimSun,SimSun_MSFontService,Arial" font-style="normal" font-variant="normal" font-weight="700" font-stretch="normal" font-size="18" text-anchor="start" direction="ltr" writing-mode="lr-tb" unicode-bidi="normal" text-decoration="none" transform="translate(300.033 353)">喜欢、满意</text><rect x="271" y="34.9999" width="16.0002" height="134" fill="#AACCE7" fill-opacity="1"/><path d="M241 152.9C241 146.88 245.88 142 251.9 142L412.1 142C418.12 142 423 146.88 423 152.9L423 240.1C423 246.12 418.12 251.001 412.1 251.001L251.9 251.001C245.88 251.001 241 246.12 241 240.1Z" stroke="#0F9ED5" stroke-width="5.72917" stroke-linecap="butt" stroke-linejoin="miter" stroke-miterlimit="8" stroke-opacity="1" fill="#FFFFFF" fill-rule="evenodd" fill-opacity="1"/><text fill="#0B76A0" fill-opacity="1" font-family="SimSun,SimSun_MSFontService,Arial" font-style="normal" font-variant="normal" font-weight="400" font-stretch="normal" font-size="18" text-anchor="start" direction="ltr" writing-mode="lr-tb" unicode-bidi="normal" text-decoration="none" transform="translate(313.886 172)">确信</text><text fill="#0B76A0" fill-opacity="1" font-family="SimSun,SimSun_MSFontService,Arial" font-style="normal" font-variant="normal" font-weight="400" font-stretch="normal" font-size="18" text-anchor="start" direction="ltr" writing-mode="lr-tb" unicode-bidi="normal" text-decoration="none" transform="translate(277.22 202)">吸烟能带来乐</text><text fill="#0B76A0" fill-opacity="1" font-family="SimSun,SimSun_MSFontService,Arial" font-style="normal" font-variant="normal" font-weight="700" font-stretch="normal" font-size="18" text-anchor="start" direction="ltr" writing-mode="lr-tb" unicode-bidi="normal" text-decoration="none" transform="translate(281.597 232)">→</text><text fill="#0B76A0" fill-opacity="1" font-family="SimSun,SimSun_MSFontService,Arial" font-style="normal" font-variant="normal" font-weight="700" font-stretch="normal" font-size="18" text-anchor="start" direction="ltr" writing-mode="lr-tb" unicode-bidi="normal" text-decoration="none" transform="translate(309.234 232)">成瘾洗脑</text><rect x="280" y="25.0001" width="239" height="16.9998" fill="#AACCE7" fill-opacity="1"/><path d="M241 16.8999C241 10.88 245.88 5.99984 251.9 5.99984L412.1 5.99984C418.12 5.99984 423 10.88 423 16.8999L423 104.1C423 110.12 418.12 115 412.1 115L251.9 115C245.88 115 241 110.12 241 104.1Z" stroke="#A02B93" stroke-width="5.72917" stroke-linecap="butt" stroke-linejoin="miter" stroke-miterlimit="8" stroke-opacity="1" fill="#FFFFFF" fill-rule="evenodd" fill-opacity="1"/><text fill="#A02B93" fill-opacity="1" font-family="SimSun,SimSun_MSFontService,Arial" font-style="normal" font-variant="normal" font-weight="400" font-stretch="normal" font-size="18" text-anchor="start" direction="ltr" writing-mode="lr-tb" unicode-bidi="normal" text-decoration="none" transform="translate(286.386 51)">想要更多乐</text><text fill="#A02B93" fill-opacity="1" font-family="SimSun,SimSun_MSFontService,Arial" font-style="normal" font-variant="normal" font-weight="700" font-stretch="normal" font-size="18" text-anchor="start" direction="ltr" writing-mode="lr-tb" unicode-bidi="normal" text-decoration="none" transform="translate(299.999 81)">→</text><text fill="#A02B93" fill-opacity="1" font-family="SimSun,SimSun_MSFontService,Arial" font-style="normal" font-variant="normal" font-weight="700" font-stretch="normal" font-size="18" text-anchor="start" direction="ltr" writing-mode="lr-tb" unicode-bidi="normal" text-decoration="none" transform="translate(327.636 81)">趋利</text><rect x="512" y="34.9999" width="16.0002" height="134" fill="#AACCE7" fill-opacity="1"/><path d="M483 16.8998C483 10.8799 487.88 5.99984 493.9 5.99984L653.1 5.99984C659.12 5.99984 664 10.8799 664 16.8998L664 104.1C664 110.12 659.12 115 653.1 115L493.9 115C487.88 115 483 110.12 483 104.1Z" stroke="#AEAEAE" stroke-width="5.72917" stroke-linecap="butt" stroke-linejoin="miter" stroke-miterlimit="8" stroke-opacity="1" fill="#FFFFFF" fill-rule="evenodd" fill-opacity="1"/><text fill="#000000" fill-opacity="1" font-family="SimSun,SimSun_MSFontService,Arial" font-style="normal" font-variant="normal" font-weight="400" font-stretch="normal" font-size="18" text-anchor="start" direction="ltr" writing-mode="lr-tb" unicode-bidi="normal" text-decoration="none" transform="translate(546.104 51)">吸烟量</text><text fill="#000000" fill-opacity="1" font-family="SimSun,SimSun_MSFontService,Arial" font-style="normal" font-variant="normal" font-weight="400" font-stretch="normal" font-size="18" text-anchor="start" direction="ltr" writing-mode="lr-tb" unicode-bidi="normal" text-decoration="none" transform="translate(536.937 81)">持续增加</text><rect x="512" y="171" width="16.0002" height="134" fill="#AACCE7" fill-opacity="1"/><path d="M483 152.9C483 146.88 487.88 142 493.9 142L653.1 142C659.12 142 664 146.88 664 152.9L664 240.1C664 246.12 659.12 251 653.1 251L493.9 251C487.88 251 483 246.12 483 240.1Z" stroke="#196B24" stroke-width="5.72917" stroke-linecap="butt" stroke-linejoin="miter" stroke-miterlimit="8" stroke-opacity="1" fill="#FFFFFF" fill-rule="evenodd" fill-opacity="1"/><text fill="#C04F15" fill-opacity="1" font-family="SimSun,SimSun_MSFontService,Arial" font-style="normal" font-variant="normal" font-weight="400" font-stretch="normal" font-size="18" text-anchor="start" direction="ltr" writing-mode="lr-tb" unicode-bidi="normal" text-decoration="none" transform="translate(527.759 187)">乐反而减少</text><text fill="#196B24" fill-opacity="1" font-family="SimSun,SimSun_MSFontService,Arial" font-style="normal" font-variant="normal" font-weight="700" font-stretch="normal" font-size="18" text-anchor="start" direction="ltr" writing-mode="lr-tb" unicode-bidi="normal" text-decoration="none" transform="translate(495.378 217)">→</text><text fill="#196B24" fill-opacity="1" font-family="SimSun,SimSun_MSFontService,Arial" font-style="normal" font-variant="normal" font-weight="700" font-stretch="normal" font-size="18" text-anchor="start" direction="ltr" writing-mode="lr-tb" unicode-bidi="normal" text-decoration="none" transform="translate(523.015 217)">不喜欢、不满意</text><rect x="512" y="307" width="16.0002" height="134" fill="#AACCE7" fill-opacity="1"/><path d="M483 289.8C483 283.835 487.835 279 493.8 279L653.2 279C659.165 279 664 283.835 664 289.8L664 376.2C664 382.165 659.165 387 653.2 387L493.8 387C487.835 387 483 382.165 483 376.2Z" stroke="#A02B93" stroke-width="5.72917" stroke-linecap="butt" stroke-linejoin="miter" stroke-miterlimit="8" stroke-opacity="1" fill="#FFFFFF" fill-rule="evenodd" fill-opacity="1"/><text fill="#A02B93" fill-opacity="1" font-family="SimSun,SimSun_MSFontService,Arial" font-style="normal" font-variant="normal" font-weight="400" font-stretch="normal" font-size="18" text-anchor="start" direction="ltr" writing-mode="lr-tb" unicode-bidi="normal" text-decoration="none" transform="translate(518.604 323)">不想要乐减少</text><text fill="#A02B93" fill-opacity="1" font-family="SimSun,SimSun_MSFontService,Arial" font-style="normal" font-variant="normal" font-weight="700" font-stretch="normal" font-size="18" text-anchor="start" direction="ltr" writing-mode="lr-tb" unicode-bidi="normal" text-decoration="none" transform="translate(541.383 353)">→</text><text fill="#A02B93" fill-opacity="1" font-family="SimSun,SimSun_MSFontService,Arial" font-style="normal" font-variant="normal" font-weight="700" font-stretch="normal" font-size="18" text-anchor="start" direction="ltr" writing-mode="lr-tb" unicode-bidi="normal" text-decoration="none" transform="translate(569.021 353)">避害</text><rect x="512" y="443" width="16.0002" height="134" fill="#AACCE7" fill-opacity="1"/><path d="M483 425.9C483 419.88 487.88 415 493.9 415L653.1 415C659.12 415 664 419.88 664 425.9L664 513.1C664 519.12 659.12 524 653.1 524L493.9 524C487.88 524 483 519.12 483 513.1Z" stroke="#747474" stroke-width="5.72917" stroke-linecap="butt" stroke-linejoin="miter" stroke-miterlimit="8" stroke-opacity="1" fill="#FFFFFF" fill-rule="evenodd" fill-opacity="1"/><text fill="#000000" fill-opacity="1" font-family="SimSun,SimSun_MSFontService,Arial" font-style="normal" font-variant="normal" font-weight="400" font-stretch="normal" font-size="18" text-anchor="start" direction="ltr" writing-mode="lr-tb" unicode-bidi="normal" text-decoration="none" transform="translate(546.104 459)">吸烟量</text><text fill="#000000" fill-opacity="1" font-family="SimSun,SimSun_MSFontService,Arial" font-style="normal" font-variant="normal" font-weight="400" font-stretch="normal" font-size="18" text-anchor="start" direction="ltr" writing-mode="lr-tb" unicode-bidi="normal" text-decoration="none" transform="translate(527.771 489)">增加到极限</text><rect x="521" y="570" width="240" height="16.0002" fill="#AACCE7" fill-opacity="1"/><path d="M483 561.9C483 555.88 487.88 551 493.9 551L653.1 551C659.12 551 664 555.88 664 561.9L664 649.1C664 655.12 659.12 660 653.1 660L493.9 660C487.88 660 483 655.12 483 649.1Z" stroke="#196B24" stroke-width="5.72917" stroke-linecap="butt" stroke-linejoin="miter" stroke-miterlimit="8" stroke-opacity="1" fill="#FFFFFF" fill-rule="evenodd" fill-opacity="1"/><text fill="#C04F15" fill-opacity="1" font-family="SimSun,SimSun_MSFontService,Arial" font-style="normal" font-variant="normal" font-weight="400" font-stretch="normal" font-size="18" text-anchor="start" direction="ltr" writing-mode="lr-tb" unicode-bidi="normal" text-decoration="none" transform="translate(527.759 596)">感到被强迫</text><text fill="#196B24" fill-opacity="1" font-family="SimSun,SimSun_MSFontService,Arial" font-style="normal" font-variant="normal" font-weight="700" font-stretch="normal" font-size="18" text-anchor="start" direction="ltr" writing-mode="lr-tb" unicode-bidi="normal" text-decoration="none" transform="translate(495.378 626)">→</text><text fill="#196B24" fill-opacity="1" font-family="SimSun,SimSun_MSFontService,Arial" font-style="normal" font-variant="normal" font-weight="700" font-stretch="normal" font-size="18" text-anchor="start" direction="ltr" writing-mode="lr-tb" unicode-bidi="normal" text-decoration="none" transform="translate(523.015 626)">不喜欢、不满意</text><rect x="753" y="443" width="16.9998" height="134" fill="#AACCE7" fill-opacity="1"/><path d="M724 561.9C724 555.88 728.88 551 734.9 551L895.1 551C901.12 551 906 555.88 906 561.9L906 649.101C906 655.12 901.12 660.001 895.1 660.001L734.9 660.001C728.88 660.001 724 655.12 724 649.101Z" stroke="#A02B93" stroke-width="5.72917" stroke-linecap="butt" stroke-linejoin="miter" stroke-miterlimit="8" stroke-opacity="1" fill="#FFFFFF" fill-rule="evenodd" fill-opacity="1"/><text fill="#A02B93" fill-opacity="1" font-family="SimSun,SimSun_MSFontService,Arial" font-style="normal" font-variant="normal" font-weight="400" font-stretch="normal" font-size="18" text-anchor="start" direction="ltr" writing-mode="lr-tb" unicode-bidi="normal" text-decoration="none" transform="translate(750.684 585)">想戒烟</text><text fill="#A02B93" fill-opacity="1" font-family="SimSun,SimSun_MSFontService,Arial" font-style="normal" font-variant="normal" font-weight="700" font-stretch="normal" font-size="18" text-anchor="start" direction="ltr" writing-mode="lr-tb" unicode-bidi="normal" text-decoration="none" transform="translate(814.851 585)">→</text><text fill="#A02B93" fill-opacity="1" font-family="SimSun,SimSun_MSFontService,Arial" font-style="normal" font-variant="normal" font-weight="700" font-stretch="normal" font-size="18" text-anchor="start" direction="ltr" writing-mode="lr-tb" unicode-bidi="normal" text-decoration="none" transform="translate(842.488 585)">避害</text><text fill="#A02B93" fill-opacity="1" font-family="SimSun,SimSun_MSFontService,Arial" font-style="normal" font-variant="normal" font-weight="400" font-stretch="normal" font-size="18" text-anchor="start" direction="ltr" writing-mode="lr-tb" unicode-bidi="normal" text-decoration="none" transform="translate(741.655 615)">不想牺牲吸烟的好</text><text fill="#A02B93" fill-opacity="1" font-family="SimSun,SimSun_MSFontService,Arial" font-style="normal" font-variant="normal" font-weight="400" font-stretch="normal" font-size="18" text-anchor="start" direction="ltr" writing-mode="lr-tb" unicode-bidi="normal" text-decoration="none" transform="translate(769.017 636)">处</text><text fill="#A02B93" fill-opacity="1" font-family="SimSun,SimSun_MSFontService,Arial" font-style="normal" font-variant="normal" font-weight="700" font-stretch="normal" font-size="18" text-anchor="start" direction="ltr" writing-mode="lr-tb" unicode-bidi="normal" text-decoration="none" transform="translate(796.517 636)">→</text><text fill="#A02B93" fill-opacity="1" font-family="SimSun,SimSun_MSFontService,Arial" font-style="normal" font-variant="normal" font-weight="700" font-stretch="normal" font-size="18" text-anchor="start" direction="ltr" writing-mode="lr-tb" unicode-bidi="normal" text-decoration="none" transform="translate(824.155 636)">趋利</text><rect x="753" y="307" width="16.9998" height="134" fill="#AACCE7" fill-opacity="1"/><path d="M724.5 426.4C724.5 420.38 729.38 415.5 735.4 415.5L895.6 415.5C901.62 415.5 906.5 420.38 906.5 426.4L906.5 513.6C906.5 519.62 901.62 524.5 895.6 524.5L735.4 524.5C729.38 524.5 724.5 519.62 724.5 513.6Z" stroke="#196B24" stroke-width="4.58333" stroke-linecap="butt" stroke-linejoin="miter" stroke-miterlimit="8" stroke-opacity="1" fill="#FFFFFF" fill-rule="evenodd" fill-opacity="1"/><text fill="#C04F15" fill-opacity="1" font-family="SimSun,SimSun_MSFontService,Arial" font-style="normal" font-variant="normal" font-weight="400" font-stretch="normal" font-size="18" text-anchor="start" direction="ltr" writing-mode="lr-tb" unicode-bidi="normal" text-decoration="none" transform="translate(750.81 459)">戒烟失败，懊恼</text><text fill="#196B24" fill-opacity="1" font-family="SimSun,SimSun_MSFontService,Arial" font-style="normal" font-variant="normal" font-weight="700" font-stretch="normal" font-size="18" text-anchor="start" direction="ltr" writing-mode="lr-tb" unicode-bidi="normal" text-decoration="none" transform="translate(736.762 489)">→</text><text fill="#196B24" fill-opacity="1" font-family="SimSun,SimSun_MSFontService,Arial" font-style="normal" font-variant="normal" font-weight="700" font-stretch="normal" font-size="18" text-anchor="start" direction="ltr" writing-mode="lr-tb" unicode-bidi="normal" text-decoration="none" transform="translate(764.4 489)">不喜欢、不满意</text><rect x="753" y="171" width="16.9998" height="134" fill="#AACCE7" fill-opacity="1"/><path d="M724 289.8C724 283.835 728.835 279 734.8 279L895.2 279C901.165 279 906 283.835 906 289.8L906 376.2C906 382.165 901.165 387 895.2 387L734.8 387C728.835 387 724 382.165 724 376.2Z" stroke="#A02B93" stroke-width="5.72917" stroke-linecap="butt" stroke-linejoin="miter" stroke-miterlimit="8" stroke-opacity="1" fill="#FFFFFF" fill-rule="evenodd" fill-opacity="1"/><text fill="#A02B93" fill-opacity="1" font-family="SimSun,SimSun_MSFontService,Arial" font-style="normal" font-variant="normal" font-weight="400" font-stretch="normal" font-size="18" text-anchor="start" direction="ltr" writing-mode="lr-tb" unicode-bidi="normal" text-decoration="none" transform="translate(759.988 323)">重新开始吸烟</text><text fill="#A02B93" fill-opacity="1" font-family="SimSun,SimSun_MSFontService,Arial" font-style="normal" font-variant="normal" font-weight="700" font-stretch="normal" font-size="18" text-anchor="start" direction="ltr" writing-mode="lr-tb" unicode-bidi="normal" text-decoration="none" transform="translate(782.767 353)">→</text><text fill="#A02B93" fill-opacity="1" font-family="SimSun,SimSun_MSFontService,Arial" font-style="normal" font-variant="normal" font-weight="700" font-stretch="normal" font-size="18" text-anchor="start" direction="ltr" writing-mode="lr-tb" unicode-bidi="normal" text-decoration="none" transform="translate(810.405 353)">避害</text><rect x="753" y="34.9999" width="16.9998" height="134" fill="#AACCE7" fill-opacity="1"/><path d="M724 152.9C724 146.88 728.88 142 734.9 142L895.1 142C901.12 142 906 146.88 906 152.9L906 240.1C906 246.12 901.12 251.001 895.1 251.001L734.9 251.001C728.88 251.001 724 246.12 724 240.1Z" stroke="#196B24" stroke-width="5.72917" stroke-linecap="butt" stroke-linejoin="miter" stroke-miterlimit="8" stroke-opacity="1" fill="#FFFFFF" fill-rule="evenodd" fill-opacity="1"/><text fill="#C04F15" fill-opacity="1" font-family="SimSun,SimSun_MSFontService,Arial" font-style="normal" font-variant="normal" font-weight="400" font-stretch="normal" font-size="18" text-anchor="start" direction="ltr" writing-mode="lr-tb" unicode-bidi="normal" text-decoration="none" transform="translate(769.143 187)">再次获得乐</text><text fill="#196B24" fill-opacity="1" font-family="SimSun,SimSun_MSFontService,Arial" font-style="normal" font-variant="normal" font-weight="700" font-stretch="normal" font-size="18" text-anchor="start" direction="ltr" writing-mode="lr-tb" unicode-bidi="normal" text-decoration="none" transform="translate(755.164 217)">→</text><text fill="#196B24" fill-opacity="1" font-family="SimSun,SimSun_MSFontService,Arial" font-style="normal" font-variant="normal" font-weight="700" font-stretch="normal" font-size="18" text-anchor="start" direction="ltr" writing-mode="lr-tb" unicode-bidi="normal" text-decoration="none" transform="translate(782.802 217)">喜欢、满意</text><rect x="763" y="25.0001" width="239" height="16.9998" fill="#AACCE7" fill-opacity="1"/><path d="M724 16.8999C724 10.88 728.88 5.99984 734.9 5.99984L895.1 5.99984C901.12 5.99984 906 10.88 906 16.8999L906 104.1C906 110.12 901.12 115 895.1 115L734.9 115C728.88 115 724 110.12 724 104.1Z" stroke="#0F9ED5" stroke-width="5.72917" stroke-linecap="butt" stroke-linejoin="miter" stroke-miterlimit="8" stroke-opacity="1" fill="#FFFFFF" fill-rule="evenodd" fill-opacity="1"/><text fill="#0B76A0" fill-opacity="1" font-family="SimSun,SimSun_MSFontService,Arial" font-style="normal" font-variant="normal" font-weight="400" font-stretch="normal" font-size="18" text-anchor="start" direction="ltr" writing-mode="lr-tb" unicode-bidi="normal" text-decoration="none" transform="translate(759.988 36)">确认烟戒不掉</text><text fill="#0B76A0" fill-opacity="1" font-family="SimSun,SimSun_MSFontService,Arial" font-style="normal" font-variant="normal" font-weight="400" font-stretch="normal" font-size="18" text-anchor="start" direction="ltr" writing-mode="lr-tb" unicode-bidi="normal" text-decoration="none" transform="translate(750.822 66)">继续吸烟比较好</text><text fill="#0B76A0" fill-opacity="1" font-family="SimSun,SimSun_MSFontService,Arial" font-style="normal" font-variant="normal" font-weight="700" font-stretch="normal" font-size="18" text-anchor="start" direction="ltr" writing-mode="lr-tb" unicode-bidi="normal" text-decoration="none" transform="translate(764.365 96)">→</text><text fill="#0B76A0" fill-opacity="1" font-family="SimSun,SimSun_MSFontService,Arial" font-style="normal" font-variant="normal" font-weight="700" font-stretch="normal" font-size="18" text-anchor="start" direction="ltr" writing-mode="lr-tb" unicode-bidi="normal" text-decoration="none" transform="translate(792.003 96)">成瘾洗脑</text><rect x="995" y="35.0001" width="15.9998" height="134" fill="#AACCE7" fill-opacity="1"/><path d="M966 16.8998C966 10.8799 970.88 5.99984 976.9 5.99984L1136.1 5.99984C1142.12 5.99984 1147 10.8799 1147 16.8998L1147 104.1C1147 110.12 1142.12 115 1136.1 115L976.9 115C970.88 115 966 110.12 966 104.1Z" stroke="#3A3A3A" stroke-width="5.72917" stroke-linecap="butt" stroke-linejoin="miter" stroke-miterlimit="8" stroke-opacity="1" fill="#FFFFFF" fill-rule="evenodd" fill-opacity="1"/><text fill="#000000" fill-opacity="1" font-family="SimSun,SimSun_MSFontService,Arial" font-style="normal" font-variant="normal" font-weight="400" font-stretch="normal" font-size="18" text-anchor="start" direction="ltr" writing-mode="lr-tb" unicode-bidi="normal" text-decoration="none" transform="translate(1028.87 51)">吸烟量</text><text fill="#000000" fill-opacity="1" font-family="SimSun,SimSun_MSFontService,Arial" font-style="normal" font-variant="normal" font-weight="400" font-stretch="normal" font-size="18" text-anchor="start" direction="ltr" writing-mode="lr-tb" unicode-bidi="normal" text-decoration="none" transform="translate(1019.71 81)">超越极限</text><rect x="995" y="171" width="15.9998" height="134" fill="#AACCE7" fill-opacity="1"/><path d="M966 152.9C966 146.88 970.88 142 976.9 142L1136.1 142C1142.12 142 1147 146.88 1147 152.9L1147 240.1C1147 246.12 1142.12 251 1136.1 251L976.9 251C970.88 251 966 246.12 966 240.1Z" stroke="#196B24" stroke-width="5.72917" stroke-linecap="butt" stroke-linejoin="miter" stroke-miterlimit="8" stroke-opacity="1" fill="#FFFFFF" fill-rule="evenodd" fill-opacity="1"/><text fill="#C04F15" fill-opacity="1" font-family="SimSun,SimSun_MSFontService,Arial" font-style="normal" font-variant="normal" font-weight="400" font-stretch="normal" font-size="18" text-anchor="start" direction="ltr" writing-mode="lr-tb" unicode-bidi="normal" text-decoration="none" transform="translate(1001.37 172)">乐更少苦更多</text><text fill="#C04F15" fill-opacity="1" font-family="SimSun,SimSun_MSFontService,Arial" font-style="normal" font-variant="normal" font-weight="400" font-stretch="normal" font-size="18" text-anchor="start" direction="ltr" writing-mode="lr-tb" unicode-bidi="normal" text-decoration="none" transform="translate(983.039 202)">自卑、匮乏、懊恼</text><text fill="#196B24" fill-opacity="1" font-family="SimSun,SimSun_MSFontService,Arial" font-style="normal" font-variant="normal" font-weight="700" font-stretch="normal" font-size="18" text-anchor="start" direction="ltr" writing-mode="lr-tb" unicode-bidi="normal" text-decoration="none" transform="translate(1014.96 232)">→</text><text fill="#196B24" fill-opacity="1" font-family="SimSun,SimSun_MSFontService,Arial" font-style="normal" font-variant="normal" font-weight="700" font-stretch="normal" font-size="18" text-anchor="start" direction="ltr" writing-mode="lr-tb" unicode-bidi="normal" text-decoration="none" transform="translate(1042.6 232)">不满意</text><rect x="995" y="307" width="15.9998" height="134" fill="#AACCE7" fill-opacity="1"/><path d="M966 289.8C966 283.835 970.835 279 976.8 279L1136.2 279C1142.16 279 1147 283.835 1147 289.8L1147 376.2C1147 382.165 1142.16 387 1136.2 387L976.8 387C970.835 387 966 382.165 966 376.2Z" stroke="#A02B93" stroke-width="5.72917" stroke-linecap="butt" stroke-linejoin="miter" stroke-miterlimit="8" stroke-opacity="1" fill="#FFFFFF" fill-rule="evenodd" fill-opacity="1"/><text fill="#A02B93" fill-opacity="1" font-family="SimSun,SimSun_MSFontService,Arial" font-style="normal" font-variant="normal" font-weight="400" font-stretch="normal" font-size="18" text-anchor="start" direction="ltr" writing-mode="lr-tb" unicode-bidi="normal" text-decoration="none" transform="translate(1010.54 323)">戒更多次烟</text><text fill="#A02B93" fill-opacity="1" font-family="SimSun,SimSun_MSFontService,Arial" font-style="normal" font-variant="normal" font-weight="700" font-stretch="normal" font-size="18" text-anchor="start" direction="ltr" writing-mode="lr-tb" unicode-bidi="normal" text-decoration="none" transform="translate(1024.15 353)">→</text><text fill="#A02B93" fill-opacity="1" font-family="SimSun,SimSun_MSFontService,Arial" font-style="normal" font-variant="normal" font-weight="700" font-stretch="normal" font-size="18" text-anchor="start" direction="ltr" writing-mode="lr-tb" unicode-bidi="normal" text-decoration="none" transform="translate(1051.79 353)">避害</text><rect x="995" y="443" width="15.9998" height="134" fill="#AACCE7" fill-opacity="1"/><path d="M966 425.9C966 419.88 970.88 415 976.9 415L1136.1 415C1142.12 415 1147 419.88 1147 425.9L1147 513.1C1147 519.12 1142.12 524 1136.1 524L976.9 524C970.88 524 966 519.12 966 513.1Z" stroke="#196B24" stroke-width="5.72917" stroke-linecap="butt" stroke-linejoin="miter" stroke-miterlimit="8" stroke-opacity="1" fill="#FFFFFF" fill-rule="evenodd" fill-opacity="1"/><text fill="#C04F15" fill-opacity="1" font-family="SimSun,SimSun_MSFontService,Arial" font-style="normal" font-variant="normal" font-weight="400" font-stretch="normal" font-size="18" text-anchor="start" direction="ltr" writing-mode="lr-tb" unicode-bidi="normal" text-decoration="none" transform="translate(1010.54 445)">失败更多次</text><text fill="#C04F15" fill-opacity="1" font-family="SimSun,SimSun_MSFontService,Arial" font-style="normal" font-variant="normal" font-weight="400" font-stretch="normal" font-size="18" text-anchor="start" direction="ltr" writing-mode="lr-tb" unicode-bidi="normal" text-decoration="none" transform="translate(1001.37 475)">无法解脱的苦</text><text fill="#196B24" fill-opacity="1" font-family="SimSun,SimSun_MSFontService,Arial" font-style="normal" font-variant="normal" font-weight="700" font-stretch="normal" font-size="18" text-anchor="start" direction="ltr" writing-mode="lr-tb" unicode-bidi="normal" text-decoration="none" transform="translate(1014.96 505)">→</text><text fill="#196B24" fill-opacity="1" font-family="SimSun,SimSun_MSFontService,Arial" font-style="normal" font-variant="normal" font-weight="700" font-stretch="normal" font-size="18" text-anchor="start" direction="ltr" writing-mode="lr-tb" unicode-bidi="normal" text-decoration="none" transform="translate(1042.6 505)">不满意</text><path d="M966 561.9C966 555.88 970.88 551 976.9 551L1136.1 551C1142.12 551 1147 555.88 1147 561.9L1147 649.1C1147 655.12 1142.12 660 1136.1 660L976.9 660C970.88 660 966 655.12 966 649.1Z" stroke="#000000" stroke-width="5.72917" stroke-linecap="butt" stroke-linejoin="miter" stroke-miterlimit="8" stroke-opacity="1" fill="#FFFFFF" fill-rule="evenodd" fill-opacity="1"/><text fill="#000000" fill-opacity="1" font-family="SimSun,SimSun_MSFontService,Arial" font-style="normal" font-variant="normal" font-weight="700" font-stretch="normal" font-size="18" text-anchor="start" direction="ltr" writing-mode="lr-tb" unicode-bidi="normal" text-decoration="none" transform="translate(982.764 596)">被迫持续吸更多烟</text><text fill="#000000" fill-opacity="1" font-family="SimSun,SimSun_MSFontService,Arial" font-style="normal" font-variant="normal" font-weight="700" font-stretch="normal" font-size="18" text-anchor="start" direction="ltr" writing-mode="lr-tb" unicode-bidi="normal" text-decoration="none" transform="translate(987.347 626)">→</text><text fill="#000000" fill-opacity="1" font-family="SimSun,SimSun_MSFontService,Arial" font-style="normal" font-variant="normal" font-weight="700" font-stretch="normal" font-size="18" text-anchor="start" direction="ltr" writing-mode="lr-tb" unicode-bidi="normal" text-decoration="none" transform="translate(1014.98 626)">成瘾的死循环</text></g></g></svg>