<svg width="1155" height="669" xmlns="http://www.w3.org/2000/svg" xmlns:xlink="http://www.w3.org/1999/xlink" xml:space="preserve" overflow="hidden"><g transform="translate(-256 -284)"><g><rect x="289" y="320" width="15.9998" height="134" fill="#AACCE7" fill-opacity="1"/><path d="M260 301.9C260 295.88 264.88 291 270.9 291L430.1 291C436.12 291 441 295.88 441 301.9L441 389.1C441 395.12 436.12 400 430.1 400L270.9 400C264.88 400 260 395.12 260 389.1Z" stroke="#196B24" stroke-width="5.72917" stroke-linecap="butt" stroke-linejoin="miter" stroke-miterlimit="8" stroke-opacity="1" fill="#FFFFFF" fill-rule="evenodd" fill-opacity="1"/><text fill="#C04F15" fill-opacity="1" font-family="SimSun,SimSun_MSFontService,Arial" font-style="normal" font-variant="normal" font-weight="400" font-stretch="normal" font-size="18" text-anchor="start" direction="ltr" writing-mode="lr-tb" unicode-bidi="normal" text-decoration="none" transform="translate(295.304 321)">生活中感到苦</text><text fill="#C04F15" fill-opacity="1" font-family="SimSun,SimSun_MSFontService,Arial" font-style="normal" font-variant="normal" font-weight="400" font-stretch="normal" font-size="18" text-anchor="start" direction="ltr" writing-mode="lr-tb" unicode-bidi="normal" text-decoration="none" transform="translate(276.971 351)">压力、焦虑、空虚</text><text fill="#196B24" fill-opacity="1" font-family="SimSun,SimSun_MSFontService,Arial" font-style="normal" font-variant="normal" font-weight="700" font-stretch="normal" font-size="18" text-anchor="start" direction="ltr" writing-mode="lr-tb" unicode-bidi="normal" text-decoration="none" transform="translate(308.871 381)">→</text><text fill="#196B24" fill-opacity="1" font-family="SimSun,SimSun_MSFontService,Arial" font-style="normal" font-variant="normal" font-weight="700" font-stretch="normal" font-size="18" text-anchor="start" direction="ltr" writing-mode="lr-tb" unicode-bidi="normal" text-decoration="none" transform="translate(336.508 381)">不满意</text><rect x="289" y="456" width="15.9998" height="134" fill="#AACCE7" fill-opacity="1"/><path d="M260 438.8C260 432.835 264.835 428 270.8 428L430.2 428C436.165 428 441 432.835 441 438.8L441 525.2C441 531.165 436.165 536 430.2 536L270.8 536C264.835 536 260 531.165 260 525.2Z" stroke="#0F9ED5" stroke-width="5.72917" stroke-linecap="butt" stroke-linejoin="miter" stroke-miterlimit="8" stroke-opacity="1" fill="#FFFFFF" fill-rule="evenodd" fill-opacity="1"/><text fill="#0B76A0" fill-opacity="1" font-family="SimSun,SimSun_MSFontService,Arial" font-style="normal" font-variant="normal" font-weight="400" font-stretch="normal" font-size="18" text-anchor="start" direction="ltr" writing-mode="lr-tb" unicode-bidi="normal" text-decoration="none" transform="translate(331.982 457)">听说</text><text fill="#0B76A0" fill-opacity="1" font-family="SimSun,SimSun_MSFontService,Arial" font-style="normal" font-variant="normal" font-weight="400" font-stretch="normal" font-size="18" text-anchor="start" direction="ltr" writing-mode="lr-tb" unicode-bidi="normal" text-decoration="none" transform="translate(295.316 487)">吸烟可以避苦</text><text fill="#0B76A0" fill-opacity="1" font-family="SimSun,SimSun_MSFontService,Arial" font-style="normal" font-variant="normal" font-weight="700" font-stretch="normal" font-size="18" text-anchor="start" direction="ltr" writing-mode="lr-tb" unicode-bidi="normal" text-decoration="none" transform="translate(272.078 517)">→</text><text fill="#0B76A0" fill-opacity="1" font-family="SimSun,SimSun_MSFontService,Arial" font-style="normal" font-variant="normal" font-weight="700" font-stretch="normal" font-size="18" text-anchor="start" direction="ltr" writing-mode="lr-tb" unicode-bidi="normal" text-decoration="none" transform="translate(299.716 517)">社会性成瘾洗脑</text><rect x="289" y="592" width="15.9998" height="134" fill="#AACCE7" fill-opacity="1"/><path d="M260 574.9C260 568.88 264.88 564 270.9 564L430.1 564C436.12 564 441 568.88 441 574.9L441 662.1C441 668.12 436.12 673 430.1 673L270.9 673C264.88 673 260 668.12 260 662.1Z" stroke="#A02B93" stroke-width="5.72917" stroke-linecap="butt" stroke-linejoin="miter" stroke-miterlimit="8" stroke-opacity="1" fill="#FFFFFF" fill-rule="evenodd" fill-opacity="1"/><text fill="#A02B93" fill-opacity="1" font-family="SimSun,SimSun_MSFontService,Arial" font-style="normal" font-variant="normal" font-weight="400" font-stretch="normal" font-size="18" text-anchor="start" direction="ltr" writing-mode="lr-tb" unicode-bidi="normal" text-decoration="none" transform="translate(313.638 594)">不想要苦</text><text fill="#A02B93" fill-opacity="1" font-family="SimSun,SimSun_MSFontService,Arial" font-style="normal" font-variant="normal" font-weight="400" font-stretch="normal" font-size="18" text-anchor="start" direction="ltr" writing-mode="lr-tb" unicode-bidi="normal" text-decoration="none" transform="translate(304.471 624)">吸第一支烟</text><text fill="#A02B93" fill-opacity="1" font-family="SimSun,SimSun_MSFontService,Arial" font-style="normal" font-variant="normal" font-weight="700" font-stretch="normal" font-size="18" text-anchor="start" direction="ltr" writing-mode="lr-tb" unicode-bidi="normal" text-decoration="none" transform="translate(318.083 654)">→</text><text fill="#A02B93" fill-opacity="1" font-family="SimSun,SimSun_MSFontService,Arial" font-style="normal" font-variant="normal" font-weight="700" font-stretch="normal" font-size="18" text-anchor="start" direction="ltr" writing-mode="lr-tb" unicode-bidi="normal" text-decoration="none" transform="translate(345.721 654)">避害</text><rect x="289" y="728" width="15.9998" height="134" fill="#AACCE7" fill-opacity="1"/><path d="M260 710.9C260 704.88 264.88 700 270.9 700L430.1 700C436.12 700 441 704.88 441 710.9L441 798.1C441 804.12 436.12 809 430.1 809L270.9 809C264.88 809 260 804.12 260 798.1Z" stroke="#196B24" stroke-width="5.72917" stroke-linecap="butt" stroke-linejoin="miter" stroke-miterlimit="8" stroke-opacity="1" fill="#FFFFFF" fill-rule="evenodd" fill-opacity="1"/><text fill="#C04F15" fill-opacity="1" font-family="SimSun,SimSun_MSFontService,Arial" font-style="normal" font-variant="normal" font-weight="400" font-stretch="normal" font-size="18" text-anchor="start" direction="ltr" writing-mode="lr-tb" unicode-bidi="normal" text-decoration="none" transform="translate(322.816 745)">获得乐</text><text fill="#196B24" fill-opacity="1" font-family="SimSun,SimSun_MSFontService,Arial" font-style="normal" font-variant="normal" font-weight="700" font-stretch="normal" font-size="18" text-anchor="start" direction="ltr" writing-mode="lr-tb" unicode-bidi="normal" text-decoration="none" transform="translate(290.48 775)">→</text><text fill="#196B24" fill-opacity="1" font-family="SimSun,SimSun_MSFontService,Arial" font-style="normal" font-variant="normal" font-weight="700" font-stretch="normal" font-size="18" text-anchor="start" direction="ltr" writing-mode="lr-tb" unicode-bidi="normal" text-decoration="none" transform="translate(318.118 775)">喜欢、满意</text><rect x="298" y="855" width="239" height="16.0002" fill="#AACCE7" fill-opacity="1"/><path d="M260 846.9C260 840.88 264.88 836 270.9 836L430.1 836C436.12 836 441 840.88 441 846.9L441 934.1C441 940.12 436.12 945 430.1 945L270.9 945C264.88 945 260 940.12 260 934.1Z" stroke="#0F9ED5" stroke-width="5.72917" stroke-linecap="butt" stroke-linejoin="miter" stroke-miterlimit="8" stroke-opacity="1" fill="#FFFFFF" fill-rule="evenodd" fill-opacity="1"/><text fill="#0B76A0" fill-opacity="1" font-family="SimSun,SimSun_MSFontService,Arial" font-style="normal" font-variant="normal" font-weight="400" font-stretch="normal" font-size="18" text-anchor="start" direction="ltr" writing-mode="lr-tb" unicode-bidi="normal" text-decoration="none" transform="translate(331.971 866)">相信</text><text fill="#0B76A0" fill-opacity="1" font-family="SimSun,SimSun_MSFontService,Arial" font-style="normal" font-variant="normal" font-weight="400" font-stretch="normal" font-size="18" text-anchor="start" direction="ltr" writing-mode="lr-tb" unicode-bidi="normal" text-decoration="none" transform="translate(295.304 896)">吸烟能带来乐</text><text fill="#0B76A0" fill-opacity="1" font-family="SimSun,SimSun_MSFontService,Arial" font-style="normal" font-variant="normal" font-weight="700" font-stretch="normal" font-size="18" text-anchor="start" direction="ltr" writing-mode="lr-tb" unicode-bidi="normal" text-decoration="none" transform="translate(281.279 926)">→</text><text fill="#0B76A0" fill-opacity="1" font-family="SimSun,SimSun_MSFontService,Arial" font-style="normal" font-variant="normal" font-weight="700" font-stretch="normal" font-size="18" text-anchor="start" direction="ltr" writing-mode="lr-tb" unicode-bidi="normal" text-decoration="none" transform="translate(308.917 926)">自我成瘾洗脑</text><rect x="530" y="728" width="15.9998" height="134" fill="#AACCE7" fill-opacity="1"/><path d="M501.5 847.4C501.5 841.38 506.38 836.5 512.4 836.5L671.6 836.5C677.62 836.5 682.5 841.38 682.5 847.4L682.5 934.6C682.5 940.619 677.62 945.5 671.6 945.5L512.4 945.5C506.38 945.5 501.5 940.619 501.5 934.6Z" stroke="#196B24" stroke-width="4.58333" stroke-linecap="butt" stroke-linejoin="miter" stroke-miterlimit="8" stroke-opacity="1" fill="#FFFFFF" fill-rule="evenodd" fill-opacity="1"/><text fill="#C04F15" fill-opacity="1" font-family="SimSun,SimSun_MSFontService,Arial" font-style="normal" font-variant="normal" font-weight="400" font-stretch="normal" font-size="18" text-anchor="start" direction="ltr" writing-mode="lr-tb" unicode-bidi="normal" text-decoration="none" transform="translate(518.307 866)">生活中再次感到苦</text><text fill="#C04F15" fill-opacity="1" font-family="SimSun,SimSun_MSFontService,Arial" font-style="normal" font-variant="normal" font-weight="400" font-stretch="normal" font-size="18" text-anchor="start" direction="ltr" writing-mode="lr-tb" unicode-bidi="normal" text-decoration="none" transform="translate(518.307 896)">压力、焦虑、空虚</text><text fill="#196B24" fill-opacity="1" font-family="SimSun,SimSun_MSFontService,Arial" font-style="normal" font-variant="normal" font-weight="700" font-stretch="normal" font-size="18" text-anchor="start" direction="ltr" writing-mode="lr-tb" unicode-bidi="normal" text-decoration="none" transform="translate(550.207 926)">→</text><text fill="#196B24" fill-opacity="1" font-family="SimSun,SimSun_MSFontService,Arial" font-style="normal" font-variant="normal" font-weight="700" font-stretch="normal" font-size="18" text-anchor="start" direction="ltr" writing-mode="lr-tb" unicode-bidi="normal" text-decoration="none" transform="translate(577.844 926)">不满意</text><rect x="530" y="592" width="15.9998" height="134" fill="#AACCE7" fill-opacity="1"/><path d="M501 710.9C501 704.88 505.88 700 511.9 700L671.1 700C677.12 700 682 704.88 682 710.9L682 798.1C682 804.12 677.12 809 671.1 809L511.9 809C505.88 809 501 804.12 501 798.1Z" stroke="#A02B93" stroke-width="5.72917" stroke-linecap="butt" stroke-linejoin="miter" stroke-miterlimit="8" stroke-opacity="1" fill="#FFFFFF" fill-rule="evenodd" fill-opacity="1"/><text fill="#0B76A0" fill-opacity="1" font-family="SimSun,SimSun_MSFontService,Arial" font-style="normal" font-variant="normal" font-weight="400" font-stretch="normal" font-size="18" text-anchor="start" direction="ltr" writing-mode="lr-tb" unicode-bidi="normal" text-decoration="none" transform="translate(518.307 730)">回想起吸烟的好处</text><text fill="#A02B93" fill-opacity="1" font-family="SimSun,SimSun_MSFontService,Arial" font-style="normal" font-variant="normal" font-weight="400" font-stretch="normal" font-size="18" text-anchor="start" direction="ltr" writing-mode="lr-tb" unicode-bidi="normal" text-decoration="none" transform="translate(550.39 760)">吸第</text><text fill="#A02B93" fill-opacity="1" font-family="SimSun,SimSun_MSFontService,Arial" font-style="normal" font-variant="normal" font-weight="400" font-stretch="normal" font-size="18" text-anchor="start" direction="ltr" writing-mode="lr-tb" unicode-bidi="normal" text-decoration="none" transform="translate(587.057 760)">N</text><text fill="#A02B93" fill-opacity="1" font-family="SimSun,SimSun_MSFontService,Arial" font-style="normal" font-variant="normal" font-weight="400" font-stretch="normal" font-size="18" text-anchor="start" direction="ltr" writing-mode="lr-tb" unicode-bidi="normal" text-decoration="none" transform="translate(596.224 760)">支烟</text><text fill="#A02B93" fill-opacity="1" font-family="SimSun,SimSun_MSFontService,Arial" font-style="normal" font-variant="normal" font-weight="700" font-stretch="normal" font-size="18" text-anchor="start" direction="ltr" writing-mode="lr-tb" unicode-bidi="normal" text-decoration="none" transform="translate(559.419 790)">→</text><text fill="#A02B93" fill-opacity="1" font-family="SimSun,SimSun_MSFontService,Arial" font-style="normal" font-variant="normal" font-weight="700" font-stretch="normal" font-size="18" text-anchor="start" direction="ltr" writing-mode="lr-tb" unicode-bidi="normal" text-decoration="none" transform="translate(587.057 790)">避害</text><rect x="530" y="456" width="15.9998" height="134" fill="#AACCE7" fill-opacity="1"/><path d="M501 574.9C501 568.88 505.88 564 511.9 564L671.1 564C677.12 564 682 568.88 682 574.9L682 662.1C682 668.12 677.12 673 671.1 673L511.9 673C505.88 673 501 668.12 501 662.1Z" stroke="#196B24" stroke-width="5.72917" stroke-linecap="butt" stroke-linejoin="miter" stroke-miterlimit="8" stroke-opacity="1" fill="#FFFFFF" fill-rule="evenodd" fill-opacity="1"/><text fill="#E97132" fill-opacity="1" font-family="SimSun,SimSun_MSFontService,Arial" font-style="normal" font-variant="normal" font-weight="400" font-stretch="normal" font-size="18" text-anchor="start" direction="ltr" writing-mode="lr-tb" unicode-bidi="normal" text-decoration="none" transform="translate(545.818 608)">再次获得乐</text><text fill="#196B24" fill-opacity="1" font-family="SimSun,SimSun_MSFontService,Arial" font-style="normal" font-variant="normal" font-weight="700" font-stretch="normal" font-size="18" text-anchor="start" direction="ltr" writing-mode="lr-tb" unicode-bidi="normal" text-decoration="none" transform="translate(531.816 638)">→</text><text fill="#196B24" fill-opacity="1" font-family="SimSun,SimSun_MSFontService,Arial" font-style="normal" font-variant="normal" font-weight="700" font-stretch="normal" font-size="18" text-anchor="start" direction="ltr" writing-mode="lr-tb" unicode-bidi="normal" text-decoration="none" transform="translate(559.454 638)">喜欢、满意</text><rect x="530" y="320" width="15.9998" height="134" fill="#AACCE7" fill-opacity="1"/><path d="M501 438.8C501 432.835 505.835 428 511.8 428L671.2 428C677.165 428 682 432.835 682 438.8L682 525.2C682 531.165 677.165 536 671.2 536L511.8 536C505.835 536 501 531.165 501 525.2Z" stroke="#0F9ED5" stroke-width="5.72917" stroke-linecap="butt" stroke-linejoin="miter" stroke-miterlimit="8" stroke-opacity="1" fill="#FFFFFF" fill-rule="evenodd" fill-opacity="1"/><text fill="#0B76A0" fill-opacity="1" font-family="SimSun,SimSun_MSFontService,Arial" font-style="normal" font-variant="normal" font-weight="400" font-stretch="normal" font-size="18" text-anchor="start" direction="ltr" writing-mode="lr-tb" unicode-bidi="normal" text-decoration="none" transform="translate(573.307 457)">确信</text><text fill="#0B76A0" fill-opacity="1" font-family="SimSun,SimSun_MSFontService,Arial" font-style="normal" font-variant="normal" font-weight="400" font-stretch="normal" font-size="18" text-anchor="start" direction="ltr" writing-mode="lr-tb" unicode-bidi="normal" text-decoration="none" transform="translate(536.64 487)">吸烟能带来乐</text><text fill="#0B76A0" fill-opacity="1" font-family="SimSun,SimSun_MSFontService,Arial" font-style="normal" font-variant="normal" font-weight="700" font-stretch="normal" font-size="18" text-anchor="start" direction="ltr" writing-mode="lr-tb" unicode-bidi="normal" text-decoration="none" transform="translate(541.017 517)">→</text><text fill="#0B76A0" fill-opacity="1" font-family="SimSun,SimSun_MSFontService,Arial" font-style="normal" font-variant="normal" font-weight="700" font-stretch="normal" font-size="18" text-anchor="start" direction="ltr" writing-mode="lr-tb" unicode-bidi="normal" text-decoration="none" transform="translate(568.655 517)">成瘾洗脑</text><rect x="539" y="311" width="240" height="15.9998" fill="#AACCE7" fill-opacity="1"/><path d="M501 301.9C501 295.88 505.88 291 511.9 291L671.1 291C677.12 291 682 295.88 682 301.9L682 389.1C682 395.12 677.12 400 671.1 400L511.9 400C505.88 400 501 395.12 501 389.1Z" stroke="#A02B93" stroke-width="5.72917" stroke-linecap="butt" stroke-linejoin="miter" stroke-miterlimit="8" stroke-opacity="1" fill="#FFFFFF" fill-rule="evenodd" fill-opacity="1"/><text fill="#A02B93" fill-opacity="1" font-family="SimSun,SimSun_MSFontService,Arial" font-style="normal" font-variant="normal" font-weight="400" font-stretch="normal" font-size="18" text-anchor="start" direction="ltr" writing-mode="lr-tb" unicode-bidi="normal" text-decoration="none" transform="translate(545.807 336)">想要更多乐</text><text fill="#A02B93" fill-opacity="1" font-family="SimSun,SimSun_MSFontService,Arial" font-style="normal" font-variant="normal" font-weight="700" font-stretch="normal" font-size="18" text-anchor="start" direction="ltr" writing-mode="lr-tb" unicode-bidi="normal" text-decoration="none" transform="translate(559.419 366)">→</text><text fill="#A02B93" fill-opacity="1" font-family="SimSun,SimSun_MSFontService,Arial" font-style="normal" font-variant="normal" font-weight="700" font-stretch="normal" font-size="18" text-anchor="start" direction="ltr" writing-mode="lr-tb" unicode-bidi="normal" text-decoration="none" transform="translate(587.057 366)">趋利</text><rect x="771" y="320" width="16.9998" height="134" fill="#AACCE7" fill-opacity="1"/><path d="M742 301.9C742 295.88 746.88 291 752.9 291L913.1 291C919.12 291 924 295.88 924 301.9L924 389.1C924 395.12 919.12 400 913.1 400L752.9 400C746.88 400 742 395.12 742 389.1Z" stroke="#000000" stroke-width="5.72917" stroke-linecap="butt" stroke-linejoin="miter" stroke-miterlimit="8" stroke-opacity="1" fill="#FFFFFF" fill-rule="evenodd" fill-opacity="1"/><text fill="#000000" fill-opacity="1" font-family="SimSun,SimSun_MSFontService,Arial" font-style="normal" font-variant="normal" font-weight="400" font-stretch="normal" font-size="18" text-anchor="start" direction="ltr" writing-mode="lr-tb" unicode-bidi="normal" text-decoration="none" transform="translate(805.476 336)">吸烟量</text><text fill="#000000" fill-opacity="1" font-family="SimSun,SimSun_MSFontService,Arial" font-style="normal" font-variant="normal" font-weight="400" font-stretch="normal" font-size="18" text-anchor="start" direction="ltr" writing-mode="lr-tb" unicode-bidi="normal" text-decoration="none" transform="translate(796.31 366)">持续增加</text><rect x="771" y="456" width="16.9998" height="134" fill="#AACCE7" fill-opacity="1"/><path d="M742 438.8C742 432.835 746.836 428 752.8 428L913.2 428C919.165 428 924 432.835 924 438.8L924 525.2C924 531.165 919.165 536 913.2 536L752.8 536C746.836 536 742 531.165 742 525.2Z" stroke="#196B24" stroke-width="5.72917" stroke-linecap="butt" stroke-linejoin="miter" stroke-miterlimit="8" stroke-opacity="1" fill="#FFFFFF" fill-rule="evenodd" fill-opacity="1"/><text fill="#C04F15" fill-opacity="1" font-family="SimSun,SimSun_MSFontService,Arial" font-style="normal" font-variant="normal" font-weight="400" font-stretch="normal" font-size="18" text-anchor="start" direction="ltr" writing-mode="lr-tb" unicode-bidi="normal" text-decoration="none" transform="translate(787.154 472)">乐反而减少</text><text fill="#196B24" fill-opacity="1" font-family="SimSun,SimSun_MSFontService,Arial" font-style="normal" font-variant="normal" font-weight="700" font-stretch="normal" font-size="18" text-anchor="start" direction="ltr" writing-mode="lr-tb" unicode-bidi="normal" text-decoration="none" transform="translate(754.75 502)">→</text><text fill="#196B24" fill-opacity="1" font-family="SimSun,SimSun_MSFontService,Arial" font-style="normal" font-variant="normal" font-weight="700" font-stretch="normal" font-size="18" text-anchor="start" direction="ltr" writing-mode="lr-tb" unicode-bidi="normal" text-decoration="none" transform="translate(782.388 502)">不喜欢、不满意</text><rect x="771" y="592" width="16.9998" height="134" fill="#AACCE7" fill-opacity="1"/><path d="M742 574.9C742 568.88 746.88 564 752.9 564L913.1 564C919.12 564 924 568.88 924 574.9L924 662.1C924 668.12 919.12 673 913.1 673L752.9 673C746.88 673 742 668.12 742 662.1Z" stroke="#A02B93" stroke-width="5.72917" stroke-linecap="butt" stroke-linejoin="miter" stroke-miterlimit="8" stroke-opacity="1" fill="#FFFFFF" fill-rule="evenodd" fill-opacity="1"/><text fill="#A02B93" fill-opacity="1" font-family="SimSun,SimSun_MSFontService,Arial" font-style="normal" font-variant="normal" font-weight="400" font-stretch="normal" font-size="18" text-anchor="start" direction="ltr" writing-mode="lr-tb" unicode-bidi="normal" text-decoration="none" transform="translate(777.976 608)">不想要乐减少</text><text fill="#A02B93" fill-opacity="1" font-family="SimSun,SimSun_MSFontService,Arial" font-style="normal" font-variant="normal" font-weight="700" font-stretch="normal" font-size="18" text-anchor="start" direction="ltr" writing-mode="lr-tb" unicode-bidi="normal" text-decoration="none" transform="translate(800.755 638)">→</text><text fill="#A02B93" fill-opacity="1" font-family="SimSun,SimSun_MSFontService,Arial" font-style="normal" font-variant="normal" font-weight="700" font-stretch="normal" font-size="18" text-anchor="start" direction="ltr" writing-mode="lr-tb" unicode-bidi="normal" text-decoration="none" transform="translate(828.393 638)">避害</text><rect x="771" y="728" width="16.9998" height="134" fill="#AACCE7" fill-opacity="1"/><path d="M742 710.9C742 704.88 746.88 700 752.9 700L913.1 700C919.12 700 924 704.88 924 710.9L924 798.1C924 804.12 919.12 809 913.1 809L752.9 809C746.88 809 742 804.12 742 798.1Z" stroke="#000000" stroke-width="5.72917" stroke-linecap="butt" stroke-linejoin="miter" stroke-miterlimit="8" stroke-opacity="1" fill="#FFFFFF" fill-rule="evenodd" fill-opacity="1"/><text fill="#000000" fill-opacity="1" font-family="SimSun,SimSun_MSFontService,Arial" font-style="normal" font-variant="normal" font-weight="400" font-stretch="normal" font-size="18" text-anchor="start" direction="ltr" writing-mode="lr-tb" unicode-bidi="normal" text-decoration="none" transform="translate(805.476 745)">吸烟量</text><text fill="#000000" fill-opacity="1" font-family="SimSun,SimSun_MSFontService,Arial" font-style="normal" font-variant="normal" font-weight="400" font-stretch="normal" font-size="18" text-anchor="start" direction="ltr" writing-mode="lr-tb" unicode-bidi="normal" text-decoration="none" transform="translate(787.143 775)">增加到极限</text><rect x="781" y="855" width="239" height="16.0002" fill="#AACCE7" fill-opacity="1"/><path d="M742 846.9C742 840.88 746.88 836 752.9 836L913.1 836C919.12 836 924 840.88 924 846.9L924 934.1C924 940.12 919.12 945 913.1 945L752.9 945C746.88 945 742 940.12 742 934.1Z" stroke="#196B24" stroke-width="5.72917" stroke-linecap="butt" stroke-linejoin="miter" stroke-miterlimit="8" stroke-opacity="1" fill="#FFFFFF" fill-rule="evenodd" fill-opacity="1"/><text fill="#C04F15" fill-opacity="1" font-family="SimSun,SimSun_MSFontService,Arial" font-style="normal" font-variant="normal" font-weight="400" font-stretch="normal" font-size="18" text-anchor="start" direction="ltr" writing-mode="lr-tb" unicode-bidi="normal" text-decoration="none" transform="translate(787.154 881)">感到被强迫</text><text fill="#196B24" fill-opacity="1" font-family="SimSun,SimSun_MSFontService,Arial" font-style="normal" font-variant="normal" font-weight="700" font-stretch="normal" font-size="18" text-anchor="start" direction="ltr" writing-mode="lr-tb" unicode-bidi="normal" text-decoration="none" transform="translate(754.75 911)">→</text><text fill="#196B24" fill-opacity="1" font-family="SimSun,SimSun_MSFontService,Arial" font-style="normal" font-variant="normal" font-weight="700" font-stretch="normal" font-size="18" text-anchor="start" direction="ltr" writing-mode="lr-tb" unicode-bidi="normal" text-decoration="none" transform="translate(782.388 911)">不喜欢、不满意</text><rect x="1013" y="728" width="15.9998" height="134" fill="#AACCE7" fill-opacity="1"/><path d="M984 846.9C984 840.88 988.88 836 994.9 836L1154.1 836C1160.12 836 1165 840.88 1165 846.9L1165 934.1C1165 940.12 1160.12 945 1154.1 945L994.9 945C988.88 945 984 940.12 984 934.1Z" stroke="#A02B93" stroke-width="5.72917" stroke-linecap="butt" stroke-linejoin="miter" stroke-miterlimit="8" stroke-opacity="1" fill="#FFFFFF" fill-rule="evenodd" fill-opacity="1"/><text fill="#A02B93" fill-opacity="1" font-family="SimSun,SimSun_MSFontService,Arial" font-style="normal" font-variant="normal" font-weight="400" font-stretch="normal" font-size="18" text-anchor="start" direction="ltr" writing-mode="lr-tb" unicode-bidi="normal" text-decoration="none" transform="translate(1010.01 870)">想戒烟</text><text fill="#A02B93" fill-opacity="1" font-family="SimSun,SimSun_MSFontService,Arial" font-style="normal" font-variant="normal" font-weight="700" font-stretch="normal" font-size="18" text-anchor="start" direction="ltr" writing-mode="lr-tb" unicode-bidi="normal" text-decoration="none" transform="translate(1074.18 870)">→</text><text fill="#A02B93" fill-opacity="1" font-family="SimSun,SimSun_MSFontService,Arial" font-style="normal" font-variant="normal" font-weight="700" font-stretch="normal" font-size="18" text-anchor="start" direction="ltr" writing-mode="lr-tb" unicode-bidi="normal" text-decoration="none" transform="translate(1101.81 870)">避害</text><text fill="#A02B93" fill-opacity="1" font-family="SimSun,SimSun_MSFontService,Arial" font-style="normal" font-variant="normal" font-weight="400" font-stretch="normal" font-size="18" text-anchor="start" direction="ltr" writing-mode="lr-tb" unicode-bidi="normal" text-decoration="none" transform="translate(1000.98 900)">不想牺牲吸烟的好</text><text fill="#A02B93" fill-opacity="1" font-family="SimSun,SimSun_MSFontService,Arial" font-style="normal" font-variant="normal" font-weight="400" font-stretch="normal" font-size="18" text-anchor="start" direction="ltr" writing-mode="lr-tb" unicode-bidi="normal" text-decoration="none" transform="translate(1028.34 921)">处</text><text fill="#A02B93" fill-opacity="1" font-family="SimSun,SimSun_MSFontService,Arial" font-style="normal" font-variant="normal" font-weight="700" font-stretch="normal" font-size="18" text-anchor="start" direction="ltr" writing-mode="lr-tb" unicode-bidi="normal" text-decoration="none" transform="translate(1055.84 921)">→</text><text fill="#A02B93" fill-opacity="1" font-family="SimSun,SimSun_MSFontService,Arial" font-style="normal" font-variant="normal" font-weight="700" font-stretch="normal" font-size="18" text-anchor="start" direction="ltr" writing-mode="lr-tb" unicode-bidi="normal" text-decoration="none" transform="translate(1083.48 921)">趋利</text><rect x="1013" y="592" width="15.9998" height="134" fill="#AACCE7" fill-opacity="1"/><path d="M984.5 711.4C984.5 705.38 989.38 700.5 995.4 700.5L1154.6 700.5C1160.62 700.5 1165.5 705.38 1165.5 711.4L1165.5 798.6C1165.5 804.62 1160.62 809.5 1154.6 809.5L995.4 809.5C989.38 809.5 984.5 804.62 984.5 798.6Z" stroke="#196B24" stroke-width="4.58333" stroke-linecap="butt" stroke-linejoin="miter" stroke-miterlimit="8" stroke-opacity="1" fill="#FFFFFF" fill-rule="evenodd" fill-opacity="1"/><text fill="#C04F15" fill-opacity="1" font-family="SimSun,SimSun_MSFontService,Arial" font-style="normal" font-variant="normal" font-weight="400" font-stretch="normal" font-size="18" text-anchor="start" direction="ltr" writing-mode="lr-tb" unicode-bidi="normal" text-decoration="none" transform="translate(1010.16 745)">戒烟失败，懊恼</text><text fill="#196B24" fill-opacity="1" font-family="SimSun,SimSun_MSFontService,Arial" font-style="normal" font-variant="normal" font-weight="700" font-stretch="normal" font-size="18" text-anchor="start" direction="ltr" writing-mode="lr-tb" unicode-bidi="normal" text-decoration="none" transform="translate(996.086 775)">→</text><text fill="#196B24" fill-opacity="1" font-family="SimSun,SimSun_MSFontService,Arial" font-style="normal" font-variant="normal" font-weight="700" font-stretch="normal" font-size="18" text-anchor="start" direction="ltr" writing-mode="lr-tb" unicode-bidi="normal" text-decoration="none" transform="translate(1023.72 775)">不喜欢、不满意</text><rect x="1013" y="456" width="15.9998" height="134" fill="#AACCE7" fill-opacity="1"/><path d="M984 574.9C984 568.88 988.88 564 994.9 564L1154.1 564C1160.12 564 1165 568.88 1165 574.9L1165 662.1C1165 668.12 1160.12 673 1154.1 673L994.9 673C988.88 673 984 668.12 984 662.1Z" stroke="#A02B93" stroke-width="5.72917" stroke-linecap="butt" stroke-linejoin="miter" stroke-miterlimit="8" stroke-opacity="1" fill="#FFFFFF" fill-rule="evenodd" fill-opacity="1"/><text fill="#A02B93" fill-opacity="1" font-family="SimSun,SimSun_MSFontService,Arial" font-style="normal" font-variant="normal" font-weight="400" font-stretch="normal" font-size="18" text-anchor="start" direction="ltr" writing-mode="lr-tb" unicode-bidi="normal" text-decoration="none" transform="translate(1019.31 608)">重新开始吸烟</text><text fill="#A02B93" fill-opacity="1" font-family="SimSun,SimSun_MSFontService,Arial" font-style="normal" font-variant="normal" font-weight="700" font-stretch="normal" font-size="18" text-anchor="start" direction="ltr" writing-mode="lr-tb" unicode-bidi="normal" text-decoration="none" transform="translate(1042.09 638)">→</text><text fill="#A02B93" fill-opacity="1" font-family="SimSun,SimSun_MSFontService,Arial" font-style="normal" font-variant="normal" font-weight="700" font-stretch="normal" font-size="18" text-anchor="start" direction="ltr" writing-mode="lr-tb" unicode-bidi="normal" text-decoration="none" transform="translate(1069.73 638)">避害</text><rect x="1013" y="320" width="15.9998" height="134" fill="#AACCE7" fill-opacity="1"/><path d="M984 438.8C984 432.835 988.836 428 994.8 428L1154.2 428C1160.16 428 1165 432.835 1165 438.8L1165 525.2C1165 531.164 1160.16 536 1154.2 536L994.8 536C988.836 536 984 531.164 984 525.2Z" stroke="#196B24" stroke-width="5.72917" stroke-linecap="butt" stroke-linejoin="miter" stroke-miterlimit="8" stroke-opacity="1" fill="#FFFFFF" fill-rule="evenodd" fill-opacity="1"/><text fill="#C04F15" fill-opacity="1" font-family="SimSun,SimSun_MSFontService,Arial" font-style="normal" font-variant="normal" font-weight="400" font-stretch="normal" font-size="18" text-anchor="start" direction="ltr" writing-mode="lr-tb" unicode-bidi="normal" text-decoration="none" transform="translate(1028.49 472)">再次获得乐</text><text fill="#196B24" fill-opacity="1" font-family="SimSun,SimSun_MSFontService,Arial" font-style="normal" font-variant="normal" font-weight="700" font-stretch="normal" font-size="18" text-anchor="start" direction="ltr" writing-mode="lr-tb" unicode-bidi="normal" text-decoration="none" transform="translate(1014.49 502)">→</text><text fill="#196B24" fill-opacity="1" font-family="SimSun,SimSun_MSFontService,Arial" font-style="normal" font-variant="normal" font-weight="700" font-stretch="normal" font-size="18" text-anchor="start" direction="ltr" writing-mode="lr-tb" unicode-bidi="normal" text-decoration="none" transform="translate(1042.13 502)">喜欢、满意</text><rect x="1022" y="311" width="239" height="15.9998" fill="#AACCE7" fill-opacity="1"/><path d="M984 301.9C984 295.88 988.88 291 994.9 291L1154.1 291C1160.12 291 1165 295.88 1165 301.9L1165 389.1C1165 395.12 1160.12 400 1154.1 400L994.9 400C988.88 400 984 395.12 984 389.1Z" stroke="#0F9ED5" stroke-width="5.72917" stroke-linecap="butt" stroke-linejoin="miter" stroke-miterlimit="8" stroke-opacity="1" fill="#FFFFFF" fill-rule="evenodd" fill-opacity="1"/><text fill="#0B76A0" fill-opacity="1" font-family="SimSun,SimSun_MSFontService,Arial" font-style="normal" font-variant="normal" font-weight="400" font-stretch="normal" font-size="18" text-anchor="start" direction="ltr" writing-mode="lr-tb" unicode-bidi="normal" text-decoration="none" transform="translate(1019.31 321)">确认烟戒不掉</text><text fill="#0B76A0" fill-opacity="1" font-family="SimSun,SimSun_MSFontService,Arial" font-style="normal" font-variant="normal" font-weight="400" font-stretch="normal" font-size="18" text-anchor="start" direction="ltr" writing-mode="lr-tb" unicode-bidi="normal" text-decoration="none" transform="translate(1010.15 351)">继续吸烟比较好</text><text fill="#0B76A0" fill-opacity="1" font-family="SimSun,SimSun_MSFontService,Arial" font-style="normal" font-variant="normal" font-weight="700" font-stretch="normal" font-size="18" text-anchor="start" direction="ltr" writing-mode="lr-tb" unicode-bidi="normal" text-decoration="none" transform="translate(1023.69 381)">→</text><text fill="#0B76A0" fill-opacity="1" font-family="SimSun,SimSun_MSFontService,Arial" font-style="normal" font-variant="normal" font-weight="700" font-stretch="normal" font-size="18" text-anchor="start" direction="ltr" writing-mode="lr-tb" unicode-bidi="normal" text-decoration="none" transform="translate(1051.33 381)">成瘾洗脑</text><rect x="1254" y="320" width="16.0001" height="134" fill="#AACCE7" fill-opacity="1"/><path d="M1225 301.9C1225 295.88 1229.88 291 1235.9 291L1395.1 291C1401.12 291 1406 295.88 1406 301.9L1406 389.1C1406 395.12 1401.12 400 1395.1 400L1235.9 400C1229.88 400 1225 395.12 1225 389.1Z" stroke="#3A3A3A" stroke-width="5.72917" stroke-linecap="butt" stroke-linejoin="miter" stroke-miterlimit="8" stroke-opacity="1" fill="#FFFFFF" fill-rule="evenodd" fill-opacity="1"/><text fill="#000000" fill-opacity="1" font-family="SimSun,SimSun_MSFontService,Arial" font-style="normal" font-variant="normal" font-weight="400" font-stretch="normal" font-size="18" text-anchor="start" direction="ltr" writing-mode="lr-tb" unicode-bidi="normal" text-decoration="none" transform="translate(1288.15 336)">吸烟量</text><text fill="#000000" fill-opacity="1" font-family="SimSun,SimSun_MSFontService,Arial" font-style="normal" font-variant="normal" font-weight="400" font-stretch="normal" font-size="18" text-anchor="start" direction="ltr" writing-mode="lr-tb" unicode-bidi="normal" text-decoration="none" transform="translate(1278.98 366)">超越极限</text><rect x="1254" y="456" width="16.0001" height="134" fill="#AACCE7" fill-opacity="1"/><path d="M1225 438.8C1225 432.835 1229.84 428 1235.8 428L1395.2 428C1401.16 428 1406 432.835 1406 438.8L1406 525.2C1406 531.164 1401.16 536 1395.2 536L1235.8 536C1229.84 536 1225 531.164 1225 525.2Z" stroke="#196B24" stroke-width="5.72917" stroke-linecap="butt" stroke-linejoin="miter" stroke-miterlimit="8" stroke-opacity="1" fill="#FFFFFF" fill-rule="evenodd" fill-opacity="1"/><text fill="#C04F15" fill-opacity="1" font-family="SimSun,SimSun_MSFontService,Arial" font-style="normal" font-variant="normal" font-weight="400" font-stretch="normal" font-size="18" text-anchor="start" direction="ltr" writing-mode="lr-tb" unicode-bidi="normal" text-decoration="none" transform="translate(1260.65 457)">乐更少苦更多</text><text fill="#C04F15" fill-opacity="1" font-family="SimSun,SimSun_MSFontService,Arial" font-style="normal" font-variant="normal" font-weight="400" font-stretch="normal" font-size="18" text-anchor="start" direction="ltr" writing-mode="lr-tb" unicode-bidi="normal" text-decoration="none" transform="translate(1242.32 487)">自卑、匮乏、懊恼</text><text fill="#196B24" fill-opacity="1" font-family="SimSun,SimSun_MSFontService,Arial" font-style="normal" font-variant="normal" font-weight="700" font-stretch="normal" font-size="18" text-anchor="start" direction="ltr" writing-mode="lr-tb" unicode-bidi="normal" text-decoration="none" transform="translate(1274.22 517)">→</text><text fill="#196B24" fill-opacity="1" font-family="SimSun,SimSun_MSFontService,Arial" font-style="normal" font-variant="normal" font-weight="700" font-stretch="normal" font-size="18" text-anchor="start" direction="ltr" writing-mode="lr-tb" unicode-bidi="normal" text-decoration="none" transform="translate(1301.85 517)">不满意</text><rect x="1254" y="592" width="16.0001" height="134" fill="#AACCE7" fill-opacity="1"/><path d="M1225 574.9C1225 568.88 1229.88 564 1235.9 564L1395.1 564C1401.12 564 1406 568.88 1406 574.9L1406 662.1C1406 668.12 1401.12 673 1395.1 673L1235.9 673C1229.88 673 1225 668.12 1225 662.1Z" stroke="#A02B93" stroke-width="5.72917" stroke-linecap="butt" stroke-linejoin="miter" stroke-miterlimit="8" stroke-opacity="1" fill="#FFFFFF" fill-rule="evenodd" fill-opacity="1"/><text fill="#A02B93" fill-opacity="1" font-family="SimSun,SimSun_MSFontService,Arial" font-style="normal" font-variant="normal" font-weight="400" font-stretch="normal" font-size="18" text-anchor="start" direction="ltr" writing-mode="lr-tb" unicode-bidi="normal" text-decoration="none" transform="translate(1269.82 608)">戒更多次烟</text><text fill="#A02B93" fill-opacity="1" font-family="SimSun,SimSun_MSFontService,Arial" font-style="normal" font-variant="normal" font-weight="700" font-stretch="normal" font-size="18" text-anchor="start" direction="ltr" writing-mode="lr-tb" unicode-bidi="normal" text-decoration="none" transform="translate(1283.43 638)">→</text><text fill="#A02B93" fill-opacity="1" font-family="SimSun,SimSun_MSFontService,Arial" font-style="normal" font-variant="normal" font-weight="700" font-stretch="normal" font-size="18" text-anchor="start" direction="ltr" writing-mode="lr-tb" unicode-bidi="normal" text-decoration="none" transform="translate(1311.07 638)">避害</text><rect x="1254" y="728" width="16.0001" height="134" fill="#AACCE7" fill-opacity="1"/><path d="M1225 710.9C1225 704.88 1229.88 700 1235.9 700L1395.1 700C1401.12 700 1406 704.88 1406 710.9L1406 798.1C1406 804.12 1401.12 809 1395.1 809L1235.9 809C1229.88 809 1225 804.12 1225 798.1Z" stroke="#196B24" stroke-width="5.72917" stroke-linecap="butt" stroke-linejoin="miter" stroke-miterlimit="8" stroke-opacity="1" fill="#FFFFFF" fill-rule="evenodd" fill-opacity="1"/><text fill="#C04F15" fill-opacity="1" font-family="SimSun,SimSun_MSFontService,Arial" font-style="normal" font-variant="normal" font-weight="400" font-stretch="normal" font-size="18" text-anchor="start" direction="ltr" writing-mode="lr-tb" unicode-bidi="normal" text-decoration="none" transform="translate(1269.82 730)">失败更多次</text><text fill="#C04F15" fill-opacity="1" font-family="SimSun,SimSun_MSFontService,Arial" font-style="normal" font-variant="normal" font-weight="400" font-stretch="normal" font-size="18" text-anchor="start" direction="ltr" writing-mode="lr-tb" unicode-bidi="normal" text-decoration="none" transform="translate(1260.65 760)">无法解脱的苦</text><text fill="#196B24" fill-opacity="1" font-family="SimSun,SimSun_MSFontService,Arial" font-style="normal" font-variant="normal" font-weight="700" font-stretch="normal" font-size="18" text-anchor="start" direction="ltr" writing-mode="lr-tb" unicode-bidi="normal" text-decoration="none" transform="translate(1274.22 790)">→</text><text fill="#196B24" fill-opacity="1" font-family="SimSun,SimSun_MSFontService,Arial" font-style="normal" font-variant="normal" font-weight="700" font-stretch="normal" font-size="18" text-anchor="start" direction="ltr" writing-mode="lr-tb" unicode-bidi="normal" text-decoration="none" transform="translate(1301.85 790)">不满意</text><path d="M1225 846.9C1225 840.88 1229.88 836 1235.9 836L1395.1 836C1401.12 836 1406 840.88 1406 846.9L1406 934.1C1406 940.12 1401.12 945 1395.1 945L1235.9 945C1229.88 945 1225 940.12 1225 934.1Z" stroke="#000000" stroke-width="5.72917" stroke-linecap="butt" stroke-linejoin="miter" stroke-miterlimit="8" stroke-opacity="1" fill="#FFFFFF" fill-rule="evenodd" fill-opacity="1"/><text fill="#000000" fill-opacity="1" font-family="SimSun,SimSun_MSFontService,Arial" font-style="normal" font-variant="normal" font-weight="700" font-stretch="normal" font-size="18" text-anchor="start" direction="ltr" writing-mode="lr-tb" unicode-bidi="normal" text-decoration="none" transform="translate(1242.04 881)">被迫持续吸更多烟</text><text fill="#000000" fill-opacity="1" font-family="SimSun,SimSun_MSFontService,Arial" font-style="normal" font-variant="normal" font-weight="700" font-stretch="normal" font-size="18" text-anchor="start" direction="ltr" writing-mode="lr-tb" unicode-bidi="normal" text-decoration="none" transform="translate(1246.62 911)">→</text><text fill="#000000" fill-opacity="1" font-family="SimSun,SimSun_MSFontService,Arial" font-style="normal" font-variant="normal" font-weight="700" font-stretch="normal" font-size="18" text-anchor="start" direction="ltr" writing-mode="lr-tb" unicode-bidi="normal" text-decoration="none" transform="translate(1274.26 911)">成瘾的死循环</text></g></g></svg>