<svg xmlns="http://www.w3.org/2000/svg" width="39.717" height="46.687" viewBox="0 0 39.717 46.687"><g transform="translate(-3803.627 -88.413)"><path d="M3814.577,92.775l-6.327,6.565-.856,13.89,7.564,13.082-.381,9.514h19.647l-1.142-6.232,5.851-.571,2-1.855v-1.927l2-4.281-.143-2.64,2.426-2.426-3.282-5.994v-7.992l-3.854-6.993-5.423-2.141-7.564-2.426Z" transform="translate(-2.867 -1.474)" fill="#fff"/><path d="M3832.425,159.982a2.2,2.2,0,1,1-2.2-2.2,2.2,2.2,0,0,1,2.2,2.2m5.653,1.019a2.955,2.955,0,0,0-.149-.593c-.221-.475-.859-.588-1.265-.85a1.015,1.015,0,0,1-.316-.34,2.166,2.166,0,0,1-.3-.582,1,1,0,0,1,.028-.57.151.151,0,0,1,.1-.138c.136-.11.239-.236.364-.356s.269-.227.408-.334a.319.319,0,0,0,.157-.19.727.727,0,0,0,.2-.346c.058-.368-.24-.55-.416-.819a3.058,3.058,0,0,0-.447-.513,2.2,2.2,0,0,0-.253-.233c-.08-.074-.142-.181-.24-.233a1.158,1.158,0,0,0-.661-.051,3,3,0,0,1-.5.056,1.165,1.165,0,0,0-.416.091c-.134.045-.278.041-.414.078a.577.577,0,0,1-.407.015.569.569,0,0,1-.125-.109q-.16-.075-.314-.162c-.091-.071-.182-.141-.275-.21-.169-.161-.133-.337-.175-.551a4.94,4.94,0,0,1-.214-.726c0-.09.005-.18.009-.271a.457.457,0,0,0-.145-.288,1.043,1.043,0,0,0-.719-.466,4.561,4.561,0,0,0-.542-.007,3.77,3.77,0,0,0-.6,0,.657.657,0,0,0-.4.25.5.5,0,0,0-.069.252,1.946,1.946,0,0,1-.135.4,2.628,2.628,0,0,1-.607.872.707.707,0,0,1-.434.227,2.029,2.029,0,0,1-.635.109l.285-.107a1.62,1.62,0,0,0-.2-.095c-.136-.058-.249-.145-.384-.2s-.313-.053-.457-.117a3.337,3.337,0,0,1-.292-.194c-.229-.134-.41-.391-.68-.452-.06-.013-.135-.04-.193-.047l-.076-.022a.039.039,0,0,0-.032.059,1.563,1.563,0,0,0-.359.229l-.041.075a.573.573,0,0,1-.188.115c-.078.053-.1.126-.165.19a1.958,1.958,0,0,1-.208.159,1.2,1.2,0,0,0-.193.2.471.471,0,0,0-.134.4c.036.185.22.333.285.515a1.9,1.9,0,0,0,.087.273c.035.065.1.105.129.169.047.09.016.172.03.265s.058.15.076.236a.414.414,0,0,1-.073.332c-.062.089-.106.186-.168.27a4,4,0,0,1-.308.275c-.045.048-.037.064-.1.119a1.151,1.151,0,0,1-.393.214c-.211.065-.421.129-.63.2a2.138,2.138,0,0,1-.347.044c-.1.018-.185.074-.287.092a.951.951,0,0,0-.361.1.719.719,0,0,0-.137.146,1.343,1.343,0,0,0-.256.3c-.042.1,0,.169.028.26a.889.889,0,0,1,.036.273,2.186,2.186,0,0,1-.062.431c-.033.139-.07.206.011.336.12.192.366.3.539.43a4.611,4.611,0,0,0,.725.462,1.254,1.254,0,0,1,.552.447.986.986,0,0,1,.129.917,1.71,1.71,0,0,0-.149.333.865.865,0,0,1-.091.325c-.062.1-.165.159-.237.251a3.706,3.706,0,0,1-.245.322,1.218,1.218,0,0,0-.285.334c-.034.074-.052.156-.09.229s-.154.167-.154.253c0,.114.258.184.338.227.4.216.621.653.912.979a.476.476,0,0,0,.38.115.947.947,0,0,0,.4-.085,5.964,5.964,0,0,1,.758-.155.792.792,0,0,1,.355,0l.14.041a.109.109,0,0,0,.137-.041.617.617,0,0,1,.424.083,1.947,1.947,0,0,1,.449.432,1.359,1.359,0,0,1,.192.259c.074.139.065.3.137.443a2.363,2.363,0,0,1,.191.508c.054.229-.081.47,0,.687.067.175.28.253.438.328a1.48,1.48,0,0,0,.635.167,2.125,2.125,0,0,0,.542-.055c.115-.029.239.006.345-.054a1.576,1.576,0,0,0,.239-.2c.091-.083.146-.2.228-.3a1.632,1.632,0,0,0,.283-.358,1.683,1.683,0,0,1,.174-.334c.086-.109.181-.208.262-.32a.7.7,0,0,1,.4-.3,1.352,1.352,0,0,1,.611-.114,2.258,2.258,0,0,1,.532.263c.088.05.141.128.228.182.115.071.154.055.188.175s-.04.067.075.154a.525.525,0,0,0,.174.081c.045.016.095.02.147.042a.759.759,0,0,0,.26.073,1.585,1.585,0,0,0,.63.012,1.612,1.612,0,0,0,.293-.15.847.847,0,0,0,.327-.2.731.731,0,0,1,.178-.228c.1-.084.2-.117.231-.263a1.488,1.488,0,0,0,0-.3,1.84,1.84,0,0,0-.069-.846c-.214-.475-.553-1.089-.034-1.49a5.2,5.2,0,0,1,1.64-.723,2.947,2.947,0,0,0,.353-.13,2.411,2.411,0,0,1,.466-.232c.3-.074.362-.309.451-.58a.987.987,0,0,0-.077-.557" transform="translate(-14.268 -48.623)" fill="#dc263f"/><path d="M3890.722,128.687v0a.4.4,0,0,0-.1-.064,1.217,1.217,0,0,0-.215-.009c.072.005.11.065.183.077a.747.747,0,0,0,.133,0m0,0h0a.224.224,0,0,1-.006.028c.026,0,.022-.015.01-.028m.088-.135-.026-.017a.263.263,0,0,0-.038.051.514.514,0,0,0-.027.1l0,0a.257.257,0,0,1,.043,0c-.023-.018-.017-.033-.026-.057.012-.024.055-.052.072-.078m-4.125-4.834a1.9,1.9,0,1,1-1.9-1.9,1.9,1.9,0,0,1,1.9,1.9m5.7-1.5a.966.966,0,0,0-.05-.3,1.06,1.06,0,0,0-.455-.4,2.085,2.085,0,0,0-.93-.22c-.4-.024-.8.069-1.19.025-.09-.01-.417-.016-.478-.1a.059.059,0,0,1-.007-.067c0-.017,0-.034,0-.051a.654.654,0,0,0-.141-.229c-.123-.168-.219-.345-.347-.51s-.042-.179.06-.343q.064-.13.117-.266a2.315,2.315,0,0,0,.122-.635.418.418,0,0,1,.1-.278c.072-.113.137-.238.216-.346.117-.162.29-.275.316-.49a.753.753,0,0,0-.069-.439,1.386,1.386,0,0,0-.219-.165,2.8,2.8,0,0,0-.534-.245q-.116-.042-.228-.094c-.12-.072-.173-.157-.331-.158-.27,0-.448.255-.613.429a3.878,3.878,0,0,1-.777.636c-.143.086-.281.179-.417.277-.08.054-.234.12-.282.218s.009.1.036.18a.974.974,0,0,1-.4,0,1.259,1.259,0,0,1-.477-.131.349.349,0,0,1-.194-.357.145.145,0,0,0,0-.132c-.029-.056-.173-.1-.219-.157a.629.629,0,0,1-.118-.263,1.5,1.5,0,0,0-.429-.668,3.5,3.5,0,0,1-.489-.533.713.713,0,0,1-.108-.229c-.01-.054.01-.107,0-.159a1.2,1.2,0,0,0-.621.113c-.111.035-.217.082-.326.118-.079.027-.163-.01-.237.027-.106.051-.042.088-.014.159.043.108.09.219.123.33.074.245-.09.406-.1.644a1.091,1.091,0,0,1-.2.5,1.345,1.345,0,0,0-.158.308.984.984,0,0,0,.021.38,1.974,1.974,0,0,0,.129.324c.059.172-.05.287-.168.4a3.283,3.283,0,0,1-.947.66l.214-.214a.451.451,0,0,1-.235-.04,6.178,6.178,0,0,0-.67-.166,3.742,3.742,0,0,1-.43-.141c-.115-.046-.133-.1-.224-.155a.865.865,0,0,0-.249-.084,2.563,2.563,0,0,1-.354-.157,1.2,1.2,0,0,0-.524-.152.463.463,0,0,0-.235.087,2.717,2.717,0,0,0-.4.252.543.543,0,0,0-.184.3c-.014.08-.041.163-.056.244-.031.157.052.238.136.357a3.957,3.957,0,0,0,.3.42,1.458,1.458,0,0,0,.352.243c.13.078.249.178.372.267.154.112.313.224.457.35a.581.581,0,0,1,.173.178,1,1,0,0,1,.051.185,1.227,1.227,0,0,1-.073.715c-.115.231-.043.57-.25.755a1.544,1.544,0,0,1-.333.192c-.085.046-.158.109-.246.15-.359.169-.75.268-1.111.438a1.433,1.433,0,0,0-.442.313.9.9,0,0,0-.242.425,1.107,1.107,0,0,0,.038.475,1.178,1.178,0,0,0,.169.474c.168.22.561.246.824.249.288,0,.576,0,.864,0a2.27,2.27,0,0,1,.358.029c.122.018.243.008.366.031a1.169,1.169,0,0,1,.411.123,1.914,1.914,0,0,1,.3.266.651.651,0,0,1,.229.4,1.621,1.621,0,0,0,.034.443.487.487,0,0,1,.023.327,1.583,1.583,0,0,1-.1.193c-.026.073-.048.147-.067.222-.046.131-.13.241-.168.376a3.775,3.775,0,0,0-.054.4,2.034,2.034,0,0,1-.29.648c-.111.194-.143.329.012.5.174.2.481.154.677.31.06.048.1.117.169.159a.412.412,0,0,0,.318,0c.355-.08.506-.489.726-.742a2.638,2.638,0,0,0,.183-.267,1.522,1.522,0,0,1,.384-.31,2.85,2.85,0,0,1,.5-.293,1.3,1.3,0,0,1,.553-.187,1,1,0,0,1,.252.086,1.2,1.2,0,0,1,.4.177.864.864,0,0,1,.2.216c.073.1.208.182.239.312.02.084-.015.172,0,.254s.092.133.113.229c.013.061.014.137.03.193.024.088.109.141.182.193-.064.045.006.112.035.165.068.125.218.214.29.35a1.922,1.922,0,0,0,.427.62.557.557,0,0,0,.655.047.919.919,0,0,0,.4-.326,1.217,1.217,0,0,0,.116-.556,3.532,3.532,0,0,0-.031-.356,1.857,1.857,0,0,1,.063-.508c.061-.324.161-.636.226-.957a1.017,1.017,0,0,1,.243-.526c.1-.093.2-.084.3-.158a.8.8,0,0,1,.264-.156.5.5,0,0,1,.25-.034.614.614,0,0,1,.309.088c.074.064.063.1.168.131a1.184,1.184,0,0,0,.3.024,4.792,4.792,0,0,1,.6,0,2.98,2.98,0,0,1,.7.211.822.822,0,0,1,.214.1c.073.05.146.1.222.147.064-.076.171-.138.234-.2a1.425,1.425,0,0,1,.349-.22c.162-.09.125-.269.184-.423a.645.645,0,0,0,.084-.216.961.961,0,0,0-.115-.148,2.256,2.256,0,0,1-.194-.31,1.741,1.741,0,0,0-.227-.288,1.064,1.064,0,0,0-.174-.173c-.149-.136-.276-.29-.424-.427a5.754,5.754,0,0,1-.64-.579.65.65,0,0,1-.2-.423,1.631,1.631,0,0,1,.13-.313,1.977,1.977,0,0,1,.129-.286,1.057,1.057,0,0,1,.4-.446,6,6,0,0,1,.814-.363q.206-.083.4-.185a2.467,2.467,0,0,0,.469-.235c.182-.137.428-.27.469-.514a1.638,1.638,0,0,0-.094-.569" transform="translate(-55.962 -21.007)" fill="#dc263f"/><path d="M3830.938,120.145a.945.945,0,1,1-.946-.945.946.946,0,0,1,.946.945m3.632-.936c.007-.139-.215-.238-.3-.279a3.757,3.757,0,0,0-1.533-.263.5.5,0,0,1-.439-.221c-.039-.089-.041-.189-.079-.281-.06-.143-.025-.149.037-.282s.109-.26.156-.381.046-.221.089-.332l.067-.15a1.988,1.988,0,0,1,.157-.232c.044-.128-.117-.345-.208-.423a.834.834,0,0,0-.484-.162c-.182.017-.342.2-.45.33a4.214,4.214,0,0,1-.5.6.572.572,0,0,1-.512.089c-.134-.032-.292-.043-.422-.083a.1.1,0,0,1-.1-.046.077.077,0,0,0-.068-.035l.143-.071c.026-.061-.062-.128-.089-.165a1.029,1.029,0,0,1-.123-.287,2.969,2.969,0,0,0-.415-.637c-.042-.063-.075-.119-.121-.176-.027-.035-.1-.156-.135-.17a.651.651,0,0,0-.406.128.581.581,0,0,0-.066.212,1.435,1.435,0,0,0-.076.365c-.007.2.04.4.039.607,0,.108.028.223-.042.309a2.832,2.832,0,0,1-.269.3,1.015,1.015,0,0,1-.44.287c-.142.033-.292.084-.436.1-.124.018-.128.012-.211-.057a2.525,2.525,0,0,0-.211-.165c-.057-.037-.1-.094-.155-.126a.829.829,0,0,0-.231-.059,1,1,0,0,0-.42-.04.384.384,0,0,0-.255.3,1.668,1.668,0,0,0-.039.223c-.007.109.066.147.13.222.24.283.553.507.769.812a.593.593,0,0,1,.07.287.669.669,0,0,1,.026.325.773.773,0,0,1-.385.361c-.13.068-.273.1-.4.172-.1.054-.22.064-.319.121a.856.856,0,0,0-.276.346.516.516,0,0,0-.044.313.469.469,0,0,0,.066.152c.032.069.03.134.087.194a.618.618,0,0,0,.151.1,1.23,1.23,0,0,0,.432.09c.166.018.329.046.494.071.122.019.241.048.363.071.083.016.063,0,.128.057l.176.158a.446.446,0,0,1,.179.3.8.8,0,0,1-.179.5,1.452,1.452,0,0,0-.18.25c-.024.057-.014.132-.038.194a.6.6,0,0,0-.034.212c0,.081-.042.165-.041.245a.62.62,0,0,0,.189.41.492.492,0,0,0,.238.151.4.4,0,0,0,.25-.067q.17-.071.336-.149a2.521,2.521,0,0,0,.636-.746.7.7,0,0,1,.282-.244.426.426,0,0,1,.295-.044.4.4,0,0,1,.209.065.883.883,0,0,1,.273.355c.062.144.172.234.242.371.168.33.168.833.583.968a.438.438,0,0,0,.294.034.871.871,0,0,0,.2-.266,1.862,1.862,0,0,0,.085-.908c0-.2-.064-.53.059-.707a.839.839,0,0,1,.623-.288.868.868,0,0,1,.382.022,1.591,1.591,0,0,1,.291.166,1.766,1.766,0,0,0,.523.239c.115.031.285.143.346-.006s-.091-.275.023-.433a.283.283,0,0,0,.077-.233.971.971,0,0,0-.314-.515,1.937,1.937,0,0,1-.286-.235.78.78,0,0,1-.091-.326c-.024-.111-.053-.214-.073-.327a1.647,1.647,0,0,1-.045-.255.456.456,0,0,1,.132-.2.634.634,0,0,1,.252-.182c.173-.066.338-.145.509-.216a5.66,5.66,0,0,0,.577-.241c.163-.09.127-.091.161-.241.019-.085.118-.154.123-.24" transform="translate(-16.713 -20.655)" fill="#dc263f"/><path d="M3821.444,88.413a18.548,18.548,0,0,0-13.735,5.674c-4.231,4.23-4.146,9.2-4.056,14.451.013.763.026,1.538.026,2.324,0,4.6,5.67,10.572,6.486,11.631l1.3,2.4a2.9,2.9,0,0,1,.315,1.792l-1,6.726a1.469,1.469,0,0,0,1.453,1.684h18.26a1.469,1.469,0,0,0,1.35-2.047c-.853-1.989-1.258-3.29-.918-4.329a4.709,4.709,0,0,1,1.471-.146c.357,0,.726.011,1.089.022.382.012.759.023,1.114.023a5.775,5.775,0,0,0,2.282-.347,2.739,2.739,0,0,0,1.57-3.82c-.027-.078-.054-.153-.072-.222l-.021-.08a5.3,5.3,0,0,1,.481-.4c.57-.427,1.756-1.317,1.343-2.555a1.563,1.563,0,0,0-.369-.6,2.214,2.214,0,0,0,.82-3.337l-.033-.06a4.821,4.821,0,0,0,1.745-1.114,2.674,2.674,0,0,0,.992-2.012,2.363,2.363,0,0,0-1.149-1.708,18.994,18.994,0,0,1-2.511-4.114,8.714,8.714,0,0,1-.094-3.506,14.191,14.191,0,0,0-.017-4.049,13.036,13.036,0,0,0-4.219-7.14c-.128-.125-.251-.246-.369-.363-1.618-1.618-4.415-3.849-10.008-4.548a28.252,28.252,0,0,0-3.53-.233m0,1.469a27.03,27.03,0,0,1,3.348.221c5.357.67,7.813,2.79,9.152,4.13s3.46,3.125,4.186,6.753c.492,2.462-.657,5.618.18,7.794a18.257,18.257,0,0,0,3,4.762c.67.5.837.67,0,1.507s-1.674.837-2.177,1.172-.5.335,0,1.339.837,1.172-.167,1.841l-1,.67.67,1.507s.67,0-.67,1-1.172,1.339-1,2.009.837,1.674-.67,2.344a4.521,4.521,0,0,1-1.685.22c-.693,0-1.469-.045-2.2-.045-1.3,0-2.469.142-2.785.931-.67,1.674-.011,3.507.882,5.59h-18.26l1-6.727a4.349,4.349,0,0,0-.477-2.706l-1.357-2.51s-6.252-6.422-6.252-10.826c0-6.019-.767-11.37,3.6-15.737a17.087,17.087,0,0,1,12.7-5.244" fill="#001a31"/><path d="M3882.927,120.162a1.891,1.891,0,0,0-.326.028,1.851,1.851,0,1,0,.326-.028m-.01,4.46a2.607,2.607,0,1,1,.454-.04,2.64,2.64,0,0,1-.454.04m-1.764,1.882.212.072a4.8,4.8,0,0,0,1.293.25l.239.013,1.011,2.585.86-.15.073-2.829.2-.1a4.83,4.83,0,0,0,1.094-.74l.177-.159,2.541,1.112.5-.714-1.95-2.054.073-.213a4.761,4.761,0,0,0,.25-1.293l.012-.238,2.586-1.012-.151-.86-2.829-.074-.1-.2a4.773,4.773,0,0,0-.74-1.093l-.159-.178,1.113-2.543-.714-.5-2.055,1.951-.212-.073a4.755,4.755,0,0,0-1.295-.248l-.238-.013-1.011-2.586-.86.151L3881,117.6l-.2.1a4.744,4.744,0,0,0-1.093.74l-.177.159-2.542-1.112-.5.714,1.949,2.054-.073.212a4.787,4.787,0,0,0-.249,1.294l-.012.238-2.585,1.012.15.86,2.83.074.1.2a4.78,4.78,0,0,0,.741,1.092l.159.177-1.112,2.541.715.5Zm2.287,3.755-1.061-2.711a5.491,5.491,0,0,1-1.037-.2l-2.171,2.061-1.706-1.2,1.166-2.664a5.55,5.55,0,0,1-.594-.878l-2.991-.078-.36-2.053,2.711-1.061a5.527,5.527,0,0,1,.2-1.038l-2.062-2.172,1.2-1.706,2.666,1.166a5.47,5.47,0,0,1,.878-.593l.077-2.991,2.052-.36,1.061,2.711a5.512,5.512,0,0,1,1.039.2l2.173-2.063,1.706,1.2-1.167,2.666a5.554,5.554,0,0,1,.593.878l2.991.078.36,2.052-2.711,1.061a5.5,5.5,0,0,1-.2,1.038l2.062,2.171-1.2,1.706-2.666-1.166a5.547,5.547,0,0,1-.877.593l-.077,2.991Z" transform="translate(-54.091 -19.312)" fill="#001a31"/><path d="M3828.056,117.86a.963.963,0,0,0-.165.015.942.942,0,0,0-.378,1.7.947.947,0,0,0,.7.157.942.942,0,0,0-.161-1.87m-.006,2.624a1.689,1.689,0,1,1,.293-.026,1.667,1.667,0,0,1-.293.026m-1.075.781.212.073a2.658,2.658,0,0,0,.72.139l.238.013.586,1.5.26-.046.043-1.633.2-.1a2.639,2.639,0,0,0,.608-.412l.178-.159,1.471.644.152-.216-1.126-1.186.074-.213a2.639,2.639,0,0,0,.139-.718l.012-.239,1.5-.586-.045-.261-1.632-.043-.1-.2a2.715,2.715,0,0,0-.413-.609l-.159-.177.644-1.472-.217-.152-1.185,1.126-.213-.073a2.662,2.662,0,0,0-.72-.138l-.239-.013-.585-1.5-.261.046-.042,1.632-.2.1a2.668,2.668,0,0,0-.608.412l-.177.159-1.471-.643-.152.216,1.124,1.185-.072.211a2.659,2.659,0,0,0-.139.721l-.012.239-1.5.585.046.26,1.633.043.1.2a2.632,2.632,0,0,0,.413.607l.159.177-.643,1.471.216.152Zm1.287,2.555-.636-1.626a3.39,3.39,0,0,1-.461-.09l-1.3,1.239-1.208-.847.7-1.6a3.336,3.336,0,0,1-.263-.39l-1.8-.047-.255-1.453,1.625-.636a3.315,3.315,0,0,1,.09-.46l-1.24-1.306.847-1.207,1.6.7a3.337,3.337,0,0,1,.389-.263l.046-1.8,1.453-.254.636,1.625a3.435,3.435,0,0,1,.46.089l1.306-1.24,1.208.847-.7,1.6a3.506,3.506,0,0,1,.263.39l1.8.047.255,1.453-1.626.636a3.416,3.416,0,0,1-.09.461L3832.6,121l-.847,1.208-1.6-.7a3.367,3.367,0,0,1-.39.263l-.047,1.8Z" transform="translate(-14.773 -19.312)" fill="#001a31"/><path d="M3828.46,156.112a2.143,2.143,0,1,0,2.176,2.532,2.094,2.094,0,0,0-.36-1.6,2.2,2.2,0,0,0-1.413-.9,2.247,2.247,0,0,0-.4-.037m.041,5.017a3.029,3.029,0,0,1-.537-.048,2.877,2.877,0,1,1,1.031-5.66,2.942,2.942,0,0,1,1.884,1.2,2.831,2.831,0,0,1,.484,2.159,2.9,2.9,0,0,1-2.863,2.352m-1.995,4.338,1.343.244c.216-.293.7-1.07,1.1-1.74l.083-.14,1.34-.279.128.085c.677.446,1.482.95,1.807,1.122l1.112-.752c-.061-.364-.278-1.247-.481-2l-.043-.16.745-1.139.155-.03c.791-.15,1.711-.345,2.068-.448l.237-1.3c-.3-.216-1.1-.7-1.785-1.094l-.142-.081-.3-1.328.091-.132c.444-.652.946-1.426,1.125-1.749l-.775-1.1c-.365.056-1.275.264-2.048.46l-.154.039-1.158-.734-.032-.154c-.159-.777-.367-1.682-.474-2.031l-1.343-.244c-.216.294-.7,1.069-1.1,1.741l-.083.14-1.344.279-.129-.085c-.676-.446-1.478-.949-1.8-1.122l-1.112.751c.061.364.279,1.247.482,2l.043.16-.744,1.14-.155.029c-.792.15-1.713.346-2.071.45l-.237,1.3c.3.215,1.1.7,1.783,1.09l.142.081.3,1.331-.09.132c-.444.652-.946,1.427-1.124,1.75l.776,1.1c.364-.056,1.274-.264,2.047-.459l.154-.039,1.158.733.032.154c.159.777.366,1.683.473,2.032m1.513,1.021a.632.632,0,0,1-.108-.013l-1.726-.314c-.265-.048-.358-.064-.846-2.423l-.623-.395c-2.354.591-2.405.513-2.564.292l-1.006-1.418c-.163-.229-.215-.3,1.141-2.3l-.155-.7c-2.106-1.215-2.09-1.3-2.037-1.585l.307-1.688c.051-.274.067-.36,2.471-.82l.391-.6c-.624-2.314-.542-2.37-.309-2.528l1.44-.973c.222-.149.294-.2,2.337,1.14l.724-.15c1.224-2.054,1.318-2.037,1.594-1.986l1.725.314c.266.049.359.066.846,2.422l.623.4c2.357-.591,2.408-.513,2.565-.29l1,1.419c.161.23.212.3-1.142,2.3l.155.7c2.107,1.218,2.089,1.314,2.039,1.588l-.308,1.69c-.049.272-.065.359-2.469.818l-.391.6c.622,2.318.539,2.373.3,2.53l-1.435.971c-.221.15-.3.2-2.343-1.139l-.72.149c-1.052,1.764-1.27,2-1.484,2" transform="translate(-12.525 -46.892)" fill="#001a31"/></g></svg>