<svg xmlns="http://www.w3.org/2000/svg" width="59.084" height="40.598" viewBox="0 0 59.084 40.598"><g transform="translate(-4499.978 -99.32)"><g transform="translate(4499.978 112.821)"><g transform="translate(0 0)"><path d="M4526.407,178.752a2.881,2.881,0,0,1,1.694.551c1.258.915,3.779,2.747,5.162,3.731a4.8,4.8,0,0,0,7.172-1.887,3.741,3.741,0,0,0,.283-.957,15.489,15.489,0,0,0-.505-5.767,106.74,106.74,0,0,0-4.013-12.708,1.4,1.4,0,0,0-.795-.8.88.88,0,0,1-.461-.455,3.265,3.265,0,0,0-2.134-2.25,21.6,21.6,0,0,0-5.461-1.326,1.411,1.411,0,0,0-1.174.316,3.7,3.7,0,0,1-2.724.838c-1.017-.024-5.087-.024-6.1,0a3.7,3.7,0,0,1-2.724-.838,1.41,1.41,0,0,0-1.173-.316,21.6,21.6,0,0,0-5.462,1.326,3.264,3.264,0,0,0-2.134,2.25.883.883,0,0,1-.461.455,1.4,1.4,0,0,0-.795.8,106.827,106.827,0,0,0-4.012,12.708,15.448,15.448,0,0,0-.505,5.767,3.74,3.74,0,0,0,.283.957,4.8,4.8,0,0,0,7.173,1.887c1.381-.984,3.9-2.816,5.161-3.731a2.881,2.881,0,0,1,1.694-.551Z" transform="translate(-4499.978 -156.866)" fill="#fff"/><path d="M4527.093,158.269a.61.61,0,0,1,.08.006,20.154,20.154,0,0,1,5.112,1.235,1.878,1.878,0,0,1,1.313,1.337,2.263,2.263,0,0,0,1.223,1.342.736.736,0,0,1,.076.039,105.481,105.481,0,0,1,3.952,12.515,14.1,14.1,0,0,1,.483,5.249,2.348,2.348,0,0,1-.18.595,3.314,3.314,0,0,1-3.061,1.95,3.449,3.449,0,0,1-2.013-.644c-1.364-.972-3.812-2.75-5.15-3.723a4.264,4.264,0,0,0-2.52-.82H4514.39a4.261,4.261,0,0,0-2.517.82c-1.338.973-3.787,2.751-5.15,3.723a3.452,3.452,0,0,1-2.014.644,3.313,3.313,0,0,1-3.06-1.95,2.331,2.331,0,0,1-.18-.595,14.108,14.108,0,0,1,.483-5.249,105.5,105.5,0,0,1,3.952-12.515.715.715,0,0,1,.076-.039,2.268,2.268,0,0,0,1.223-1.342,1.878,1.878,0,0,1,1.313-1.337,20.139,20.139,0,0,1,5.111-1.235.617.617,0,0,1,.08-.006h.009a5,5,0,0,0,3.446,1.174l.218,0c.453-.011,1.638-.017,3.019-.017s2.566.007,3.02.017l.218,0a5,5,0,0,0,3.447-1.174h.009m0-1.4a1.329,1.329,0,0,0-.917.333,3.585,3.585,0,0,1-2.539.84l-.185,0c-.509-.012-1.78-.018-3.052-.018s-2.544.006-3.052.018l-.185,0a3.586,3.586,0,0,1-2.539-.84,1.327,1.327,0,0,0-.917-.333,2.042,2.042,0,0,0-.256.017,21.606,21.606,0,0,0-5.462,1.326,3.264,3.264,0,0,0-2.134,2.25.883.883,0,0,1-.461.455,1.4,1.4,0,0,0-.795.8,106.828,106.828,0,0,0-4.012,12.708,15.448,15.448,0,0,0-.505,5.767,3.739,3.739,0,0,0,.283.957,4.7,4.7,0,0,0,4.346,2.791,4.858,4.858,0,0,0,2.827-.9c1.381-.984,3.9-2.816,5.161-3.731a2.881,2.881,0,0,1,1.694-.551h12.016a2.881,2.881,0,0,1,1.694.551c1.258.915,3.779,2.747,5.162,3.731a4.855,4.855,0,0,0,2.827.9,4.7,4.7,0,0,0,4.346-2.791,3.741,3.741,0,0,0,.283-.957,15.489,15.489,0,0,0-.505-5.767,106.741,106.741,0,0,0-4.013-12.708,1.4,1.4,0,0,0-.795-.8.881.881,0,0,1-.461-.455,3.265,3.265,0,0,0-2.134-2.25,21.6,21.6,0,0,0-5.461-1.326,2.042,2.042,0,0,0-.256-.017Z" transform="translate(-4499.978 -156.866)" fill="#001a31"/></g><path d="M4598.019,204.856a3.457,3.457,0,0,1,.009,6.913,3.457,3.457,0,1,1-.009-6.913Zm1.1,3.488a1.1,1.1,0,0,0-1.088-1.163,1.127,1.127,0,0,0-1.173,1.09,1.14,1.14,0,0,0,1.1,1.17A1.121,1.121,0,0,0,4599.116,208.344Z" transform="translate(-4572.344 -193.597)" fill="#cb003d"/><path d="M4534.336,180.351a3.456,3.456,0,1,1-3.471,3.418A3.421,3.421,0,0,1,4534.336,180.351Zm-.018,2.323a1.1,1.1,0,0,0-1.13,1.122,1.118,1.118,0,0,0,1.124,1.138,1.155,1.155,0,0,0,1.148-1.131A1.138,1.138,0,0,0,4534.319,182.674Z" transform="translate(-4523.619 -174.841)" fill="#cb003d"/><path d="M4555.071,209.455c0,.412.008.768,0,1.123a1.153,1.153,0,0,1-2.3.1c-.036-.383-.007-.773-.007-1.229-.408,0-.761.009-1.115,0a1.124,1.124,0,0,1-1.175-1.1,1.142,1.142,0,0,1,1.113-1.214c.368-.027.74,0,1.166,0,0-.376-.006-.7,0-1.025a1.166,1.166,0,0,1,1.167-1.26,1.139,1.139,0,0,1,1.154,1.256c.006.325,0,.65,0,1.025.387,0,.713-.007,1.039,0a1.184,1.184,0,0,1,1.279,1.2,1.172,1.172,0,0,1-1.3,1.123C4555.776,209.457,4555.463,209.455,4555.071,209.455Z" transform="translate(-4538.623 -193.592)" fill="#cb003d"/><path d="M4628.675,201.053a1.151,1.151,0,0,1-1.163,1.164,1.164,1.164,0,0,1,0-2.328A1.152,1.152,0,0,1,4628.675,201.053Z" transform="translate(-4596.704 -189.796)" fill="#cb003d"/><path d="M4627.542,180.351a1.124,1.124,0,0,1,1.143,1.171,1.168,1.168,0,0,1-1.139,1.149,1.211,1.211,0,0,1-1.183-1.17A1.157,1.157,0,0,1,4627.542,180.351Z" transform="translate(-4596.712 -174.841)" fill="#cb003d"/><path d="M4617.77,192.4a1.119,1.119,0,0,1-1.114-1.194,1.149,1.149,0,0,1,1.161-1.119,1.18,1.18,0,0,1,1.151,1.189A1.146,1.146,0,0,1,4617.77,192.4Z" transform="translate(-4589.281 -182.289)" fill="#cb003d"/><path d="M4636.252,191.457a1.144,1.144,0,0,1,1.127-1.148,1.182,1.182,0,0,1,1.193,1.148,1.2,1.2,0,0,1-1.171,1.178A1.153,1.153,0,0,1,4636.252,191.457Z" transform="translate(-4604.281 -182.463)" fill="#cb003d"/><path d="M4606.714,215.927a1.121,1.121,0,0,1-1.162,1.1,1.14,1.14,0,0,1-1.1-1.17,1.125,1.125,0,0,1,1.172-1.09A1.1,1.1,0,0,1,4606.714,215.927Z" transform="translate(-4579.943 -201.18)" fill="#fff"/><path d="M4541.9,190.254a1.139,1.139,0,0,1,1.143,1.128,1.155,1.155,0,0,1-1.149,1.131,1.118,1.118,0,0,1-1.124-1.138A1.1,1.1,0,0,1,4541.9,190.254Z" transform="translate(-4531.197 -182.421)" fill="#fff"/></g><g transform="translate(4535.359 99.32)"><path d="M11.852,0h0A11.852,11.852,0,0,1,23.7,11.852V28.746A11.852,11.852,0,0,1,11.852,40.6H8.844A8.844,8.844,0,0,1,0,31.753v-19.9A11.852,11.852,0,0,1,11.852,0Z" transform="translate(0 0)" fill="#fff"/><path d="M4671.188,100.723a1.9,1.9,0,0,1,1.9,1.9v33.994a1.9,1.9,0,0,1-1.9,1.9H4653.25a1.062,1.062,0,0,1-1.061-1.061V102.622a1.9,1.9,0,0,1,1.9-1.9h17.1m0-1.4h-17.1a3.3,3.3,0,0,0-3.3,3.3v34.832a2.464,2.464,0,0,0,2.464,2.464h17.938a3.3,3.3,0,0,0,3.3-3.3V102.622a3.3,3.3,0,0,0-3.3-3.3Z" transform="translate(-4650.786 -99.32)" fill="#001a31"/></g><g transform="translate(4539.211 105.247)"><rect width="28.744" height="15.999" rx="3.47" transform="translate(15.999 0) rotate(90)" fill="#cb003d"/><path d="M4681.8,125.985v25.939h-13.193V125.985H4681.8m.589-1.4H4668.02a.814.814,0,0,0-.814.814v27.116a.814.814,0,0,0,.814.814h14.371a.814.814,0,0,0,.813-.814V125.4a.814.814,0,0,0-.813-.814Z" transform="translate(-4667.205 -124.582)" fill="#001a31"/></g><circle cx="1.334" cy="1.334" r="1.334" transform="translate(4546.024 134.584)" fill="#cb003d"/><path d="M4695.489,115.107h-3.694a.5.5,0,1,1,0-1h3.694a.5.5,0,0,1,0,1Z" transform="translate(-146.431 -11.316)" fill="#001a31"/></g></svg>