<svg xmlns="http://www.w3.org/2000/svg" width="36.204" height="53.993" viewBox="0 0 36.204 53.993"><g transform="translate(-473.211 -63.023)"><rect width="3.638" height="0.926" transform="translate(479.052 114.944)" fill="#fff"/><path d="M478.631,158.952l-.992,6.614H491.76l-1.323-6.614Z" transform="translate(-3.448 -74.698)" fill="#fff"/><rect width="5.027" height="11.112" transform="translate(499.887 63.618)" fill="#fff"/><path d="M577.3,125.388v27.019h12.633V125.388l-4.3-6.482h-4.365Z" transform="translate(-81.055 -43.515)" fill="#fff"/><rect width="12.633" height="3.34" transform="translate(496.249 83.626)" fill="#dc263f"/><rect width="12.633" height="7.044" transform="translate(496.249 108.825)" fill="#dc263f"/><path d="M477.64,193.319l1.554,6.085,5.176,2.745,5.473-3.043,1.257-5.787Z" transform="translate(-3.449 -101.459)" fill="#dc263f"/><path d="M486.154,84.9a11.628,11.628,0,0,1,1.306,6.037H474.527a11.65,11.65,0,0,1,1.3-6.037h10.323Zm-5.162,30.181,1.489.54H479.5Zm0-15.251c-3.607,0-5.777-3.753-6.337-7.494H487.33c-.559,3.741-2.73,7.494-6.338,7.494m5.874-16.333h-11.76l-.044.075a13.719,13.719,0,0,0-1.8,8.05.2.2,0,0,0,.005.063c.387,4.392,2.94,9.054,7.077,9.5v12.655l-5.017,1.815a.683.683,0,0,0-.424.775.646.646,0,0,0,.631.588h10.93a.652.652,0,0,0,.635-.628.675.675,0,0,0-.482-.752l-4.971-1.8V101.182c4.305-.432,6.65-5.024,7.066-9.4.263-2.16-.226-6.332-1.8-8.232Zm21.243,26.151v3.969c0,2-.447,2-.772,2h-9.8c-.414,0-.772-.911-.772-1.462v-4.507h11.347Zm-11.346-1.4V88.013h11.346v20.235Zm3.9-39.387V67.89h3.554v.966H500.66Zm0,.826h3.553v4.606h-3.554Zm3.559,6.006a4.554,4.554,0,0,0,1.767,3.019,5.487,5.487,0,0,1,2.126,4.194V86.61H496.764V82.9a5.5,5.5,0,0,1,2.118-4.171,4.612,4.612,0,0,0,1.773-3.043Zm-4.061-8.8v-1.5h4.56v1.5Zm.5-2.985h3.554v.7H500.66Zm6.2,13.731h0c-.719-.751-1.34-1.4-1.34-2.106V67.877a.651.651,0,0,0,.5-.686V65.3a.69.69,0,0,0-.5-.681v-.893a.623.623,0,0,0-.525-.7.568.568,0,0,0-.124,0H500.01a.679.679,0,0,0-.651.7v.895a.716.716,0,0,0-.5.681v1.89a.69.69,0,0,0,.5.681V75.53c0,.708-.621,1.356-1.34,2.106a7.207,7.207,0,0,0-2.555,5.271v30.707c0,2.506,1.073,3.4,2.075,3.4h9.8c.948,0,2.077-.59,2.077-3.4V82.905a7.213,7.213,0,0,0-2.556-5.271" transform="translate(0 0)" fill="#001a31"/></g></svg>