<svg xmlns="http://www.w3.org/2000/svg" width="69.622" height="52.964" viewBox="0 0 69.622 52.964"><g transform="translate(-4122.076 -83.065)"><g transform="translate(4136.248 83.065)"><path d="M4214.7,112.026a19.348,19.348,0,0,0-9.769-3.389,19.832,19.832,0,0,0,4.3-4.136,19.141,19.141,0,0,0,3.954-7.459l.249-1.079-1.077.259a23.467,23.467,0,0,0-11.584,6.25,23.747,23.747,0,0,0-.094-8.209,28.477,28.477,0,0,0-3.77-10.3l-.577-.9-.576.9a28.489,28.489,0,0,0-3.771,10.3,23.759,23.759,0,0,0-.094,8.209,23.466,23.466,0,0,0-11.584-6.25l-1.076-.259.249,1.079a19.135,19.135,0,0,0,3.955,7.459,19.819,19.819,0,0,0,4.3,4.136,19.349,19.349,0,0,0-9.769,3.389l-1.026.691,1.13.5a18.7,18.7,0,0,0,12.515,1.365,14.42,14.42,0,0,0-2.2,5.322l-.24,1.184,1.14-.4c.118-.042.223-.075.318-.106a4.077,4.077,0,0,0,.574-.217,13.457,13.457,0,0,0,5.469-4.556v10.408a.685.685,0,1,0,1.371,0V115.811a13.452,13.452,0,0,0,5.469,4.556,4.038,4.038,0,0,0,.575.217c.095.031.2.065.318.106l1.14.4-.24-1.184a14.421,14.421,0,0,0-2.2-5.322,18.706,18.706,0,0,0,12.515-1.365l1.13-.5Z" transform="translate(-4176.937 -83.065)" fill="#fff"/><path d="M4214.7,112.026a19.348,19.348,0,0,0-9.769-3.389,19.832,19.832,0,0,0,4.3-4.136,19.141,19.141,0,0,0,3.954-7.459l.249-1.079-1.077.259a23.467,23.467,0,0,0-11.584,6.25,23.747,23.747,0,0,0-.094-8.209,28.477,28.477,0,0,0-3.77-10.3l-.577-.9-.576.9a28.489,28.489,0,0,0-3.771,10.3,23.759,23.759,0,0,0-.094,8.209,23.466,23.466,0,0,0-11.584-6.25l-1.076-.259.249,1.079a19.135,19.135,0,0,0,3.955,7.459,19.819,19.819,0,0,0,4.3,4.136,19.349,19.349,0,0,0-9.769,3.389l-1.026.691,1.13.5a18.7,18.7,0,0,0,12.515,1.365,14.42,14.42,0,0,0-2.2,5.322l-.24,1.184,1.14-.4c.118-.042.223-.075.318-.106a4.077,4.077,0,0,0,.574-.217,13.457,13.457,0,0,0,5.469-4.556v10.408a.685.685,0,1,0,1.371,0V115.811a13.452,13.452,0,0,0,5.469,4.556,4.038,4.038,0,0,0,.575.217c.095.031.2.065.318.106l1.14.4-.24-1.184a14.421,14.421,0,0,0-2.2-5.322,18.706,18.706,0,0,0,12.515-1.365l1.13-.5Zm-14.285.6-2.664-1.015,1.911,2.115a13.136,13.136,0,0,1,2.951,5.17,10.955,10.955,0,0,1-5.183-5.142.679.679,0,0,0-.225-.269h0a1.668,1.668,0,0,0-.875-.3,1.456,1.456,0,0,0-.87.3.014.014,0,0,1,0,0,.678.678,0,0,0-.228.27,10.958,10.958,0,0,1-5.182,5.142,13.134,13.134,0,0,1,2.95-5.17l1.912-2.115-2.664,1.015a16.766,16.766,0,0,1-12.417-.156,17.423,17.423,0,0,1,10.367-2.446l3.424.243-3.068-1.539a17.594,17.594,0,0,1-6.04-5.067,19.692,19.692,0,0,1-3.384-5.8,21.211,21.211,0,0,1,11.438,7.47l2.073,2.671-.87-3.268a22.9,22.9,0,0,1-.439-10.209,28.474,28.474,0,0,1,3-8.862,28.474,28.474,0,0,1,3,8.862,22.893,22.893,0,0,1-.439,10.209l-.869,3.268,2.073-2.671a21.211,21.211,0,0,1,11.438-7.47,19.7,19.7,0,0,1-3.384,5.8,17.6,17.6,0,0,1-6.041,5.067l-3.068,1.539,3.424-.243a17.421,17.421,0,0,1,10.367,2.446A16.766,16.766,0,0,1,4200.416,112.623Z" transform="translate(-4176.937 -83.065)" fill="#001a31"/></g><g transform="translate(4122.076 121.344)"><path d="M4130,247.228h63.575l-5.437-1.968a56.567,56.567,0,0,1-8.5-3.88,37.275,37.275,0,0,0-3.436-1.7l-10.843-4.713a13.182,13.182,0,0,0-10.635.2l-.977.668a39.866,39.866,0,0,1-10.355,4.976l-.9.289c-2.982.953-5.774,1.4-8.3,2.884Z" transform="translate(-4127.956 -233.244)" fill="#fff"/><path d="M4191.7,245.933h-69.622l5.875-4.555a23.622,23.622,0,0,1,5.923-2.216c.82-.226,1.667-.459,2.52-.732l.9-.289a39.061,39.061,0,0,0,10.173-4.887l1.065-.719a13.947,13.947,0,0,1,11.223-.214l10.843,4.713a38.127,38.127,0,0,1,3.5,1.737,55.949,55.949,0,0,0,8.4,3.831Zm-65.526-1.4H4183.7l-1.676-.607a57.328,57.328,0,0,1-8.609-3.928,36.665,36.665,0,0,0-3.371-1.673l-10.843-4.714a12.493,12.493,0,0,0-10,.166l-.934.639a40.456,40.456,0,0,1-10.538,5.065l-.9.289c-.879.281-1.741.518-2.575.748a22.735,22.735,0,0,0-5.546,2.05Z" transform="translate(-4122.076 -231.247)" fill="#001a31"/></g><path d="M4140.176,207.549l-1.533-1.511-.659,1.447-15.567-15.346,1.438-.68-1.534-1.511,7.958-8.073,1.522,1.5.641-1.407,15.567,15.346-1.4.661,1.522,1.5Zm-2.423-6.329,2.395,2.36,4.018-4.076-2.384-2.35,1.4-.661-9.847-9.707-.641,1.408-2.384-2.35-4.018,4.076,2.395,2.36-1.438.68,9.848,9.707Z" transform="translate(-0.181 -73.285)" fill="#fff"/><g transform="translate(4123.132 109.582)"><path d="M4130,195.632l1.964,1.936-1.437.68,12.707,12.526.659-1.447,1.964,1.936,5.988-6.074-1.953-1.925,1.4-.661-12.708-12.526-.641,1.407-1.953-1.925Z" transform="translate(-4129.011 -188.565)" fill="#dc263f"/><path d="M4143.018,209.406l-1.749-1.724-.66,1.447-14.137-13.936,1.438-.68-1.749-1.724,6.973-7.074,1.738,1.713.641-1.408,14.137,13.936-1.4.661,1.738,1.713Zm-2.194-4.133,2.179,2.148,5-5.075-2.168-2.138,1.4-.661-11.277-11.117-.641,1.408-2.168-2.138-5,5.075,2.179,2.148-1.437.68,11.277,11.117Z" transform="translate(-4126.162 -185.716)" fill="#001a31"/><g transform="translate(4.6 4.624)"><rect width="15.217" height="2.532" transform="matrix(-0.712, -0.702, 0.702, -0.712, 11.829, 13.478)" fill="#fff"/><path d="M4155.807,218.088l-11.836-11.668,2.763-2.8,11.836,11.668Zm-9.851-11.682,9.837,9.7.792-.8-9.837-9.7Z" transform="translate(-4143.971 -203.618)" fill="#001a31"/></g></g><g transform="translate(4161.916 108.072)"><g transform="translate(0)"><rect width="12.151" height="27.851" rx="6.076" transform="translate(20.786 0) rotate(48.271)" fill="#001a31"/><path d="M4288.038,209.53a7.477,7.477,0,0,1-4.982-13.057l11.717-10.45a7.479,7.479,0,1,1,9.957,11.163l-11.717,10.45A7.448,7.448,0,0,1,4288.038,209.53Zm11.707-22.6a4.638,4.638,0,0,0-3.1,1.185l-11.717,10.45a4.672,4.672,0,1,0,6.22,6.974l11.717-10.45a4.672,4.672,0,0,0-2.844-8.152Q4299.881,186.932,4299.745,186.932Z" transform="translate(-4279.456 -183.026)" fill="#fff"/></g><path d="M4324.62,190.783l-6.868,6.36,7.924,8.884L4333.29,199l.043-4.313-3.531-3.959Z" transform="translate(-4307.044 -187.92)" fill="#dc263f"/><path d="M4294.835,231.68l6.868-6.36-7.923-8.884-7.615,7.031-.043,4.313,3.531,3.959Z" transform="translate(-4283.584 -206.99)" fill="#fff"/><path d="M4290.053,210.843a6.775,6.775,0,0,1-4.515-11.832l11.717-10.45a6.777,6.777,0,0,1,9.022,10.116l-11.717,10.45A6.752,6.752,0,0,1,4290.053,210.843Zm11.706-22.6a5.334,5.334,0,0,0-3.569,1.363l-11.718,10.45a5.374,5.374,0,1,0,7.155,8.021l11.716-10.45a5.374,5.374,0,0,0-3.27-9.376C4301.968,188.248,4301.863,188.245,4301.759,188.245Z" transform="translate(-4281.471 -185.041)" fill="#001a31"/><rect width="1.403" height="12.08" transform="matrix(0.746, -0.666, 0.666, 0.746, 9.869, 9.736)" fill="#001a31"/></g></g></svg>