<svg xmlns="http://www.w3.org/2000/svg" width="31.477" height="45.541" viewBox="0 0 31.477 45.541"><g transform="translate(-3453.746 -96.254)"><path d="M3462.18,99.393l-3.027,6.659,3.027,10.595h23.459l2.422-10.746-2.422-6.508Z" transform="translate(-4.038 -2.344)" fill="#fff"/><path d="M3472.6,169.622l2.365,25.828h17.594l2.743-25.828Z" transform="translate(-14.081 -54.789)" fill="#dc263f"/><path d="M3483.214,105.63h-27.459v-2.679h27.459Zm-2.679,8.037h-22.1l-.67-6.028h23.44Zm-2.48,26.231H3461.4l-2.6-24.244h21.826Zm-18.719-41.932h20.3l1.7,3.423h-23.7Zm24.185,3.423-2.187-5.135h-23.7l-2.187,5.135h-1.7v5.99h1.9L3459.7,141.8h20.056l3.528-34.417h1.939v-5.99Z" fill="#001a31"/></g></svg>