<svg xmlns="http://www.w3.org/2000/svg" width="56" height="37.074" viewBox="0 0 56 37.074"><g transform="translate(-64.4 -101.158)"><rect width="39.896" height="7.424" transform="translate(75.848 129.988)" fill="#fff"/><rect width="3.92" height="7.424" transform="translate(115.744 129.988)" fill="#dc263f"/><path d="M115.971,113.884c-1.728,2.119-2.706,3.445-2.706,6.088a8.792,8.792,0,0,0,2.419,6.081.911.911,0,0,0,.708.324.929.929,0,0,0,.486-.134.772.772,0,0,0,.373-.525.707.707,0,0,0-.152-.567c-1.42-1.77-2.1-3-2.1-5.178s.773-3.216,2.384-5.19c3.177-4.093,3.635-8.391,1.4-13.144a.917.917,0,0,0-1.121-.42.824.824,0,0,0-.5.46.7.7,0,0,0,.017.561c2.015,4.282,1.628,7.983-1.215,11.645m-3.34,12.493a.944.944,0,0,0,.488-.134.772.772,0,0,0,.368-.53.7.7,0,0,0-.153-.564c-1.42-1.772-2.095-3-2.095-5.179s.774-3.216,2.384-5.19c3.177-4.093,3.637-8.391,1.4-13.144a.916.916,0,0,0-1.123-.42.824.824,0,0,0-.5.46.7.7,0,0,0,.018.56c2.011,4.283,1.621,7.984-1.219,11.646-1.728,2.119-2.706,3.444-2.706,6.087a8.79,8.79,0,0,0,2.42,6.08.905.905,0,0,0,.711.326m6.3,10.351h-2.211v-6.053h2.211Zm-3.685,0h-1.474v-6.053h1.474Zm-2.947,0h-1.474v-6.053h1.474Zm-2.947,0h-1.474v-6.053h1.474Zm-2.947,0H79.137v-6.053H106.4Zm-42,1.506h56v-9.072h-56Z" fill="#001a31"/></g></svg>