<svg width="1024" height="1024" viewBox="0 0 1024 1024" xmlns="http://www.w3.org/2000/svg" style="background-color: white;">
  <defs>
    <!-- 定义用于缠绕线条的线性渐变 -->
    <linearGradient id="tangleGradient" x1="0%" y1="0%" x2="100%" y2="100%">
      <stop offset="0%" style="stop-color:#F8B195;" />
      <stop offset="50%" style="stop-color:#F67280;" />
      <stop offset="100%" style="stop-color:#C06C84;" />
    </linearGradient>
  </defs>
  
  <!-- 缠绕的线条 -->
  <g stroke="url(#tangleGradient)" stroke-width="22" stroke-linecap="round" stroke-linejoin="round" fill="none">
    <path d="M 512,50 C 150,50 150,450 350,500 C 550,550 700,400 850,350 C 1000,300 950,150 750,150 C 550,50 300,200 300,500"/>
    <path d="M 980,512 C 980,800 650,950 500,800 C 350,650 400,400 600,350 C 800,300 950,400 900,600 C 850,800 650,900 450,850"/>
    <path d="M 50,512 C 50,250 300,100 500,200 C 700,300 650,550 500,650 C 350,750 150,700 100,550 C 50,400 200,300 400,350"/>
    <path d="M 250,750 C 100,850 200,980 400,950 C 600,920 750,800 700,600 C 650,400 450,450 350,600 C 250,750 400,850 600,800"/>
    <path d="M 800,850 C 950,950 900,700 750,650 C 600,600 650,750 800,750 C 950,750 1000,600 850,500"/>
  </g>

  <!-- 脸部轮廓和特征 -->
  <g stroke-width="20" stroke-linecap="round" stroke-linejoin="round" fill="none">
    <!-- 脸部轮廓 (使用与背景线条相同的渐变，但可以调整) -->
    <path d="M 400,700 C 350,550 400,400 512,380 C 624,400 674,550 624,700" stroke="url(#tangleGradient)"/>

    <!-- 面部特征 (眼睛, 鼻子, 嘴巴) -->
    <g stroke="#6C5B7B">
      <!-- 左眼 -->
      <path d="M 380,500 C 400,525 440,525 460,500" />
      <!-- 右眼 -->
      <path d="M 560,500 C 580,525 620,525 640,500" />
      <!-- 鼻子 -->
      <path d="M 512,530 C 512,560 530,580 540,590" />
      <!-- 嘴巴 -->
      <path d="M 450,650 C 482,680 542,680 574,650" />
    </g>
  </g>
</svg>