<svg xmlns="http://www.w3.org/2000/svg" width="39.488" height="49.167" viewBox="0 0 39.488 49.167"><g transform="translate(-835.727 -74.14)"><path d="M879.279,121.7a5.685,5.685,0,0,1-5.641,5.716H848.656a5.688,5.688,0,0,1-5.641-5.716V87.227a5.689,5.689,0,0,1,5.641-5.715h24.982a5.686,5.686,0,0,1,5.641,5.715V121.7Z" transform="translate(-5.676 -5.742)" fill="#fff"/><path d="M861.074,93.017l-.376-.38a.793.793,0,0,0-1.121-.017l-.017.017a.818.818,0,0,0,0,1.153l.376.381a7.057,7.057,0,0,1-3.653,1.536v-.539a.806.806,0,0,0-1.612,0v.539a7.064,7.064,0,0,1-3.658-1.536l.376-.381a.818.818,0,0,0,0-1.153.793.793,0,0,0-1.121-.017l-.017.017-.376.38a7.26,7.26,0,0,1-1.515-3.7h.532a.817.817,0,0,0,0-1.634h-.532a7.251,7.251,0,0,1,1.513-3.707l.376.38a.8.8,0,0,0,1.125.013l.013-.013a.818.818,0,0,0,0-1.153l-.376-.381a7.033,7.033,0,0,1,3.659-1.536v.539a.806.806,0,1,0,1.612,0v-.539a7.012,7.012,0,0,1,3.654,1.536l-.376.381a.818.818,0,0,0,0,1.153.8.8,0,0,0,1.126.013l.013-.013.376-.38a7.22,7.22,0,0,1,1.515,3.706h-.527a.817.817,0,0,0,0,1.634h.532a7.225,7.225,0,0,1-1.517,3.7Zm.6-10.8a8.683,8.683,0,0,0-12.278-.127l-.127.127a8.959,8.959,0,0,0-.027,12.541.138.138,0,0,0,.027.027v.006a.235.235,0,0,0,.043.038,8.68,8.68,0,0,0,12.275.044l.044-.044a.228.228,0,0,0,.044-.038V94.78a.124.124,0,0,0,.037-.038,8.959,8.959,0,0,0-.037-12.532ZM873.6,115.958a5.685,5.685,0,0,1-5.641,5.716H842.98a5.688,5.688,0,0,1-5.641-5.716V81.486a5.689,5.689,0,0,1,5.641-5.715h24.982a5.686,5.686,0,0,1,5.641,5.715v34.472ZM867.962,74.14H842.98a7.312,7.312,0,0,0-7.253,7.348v34.471a7.313,7.313,0,0,0,7.253,7.348h24.982a7.309,7.309,0,0,0,7.253-7.349V81.486a7.308,7.308,0,0,0-7.253-7.346" fill="#001a31"/><path d="M921.8,117.49l-1.188,2.9a1.606,1.606,0,1,1-1.488-.623l1.187-2.9a.8.8,0,0,1,1.049-.442l0,0a.826.826,0,0,1,.436,1.066Zm0,0-1.188,2.9a1.606,1.606,0,1,1-1.488-.623l1.187-2.9a.8.8,0,0,1,1.049-.442l0,0a.826.826,0,0,1,.436,1.066Z" transform="translate(-63.865 -32.883)" fill="#dc263f"/></g></svg>