<svg xmlns="http://www.w3.org/2000/svg" width="46.492" height="43.682" viewBox="0 0 46.492 43.682">
  <!-- Porn addiction (non-explicit) — same visual language as sample: flat fills, red accent, dark stroke -->
  <g transform="translate(-3043.143 -89.298)">
    <!-- Tilted card in background (like scattered tabs) -->
    <rect width="40.177" height="18.774" transform="matrix(0.87,-0.492,0.492,0.87,3044.454,110.186)" fill="#fff"/>
    <!-- Main browser window -->
    <rect x="3054.517" y="110.43" width="31.646" height="21.143" fill="#fff"/>
    <!-- Red sidebar accent (habit bar) -->
    <path d="M3129.141,185s6.82,1.463,6.82,9.385a12.7,12.7,0,0,1-6.82,11.137h24.212V185Z" transform="translate(-66.372 -73.861)" fill="#dc263f"/>
    <!-- Browser chrome top bar -->
    <path d="M3084.8,131.252h-27.944a1.988,1.988,0,0,1-1.988-1.984v-5.952h31.92v5.952a1.988,1.988,0,0,1-1.988,1.981Z" fill="#001a31"/>
    <!-- Address bar pills -->
    <circle cx="1.2" cy="1.2" r="1.2" transform="translate(3056.2 123.9)" fill="#dc263f"/>
    <circle cx="1.2" cy="1.2" r="1.2" transform="translate(3059.7 123.9)" fill="#dc263f" opacity="0.7"/>
    <circle cx="1.2" cy="1.2" r="1.2" transform="translate(3063.2 123.9)" fill="#dc263f" opacity="0.4"/>
    <!-- Video panel -->
    <rect x="3056.5" y="114.2" width="19.6" height="12.1" rx="1.2" fill="#001a31"/>
    <!-- Play triangle -->
    <path d="M0,0 6.2,3.7 0,7.4Z" transform="translate(3063.6 118.5)" fill="#fff"/>
    <!-- XXX label -->
    <rect x="3077" y="114.2" width="7.9" height="3.2" rx="0.6" fill="#dc263f"/>
    <text x="3077.5" y="116.6" font-family="Arial, Helvetica, sans-serif" font-size="2.2" fill="#fff">XXX</text>
    <!-- Tags / services list -->
    <rect x="3077" y="118.4" width="7.9" height="7.9" rx="0.8" fill="#fff"/>
    <path d="M0,2.2A2.2,2.2,0,0,1,2.2,0H6.2A2.2,2.2,0,0,1,8.4,2.2V6.2A2.2,2.2,0,0,1,6.2,8.4H2.2A2.2,2.2,0,0,1,0,6.2Z" transform="translate(3078 119.4)" fill="#dc263f" opacity="0.12"/>
    <!-- Heart icon (service) -->
    <path d="M1.8,0A1.8,1.8,0,0,0,0,1.8c0,1.8,2.7,3,2.7,3s2.7-1.2,2.7-3A1.8,1.8,0,0,0,3.6,0,1.9,1.9,0,0,0,2.7.39,1.9,1.9,0,0,0,1.8,0Z" transform="translate(3080.2 121.5)" fill="#dc263f"/>
    <!-- Phone tile (escort/service implication, non-explicit) -->
    <rect x="3077" y="127.1" width="7.9" height="3.5" rx="0.6" fill="#001a31"/>
    <path d="M0,0H2.6V2.1H0Z" transform="translate(3078 127.9)" fill="#fff" opacity="0.85"/>
    <rect x="3082.1" y="127.9" width="1.9" height="1.9" rx="0.3" fill="#fff" opacity="0.85"/>
    <!-- Footer controls -->
    <rect x="3056.5" y="127.1" width="19.6" height="3.5" rx="0.7" fill="#fff"/>
    <rect x="3058.2" y="128.1" width="3.6" height="1.5" rx="0.5" fill="#dc263f"/>
    <rect x="3062.5" y="128.1" width="3.6" height="1.5" rx="0.5" fill="#dc263f" opacity="0.7"/>
    <rect x="3066.8" y="128.1" width="3.6" height="1.5" rx="0.5" fill="#dc263f" opacity="0.4"/>
    <!-- Bottom caption: "Porn Sites / Videos / Services" (CN labels, non-explicit) -->
    <text x="3055.8" y="133.8" font-family="Arial, Helvetica, sans-serif" font-size="2.4" fill="#001a31">色情网站 · 成人视频 · 服务</text>
    <!-- Outline / decorative strokes (echoing sample complex path density) -->
    <path d="M3084.325,109.694h-.8l5.638-3.194L3079.859,89.3l-36.716,20.8,9.776,17.185.215-.121v.844c0,1.866.271,3.063,1.107,3.9a3.335,3.335,0,0,0,2.614,1.075H3084.8a3.721,3.721,0,0,0,3.72-3.715V113.39a3.72,3.72,0,0,0-3.719-3.715Z" fill="#001a31" opacity="0.08"/>
  </g>
</svg>