<?xml version="1.0" encoding="UTF-8" standalone="no"?>
<!-- Created with Inkscape (http://www.inkscape.org/) -->

<svg
   xmlns:dc="http://purl.org/dc/elements/1.1/"
   xmlns:cc="http://creativecommons.org/ns#"
   xmlns:rdf="http://www.w3.org/1999/02/22-rdf-syntax-ns#"
   xmlns:svg="http://www.w3.org/2000/svg"
   xmlns="http://www.w3.org/2000/svg"
   xmlns:sodipodi="http://sodipodi.sourceforge.net/DTD/sodipodi-0.dtd"
   xmlns:inkscape="http://www.inkscape.org/namespaces/inkscape"
   width="900.79999"
   height="789.87"
   viewBox="0 0 238.33666 208.98644"
   version="1.1"
   id="svg820"
   inkscape:version="0.92.1 r15371"
   sodipodi:docname="worry.svg">
  <defs
     id="defs814" />
  <sodipodi:namedview
     id="base"
     pagecolor="#ffffff"
     bordercolor="#666666"
     borderopacity="1.0"
     inkscape:pageopacity="0.0"
     inkscape:pageshadow="2"
     inkscape:zoom="0.60499572"
     inkscape:cx="669.57374"
     inkscape:cy="345.0265"
     inkscape:document-units="px"
     inkscape:current-layer="layer1"
     showgrid="false"
     units="px"
     inkscape:window-width="1920"
     inkscape:window-height="1057"
     inkscape:window-x="-8"
     inkscape:window-y="-8"
     inkscape:window-maximized="1"
     inkscape:snap-global="false" />
  <metadata
     id="metadata817">
    <rdf:RDF>
      <cc:Work
         rdf:about="">
        <dc:format>image/svg+xml</dc:format>
        <dc:type
           rdf:resource="http://purl.org/dc/dcmitype/StillImage" />
        <dc:title></dc:title>
      </cc:Work>
    </rdf:RDF>
  </metadata>
  <g
     inkscape:label="Layer 1"
     inkscape:groupmode="layer"
     id="layer1"
     transform="translate(0,-88.013553)">
    <path
       inkscape:connector-curvature="0"
       id="path4158"
       d="M 228.70655,287.36916 9.6301359,287.36913 119.16841,97.643366 Z"
       inkscape:transform-center-y="-119.51226"
       inkscape:transform-center-x="-0.00020423408"
       style="opacity:1;fill:#ffffff;fill-opacity:1;stroke:#f0141e;stroke-width:19.04999924;stroke-linecap:butt;stroke-linejoin:round;stroke-miterlimit:4;stroke-dasharray:none;stroke-dashoffset:0;stroke-opacity:1"
       sodipodi:nodetypes="cccc" />
    <path
       inkscape:connector-curvature="0"
       id="path4186"
       d="m 119.11695,173.86291 c -6.91517,0 -12.60518,1.90927 -17.1019,5.74782 -4.402577,3.76592 -7.534045,8.04724 -9.344738,12.82146 l 11.153208,4.52191 c 2.75718,-8.02567 7.86462,-12.0779 15.29343,-12.0779 4.49894,0 7.98098,1.19106 10.44984,3.53688 2.63118,2.34583 3.94306,5.41652 3.94306,9.26441 0,1.99599 -0.51882,4.00457 -1.56388,5.92867 -0.94871,1.83144 -1.95671,3.28044 -2.97211,4.36108 -0.94871,1.00799 -2.59413,2.52222 -4.92141,4.66274 -4.14318,3.67326 -7.04859,6.9085 -8.6814,9.66634 -1.64541,2.67491 -2.46811,5.89086 -2.46811,9.64626 v 5.90865 h 12.17826 v -5.02443 c 0,-4.599 2.65341,-9.18672 7.91798,-13.7861 l 0.59294,-0.62258 c 2.25318,-2.00637 4.00236,-3.65845 5.20306,-4.90362 1.25258,-1.3482 2.75717,-3.53393 4.40259,-6.65206 1.638,-3.09737 2.46811,-6.16955 2.46811,-9.18406 0,-6.93519 -2.48294,-12.60704 -7.41546,-17.04172 -4.92142,-4.51672 -11.29108,-6.77212 -19.15199,-6.77212 z m -0.14823,75.5423 c -2.49776,0 -4.62494,0.83382 -6.35188,2.5526 -1.638,1.63578 -2.43106,3.62287 -2.43106,5.9687 0,2.34582 0.79306,4.32105 2.43106,6.02872 1.72694,1.6669 3.8467,2.51185 6.35188,2.51185 2.51258,0 4.6027,-0.84495 6.24811,-2.51185 1.72695,-1.70767 2.59412,-3.6829 2.59412,-6.02872 0,-2.34583 -0.86717,-4.33292 -2.59412,-5.9687 -1.64541,-1.71804 -3.74294,-2.5526 -6.24811,-2.5526 z"
       style="fill:#000000;fill-opacity:1;fill-rule:evenodd;stroke:none;stroke-width:1.85208273;stroke-linecap:round;stroke-linejoin:round;stroke-miterlimit:4;stroke-dasharray:none;stroke-opacity:1" />
    <path
       inkscape:connector-curvature="0"
       id="path4515"
       d="m 90.059478,212.75666 c -2.766059,0 -5.04207,0.76372 -6.840754,2.29912 -1.761042,1.50637 -3.013616,3.21891 -3.737891,5.1286 l 4.461277,1.80877 c 1.102872,-3.21028 3.145849,-4.83117 6.117368,-4.83117 1.799572,0 3.192402,0.47643 4.179938,1.41476 1.052471,0.93832 1.577228,2.16659 1.577228,3.70576 0,0.7984 -0.207529,1.60182 -0.625544,2.37147 -0.379498,0.73257 -0.782697,1.31217 -1.188856,1.74444 -0.379473,0.40318 -1.037644,1.00887 -1.968571,1.86508 -1.657259,1.46931 -2.819417,2.7634 -3.472548,3.86655 -0.65817,1.06996 -0.987244,2.35634 -0.987244,3.8585 v 2.36344 h 4.871295 v -2.00976 c 0,-1.83961 1.061371,-3.67468 3.167202,-5.51444 l 0.237172,-0.24903 c 0.901265,-0.80254 1.600945,-1.46339 2.08123,-1.96145 0.50103,-0.53927 1.10286,-1.41357 1.76103,-2.66083 0.6552,-1.23893 0.98722,-2.46781 0.98722,-3.67361 0,-2.77406 -0.99315,-5.04282 -2.96615,-6.8167 -1.968573,-1.8067 -4.516439,-2.70885 -7.660816,-2.70885 z m -0.05929,30.21693 c -0.999101,0 -1.849985,0.33352 -2.540757,1.02105 -0.655187,0.65432 -0.972416,1.44913 -0.972416,2.38746 0,0.93833 0.317229,1.72842 0.972416,2.41149 0.690772,0.66677 1.538686,1.00474 2.540757,1.00474 1.00503,0 1.841085,-0.33797 2.499244,-1.00474 0.690784,-0.68307 1.037643,-1.47316 1.037643,-2.41149 0,-0.93833 -0.346859,-1.73314 -1.037643,-2.38746 -0.658159,-0.68724 -1.497172,-1.02105 -2.499244,-1.02105 z"
       style="fill:#000000;fill-opacity:1;fill-rule:evenodd;stroke:none;stroke-width:0.74083322;stroke-linecap:round;stroke-linejoin:round;stroke-miterlimit:4;stroke-dasharray:none;stroke-opacity:1" />
    <path
       style="fill:#000000;fill-opacity:1;fill-rule:evenodd;stroke:none;stroke-width:0.52916652;stroke-linecap:round;stroke-linejoin:round;stroke-miterlimit:4;stroke-dasharray:none;stroke-opacity:1"
       d="m 119.84534,139.2025 c -1.97576,0 -3.60148,0.54551 -4.88626,1.64223 -1.25787,1.07598 -2.15258,2.29921 -2.66992,3.66328 l 3.18663,1.29197 c 0.78777,-2.29305 2.24703,-3.45083 4.36955,-3.45083 1.28542,0 2.28028,0.3403 2.98567,1.01054 0.75177,0.67024 1.12659,1.54758 1.12659,2.64698 0,0.57028 -0.14824,1.14416 -0.44682,1.69391 -0.27106,0.52325 -0.55906,0.93726 -0.84918,1.24602 -0.27106,0.288 -0.74117,0.72063 -1.40612,1.33221 -1.18377,1.0495 -2.01387,1.97386 -2.4804,2.76181 -0.47012,0.76426 -0.70517,1.6831 -0.70517,2.75607 v 1.68818 h 3.4795 v -1.43555 c 0,-1.314 0.75812,-2.62477 2.26229,-3.93888 l 0.1694,-0.17788 c 0.64377,-0.57324 1.14353,-1.04528 1.4866,-1.40103 0.35787,-0.3852 0.78775,-1.00971 1.25787,-1.9006 0.46801,-0.88496 0.70518,-1.76272 0.70518,-2.62401 0,-1.98148 -0.7094,-3.60201 -2.1187,-4.86906 -1.40611,-1.2905 -3.22603,-1.9349 -5.472,-1.9349 z m -0.0423,21.58351 c -0.71365,0 -1.32142,0.23823 -1.81483,0.72931 -0.46799,0.46738 -0.69459,1.03511 -0.69459,1.70535 0,0.67023 0.2266,1.23458 0.69459,1.72249 0.49341,0.47626 1.09905,0.71767 1.81483,0.71767 0.71787,0 1.31506,-0.24141 1.78517,-0.71767 0.49341,-0.48791 0.74117,-1.05226 0.74117,-1.72249 0,-0.67024 -0.24776,-1.23797 -0.74117,-1.70535 -0.47011,-0.49086 -1.06941,-0.72931 -1.78517,-0.72931 z"
       id="path4517"
       inkscape:connector-curvature="0" />
    <path
       style="fill:#000000;fill-opacity:1;fill-rule:evenodd;stroke:none;stroke-width:0.49741653;stroke-linecap:round;stroke-linejoin:round;stroke-miterlimit:4;stroke-dasharray:none;stroke-opacity:1"
       d="m 57.479475,246.88791 c -1.857218,0 -3.385392,0.51278 -4.59308,1.5437 -1.182408,1.01142 -2.023431,2.16126 -2.509729,3.44348 l 2.995434,1.21446 c 0.740498,-2.15547 2.112207,-3.24379 4.107375,-3.24379 1.208287,0 2.143465,0.31989 2.806533,0.9499 0.70666,0.63003 1.058989,1.45473 1.058989,2.48817 0,0.53607 -0.139338,1.0755 -0.420011,1.59227 -0.254799,0.49186 -0.525519,0.88103 -0.798228,1.17126 -0.254792,0.27072 -0.696701,0.67739 -1.321753,1.25228 -1.112737,0.98653 -1.893042,1.85543 -2.331575,2.59611 -0.441909,0.71839 -0.662857,1.58211 -0.662857,2.59069 v 1.58689 h 3.270728 v -1.3494 c 0,-1.23517 0.71263,-2.46729 2.126549,-3.70256 l 0.159244,-0.1672 c 0.605141,-0.53885 1.074917,-0.98256 1.397392,-1.31698 0.336407,-0.36209 0.740498,-0.94911 1.182407,-1.78656 0.439922,-0.83186 0.662865,-1.65696 0.662865,-2.46656 0,-1.8626 -0.66684,-3.3859 -1.991575,-4.57692 -1.321753,-1.21307 -3.032464,-1.8188 -5.143684,-1.8188 z m -0.03982,20.2885 c -0.670827,0 -1.242132,0.22394 -1.705938,0.68555 -0.439915,0.43934 -0.652913,0.97301 -0.652913,1.60303 0,0.63002 0.212998,1.16052 0.652913,1.61914 0.463806,0.44768 1.033116,0.67461 1.705938,0.67461 0.674804,0 1.236156,-0.22693 1.678065,-0.67461 0.463808,-0.45862 0.696701,-0.98912 0.696701,-1.61914 0,-0.63002 -0.232893,-1.16369 -0.696701,-1.60303 -0.441909,-0.46141 -1.005248,-0.68555 -1.678065,-0.68555 z"
       id="path4519"
       inkscape:connector-curvature="0" />
    <path
       inkscape:connector-curvature="0"
       id="path4521"
       d="m 158.09316,217.51916 c -3.95151,0 -7.20294,1.09103 -9.77249,3.28449 -2.51576,2.15195 -4.30517,4.59841 -5.33984,7.32652 l 6.37324,2.58396 c 1.57554,-4.5861 4.49408,-6.90167 8.73909,-6.90167 2.57084,0 4.56057,0.68061 5.97135,2.0211 1.50355,1.34047 2.25319,3.09514 2.25319,5.29395 0,1.14055 -0.29648,2.28831 -0.89364,3.38781 -0.54211,1.04651 -1.11812,1.87453 -1.69837,2.49205 -0.54211,0.57599 -1.48233,1.44125 -2.81222,2.66442 -2.36753,2.099 -4.02775,3.94771 -4.96082,5.52362 -0.94023,1.52854 -1.41033,3.3662 -1.41033,5.51212 v 3.37639 h 6.959 v -2.8711 c 0,-2.62802 1.51625,-5.24955 4.52458,-7.87777 l 0.3388,-0.35576 c 1.28753,-1.14649 2.28709,-2.09056 2.9732,-2.80206 0.71574,-0.7704 1.57551,-2.01942 2.51575,-3.8012 0.93602,-1.76992 1.41033,-3.52544 1.41033,-5.24802 0,-3.96296 -1.41879,-7.20403 -4.23739,-9.73812 -2.81222,-2.581 -6.45204,-3.86978 -10.944,-3.86978 z m -0.0847,43.16704 c -1.42732,0 -2.64285,0.47646 -3.62966,1.45861 -0.936,0.93477 -1.38919,2.07022 -1.38919,3.41069 0,1.34048 0.45319,2.46916 1.38919,3.44499 0.98681,0.95251 2.1981,1.43534 3.62966,1.43534 1.43574,0 2.6301,-0.48283 3.57035,-1.43534 0.98681,-0.97583 1.48234,-2.10451 1.48234,-3.44499 0,-1.34047 -0.49553,-2.47592 -1.48234,-3.41069 -0.94025,-0.98172 -2.13884,-1.45861 -3.57035,-1.45861 z"
       style="fill:#000000;fill-opacity:1;fill-rule:evenodd;stroke:none;stroke-width:1.05833304;stroke-linecap:round;stroke-linejoin:round;stroke-miterlimit:4;stroke-dasharray:none;stroke-opacity:1" />
  </g>
</svg>
