<svg xmlns="http://www.w3.org/2000/svg" width="60" height="21.627" viewBox="0 0 60 21.627"><g transform="translate(-1174.401 -141.823)"><path d="M1233.265,147.82l-4.907,9.322,4.907,10.007h22.6l5.873-9.962-5.873-9.367Z" transform="translate(-40.535 -4.505)" fill="#fff"/><path d="M1180.245,164.854v10.259l8.7-5.175Z" transform="translate(-4.39 -17.302)" fill="#fff"/><path d="M1384.259,164.854v10.259l-8.7-5.175Z" transform="translate(-151.12 -17.302)" fill="#fff"/><path d="M1239.063,158.5l3.024,6.685h5.947l18.678-14.682-2.974-5.3h-6.969Z" transform="translate(-48.577 -2.541)" fill="#dc263f"/><path d="M1232.564,156.818l-7.359-4.26,7.359-4.318v8.578Zm1.294-10.918a.975.975,0,0,0-.94,0l-10.053,5.884a.914.914,0,0,0-.457.78.9.9,0,0,0,.442.778l10.028,5.8a.883.883,0,0,0,.443.119,1.278,1.278,0,0,0,.541-.121,1,1,0,0,0,.539-.779V146.679a1,1,0,0,0-.542-.779Zm-57.622,10.918v-8.576l7.359,4.318Zm9.534-5.029-10.032-5.886a.892.892,0,0,0-1.337.775v11.69a.89.89,0,0,0,1.334.781l10.031-5.8a.9.9,0,0,0,.005-1.557Zm29.324,9.808H1202l16.161-12.353,2.026,3.539Zm-23.87-4.092,17.44-13.828h6.434l2.157,3.908L1199.036,161.6h-5.544Zm2.265-13.828h12.265l-15.439,12.166-1.917-3.351Zm22.886-1.286a1.03,1.03,0,0,0-.769-.568h-22.628a1.028,1.028,0,0,0-.769.568l-5.613,9.729a.963.963,0,0,0,0,.94l5.612,9.806a1.045,1.045,0,0,0,.769.585h22.628a1.03,1.03,0,0,0,.769-.568l5.609-9.729a1.088,1.088,0,0,0,0-1Z" fill="#001a31"/></g></svg>