<svg xmlns="http://www.w3.org/2000/svg" width="50.336" height="41.119" viewBox="0 0 50.336 41.119"><g transform="translate(-2657.848 -89.299)"><rect width="32.518" height="22.628" transform="translate(2672.9 119.082) rotate(-63.5)" fill="#fff"/><rect width="32.518" height="22.628" transform="matrix(0.259, -0.966, 0.966, 0.259, 2669.003, 121.629)" fill="#fff"/><rect width="32.518" height="22.628" transform="matrix(0.078, -0.997, 0.997, 0.078, 2665.743, 124.298)" fill="#fff"/><rect width="22.628" height="32.518" transform="translate(2658.652 97.963) rotate(-10.5)" fill="#fff"/><path d="M2691.787,120.392a1.927,1.927,0,0,1,.69.8,1.818,1.818,0,0,1-.081,1.434l-.04.019a1.645,1.645,0,0,0-.27-.709.9.9,0,0,0-1.007-.347.949.949,0,0,0-.645.785,1.611,1.611,0,0,0,.056.656,10.4,10.4,0,0,1,.552,1.815,2.685,2.685,0,0,1-.055.8,2.721,2.721,0,0,1,.9-.69c.554-.262,1.18-.335,1.723-.628a1.044,1.044,0,0,0,.54-1.139.905.905,0,0,0-.893-.683,2.153,2.153,0,0,0-.75.2,1.677,1.677,0,0,1,1.209-1,3.246,3.246,0,0,1,1.075.11c.012-.025.037-.075.049-.1-1.039-.532-2.083-1.059-3.137-1.558a.165.165,0,0,0,.068.22l.008,0Zm1.86-13.671a6.357,6.357,0,0,1-.043-3.069,7.341,7.341,0,0,1-1.17,1.119,6.13,6.13,0,0,1-1.576.84c-1.169.476-2.431.687-3.573,1.236a2.9,2.9,0,0,0-1.486,1.507,2.291,2.291,0,0,0,.053,1.912,2.256,2.256,0,0,0,1.592,1.206,3.114,3.114,0,0,0,1.739-.223c.242-.093.461-.237.7-.331a7.531,7.531,0,0,1-.675,1.054,3.853,3.853,0,0,1-2.184,1.492,5.549,5.549,0,0,1-2.849-.245.441.441,0,0,0-.233.292c2.614,1.288,5.218,2.605,7.832,3.889a.7.7,0,0,0,.037-.38,8.4,8.4,0,0,1-1.565-1.484,4,4,0,0,1-.662-1.953,6.15,6.15,0,0,1,.556-2.531.418.418,0,0,1,.071.226,3.407,3.407,0,0,0,1.059,2.127,2.239,2.239,0,0,0,2.068.438,2.2,2.2,0,0,0,1.294-1.012,2.983,2.983,0,0,0,.3-2.205c-.307-1.346-.959-2.573-1.291-3.9Zm-4.555-8.159a.185.185,0,0,0-.082-.213,2.06,2.06,0,0,1-.689-.8,1.638,1.638,0,0,1,.12-1.479,1.562,1.562,0,0,0,.249.7.908.908,0,0,0,1.088.352,1.042,1.042,0,0,0,.584-1.158c-.11-.6-.412-1.134-.549-1.723a2.641,2.641,0,0,1-.023-1.122c-.154.1-.262.253-.407.363a9.691,9.691,0,0,1-2.112.867,1.1,1.1,0,0,0-.663.976.888.888,0,0,0,.625.846,1.483,1.483,0,0,0,1.056-.161,1.754,1.754,0,0,1-1.144.99,2.034,2.034,0,0,1-1.039-.086.13.13,0,0,0-.169.075.077.077,0,0,0,0,.012c.832.443,1.689.84,2.528,1.272a5.509,5.509,0,0,0,.627.292Zm-10-2.133a2.1,2.1,0,0,0,.787-.524,1.888,1.888,0,0,1-.87,1.253,2.1,2.1,0,0,1-1.129.174.108.108,0,0,0-.116.1.107.107,0,0,0,0,.026c1.128.289,2.257.582,3.388.859,0-.038-.008-.114-.011-.151a2.309,2.309,0,0,1-.913-.649,1.784,1.784,0,0,1-.2-1.612,1.5,1.5,0,0,0,1.027,1.228,1.085,1.085,0,0,0,1.034-.223,1.239,1.239,0,0,0,.206-1.594,1.044,1.044,0,0,0-1.164-.365,1.561,1.561,0,0,0,.38-.595,1.118,1.118,0,0,0-.54-1.281,1.175,1.175,0,0,0-1.429.224,1.193,1.193,0,0,0-.177,1.2,1.055,1.055,0,0,0-1.25-.216,1.23,1.23,0,0,0-.432,1.664c.019.032.038.064.06.094a1.228,1.228,0,0,0,1.353.385Zm-9.043,24.385a.972.972,0,0,1,.05-.548L2673,108.623q2.087-8.364,4.169-16.722c.018-.063.034-.133.05-.2a.886.886,0,0,1,.206-.485l.022-.02a.45.45,0,0,1,.325-.116.732.732,0,0,1,.176.022l6.813,1.736-11.712,24-.1.19a2.522,2.522,0,0,0-.344,1.038,2.053,2.053,0,0,0,1.046,1.947q2.381,1.193,4.769,2.377l3.261,1.624q-2.8-.716-5.609-1.428l-5.61-1.427a.539.539,0,0,1-.423-.344Zm-4.381-8.619q-.386,5.421-.765,10.849a2.019,2.019,0,0,0,1.227,1.941,2.554,2.554,0,0,0,.9.173c.1.006.193.012.3.025q3.856.273,7.712.553,2.8.2,5.591.4-.344.063-.69.118l-14.892,2.621a.509.509,0,0,1-.584-.386q-1.541-8.921-3.079-17.843l-1.979-11.476-.013-.07a.843.843,0,0,1-.016-.392.534.534,0,0,1,.429-.369h.011q1.553-.268,3.106-.545c1.263-.225,2.527-.449,3.793-.663q-.516,7.533-1.057,15.061Zm5.528-2.566-2.5,10.021c-.019.087-.042.175-.066.261a2.476,2.476,0,0,0-.12.781,2.024,2.024,0,0,0,1.521,1.927l3.722.949,3,.763-9.436-.682-.179-.011a.873.873,0,0,1-.531-.13.557.557,0,0,1-.187-.544l.91-12.878q.507-7.175,1.015-14.347l.065-.935c.037-.549.074-1.1.121-1.645v-.006a.476.476,0,0,1,.187-.332.491.491,0,0,1,.311-.113.544.544,0,0,1,.077.006q1.453.1,2.9.208,1.643.12,3.285.236-2.038,8.236-4.1,16.471Zm22.315,17.954a.566.566,0,0,1-.485.322.95.95,0,0,1-.323-.113l-18.278-9.1a.5.5,0,0,1-.268-.284.468.468,0,0,1,0-.362l12.5-25.61c.1-.2.2-.4.3-.607.119-.248.237-.5.368-.747a.5.5,0,0,1,.7-.172l18.356,9.147a.515.515,0,0,1,.3.489.8.8,0,0,1-.119.344l-5.28,10.814q-3.872,7.932-7.755,15.884m13.97-28.62a2.593,2.593,0,0,0-.588-.365l-.089-.045-11.181-5.568-6.906-3.436a2.019,2.019,0,0,0-2.76.842c-.173.346-.345.692-.508,1.042l-.062-.018c-.054-.016-.108-.03-.157-.042q-2.858-.72-5.708-1.449l-1.229-.311a2.011,2.011,0,0,0-2.076.666,2.8,2.8,0,0,0-.509,1.238c-.01.045-.021.091-.031.135l-.062-.005-6.291-.455a2.236,2.236,0,0,0-.807.049,2.043,2.043,0,0,0-1.5,1.816l-.062.861c-.04.556-.079,1.113-.113,1.639l-7.1,1.252a2.041,2.041,0,0,0-1.879,1.849,2.9,2.9,0,0,0,.075.85l5.049,29.281a2.01,2.01,0,0,0,1.98,1.631,2.2,2.2,0,0,0,.319-.023l20.294-3.572a1.322,1.322,0,0,0,.311-.091,1.1,1.1,0,0,1,.109-.039l.435.107c.587.146,1.174.291,1.7.438.784.38,1.563.768,2.341,1.157l1.113.555c.083.039.166.082.248.123a2.492,2.492,0,0,0,1.122.361,2,2,0,0,0,1.905-1.154l12.757-26.135c.054-.127.118-.253.186-.376a2.756,2.756,0,0,0,.369-1.033,2.056,2.056,0,0,0-.692-1.774" transform="translate(0 0)" fill="#001a31"/><path d="M2673.31,134.133a1.135,1.135,0,0,0-1.238-.348,1.051,1.051,0,0,0-.688,1.122,1.944,1.944,0,0,0,.621,1.119c.583.565,1.193,1.1,1.729,1.717a6.031,6.031,0,0,1,.565.867,5.54,5.54,0,0,1,.711-2.081,5.586,5.586,0,0,0,.783-1.962,1.088,1.088,0,0,0-.893-1.246,1.058,1.058,0,0,0-.9.286,1.341,1.341,0,0,0-.4.89,2.32,2.32,0,0,1-.293-.364Z" transform="translate(-10.622 -34.556)" fill="#dc263f"/><path d="M2713.811,111.371a20.854,20.854,0,0,1-1.895,2.258.762.762,0,0,0-.148.179,17.853,17.853,0,0,1,1.594,2.531c.031.052.062.1.1.154a20.53,20.53,0,0,1,2.05-2.437,18.754,18.754,0,0,1-1.646-2.615Z" transform="translate(-42.336 -17.33)" fill="#dc263f"/></g></svg>