<svg xmlns="http://www.w3.org/2000/svg" width="7.954" height="52.492" viewBox="0 0 7.954 52.492"><g transform="translate(-2017.638 -70.888)"><rect width="2.19" height="3.457" transform="translate(2020.408 71.625)" fill="#fff"/><rect width="6.503" height="28.236" transform="translate(2018.526 94.436)" fill="#dc263f"/><path d="M2021.11,91.738l-.342,18.773h6.5l-.171-18.773Z" transform="translate(-2.413 -16.074)" fill="#fff"/><path d="M2028.072,126.473h1.508v-5.74h-1.508Zm-1.081,1.082v-7.861l3.693,0s0,5.265,0,7.863Z" transform="translate(-7.211 -37.625)" fill="#001a31"/><path d="M2024.518,93.642h-5.8v-1.5h5.8Zm-.027,28.652h-5.752V94.739h5.752ZM2018.7,81.008h5.811v9.983h-5.722c.016.016-.021-.01-.045-.046a.22.22,0,0,1-.042-.114c0-3.259,0-6.519,0-9.824m1.122-5.3,3.451-.01a5.834,5.834,0,0,1,1.089,4.18l-5.628.01a5.835,5.835,0,0,1,1.088-4.18m1-3.714h1.579c.023.837.009,1.72.009,2.6h-1.61Zm2.651,2.074V70.888h-3.712v3.181c0,.132-2.121,1.657-2.121,4.242V123.38h7.954V78.311a5.561,5.561,0,0,0-2.121-4.242" transform="translate(0 0)" fill="#001a31"/></g></svg>