<svg xmlns="http://www.w3.org/2000/svg" width="46.492" height="43.682" viewBox="0 0 46.492 43.682"><g transform="translate(-3043.143 -89.298)"><rect width="40.177" height="18.774" transform="matrix(0.87, -0.492, 0.492, 0.87, 3044.454, 110.186)" fill="#fff"/><rect width="31.646" height="21.143" transform="translate(3054.517 110.43)" fill="#fff"/><path d="M3129.141,185s6.82,1.463,6.82,9.385a12.7,12.7,0,0,1-6.82,11.137h24.212V185Z" transform="translate(-66.372 -73.861)" fill="#dc263f"/><path d="M3084.8,131.252h-27.944a1.988,1.988,0,0,1-1.988-1.984v-5.952h31.92v5.952a1.988,1.988,0,0,1-1.988,1.981Zm-31.667-17.86v11.066l-7.832-13.767,33.963-19.24,8.213,14.436-6.687,3.788h-23.934a3.723,3.723,0,0,0-3.723,3.715Zm31.666-1.985a1.987,1.987,0,0,1,1.987,1.984v2.595h-31.918v-2.595a1.988,1.988,0,0,1,1.988-1.984Zm0-1.731h-.8l5.638-3.194L3079.859,89.3l-36.716,20.8,9.776,17.185.215-.121v.844c0,1.866.271,3.063,1.107,3.9a3.335,3.335,0,0,0,2.614,1.075H3084.8a3.721,3.721,0,0,0,3.72-3.715V113.39a3.72,3.72,0,0,0-3.719-3.715Zm-.473-6.358a.7.7,0,0,0-.943-.267l-.011.006-3.766,2.133a9.762,9.762,0,0,0-.325-1.558,7.057,7.057,0,0,0-.809-1.7l1.828-1.036a.695.695,0,0,0,.266-.953.7.7,0,0,0-.94-.269l-.015.008-1.922,1.082c-.1-.135-.236-.3-.38-.479a20.286,20.286,0,0,1-1.42-1.916,1.879,1.879,0,0,1-.286-1.634,1.813,1.813,0,0,1,.822-.806,3.046,3.046,0,0,1,1.568-.264h.181a.7.7,0,0,0,.531-.208.692.692,0,0,0-.016-.992.721.721,0,0,0-.484-.2h-.2a4.285,4.285,0,0,0-2.274.447,3.007,3.007,0,0,0-1.546,1.866,3.373,3.373,0,0,0,.484,2.477,18.97,18.97,0,0,0,1.4,1.911c.14.177.271.343.386.49l-.564.32a.7.7,0,0,0,.679,1.219l.01-.005.668-.378a5.949,5.949,0,0,1,.678,1.388,7.541,7.541,0,0,1,.332,2.347.7.7,0,0,0,.7.7.714.714,0,0,0,.347-.091l4.754-2.693a.7.7,0,0,0,.265-.946" transform="translate(0 0)" fill="#001a31"/></g></svg>